<svg xmlns="http://www.w3.org/2000/svg" xmlns:xlink="http://www.w3.org/1999/xlink" x="0px" y="0px" width="73px"
	 height="72px" viewBox="0 0 73 72" enable-background="new 0 0 73 72" xml:space="preserve">
<g id="bck">
</g>
<g id="jablko_x5F_big">
	<g>
		<g>
			<path class="backgroundHighlight" fill="#F7F7F7" d="M36.367,65.125C20.312,65.125,7.25,52.06,7.25,36
				S20.312,6.875,36.367,6.875S65.485,19.94,65.485,36S52.423,65.125,36.367,65.125z"/>
			<path fill="#F1E99D" d="M36.367,8.125C51.734,8.125,64.235,20.63,64.235,36S51.734,63.875,36.367,63.875
				C21.001,63.875,8.5,51.37,8.5,36S21.001,8.125,36.367,8.125 M36.367,5.625C19.596,5.625,6,19.225,6,36
				c0,16.776,13.596,30.375,30.368,30.375c16.772,0,30.368-13.599,30.368-30.375C66.735,19.225,53.139,5.625,36.367,5.625
				L36.367,5.625z"/>
		</g>
		<path fill="#359145" d="M42.52,17.913c3.62-1.7,7.39-0.35,7.39-0.35c0.45,0.25-0.22,0.27-0.22,0.27
			c-2.09-0.25-3.38,0.05-4.01,0.28c-2.98,0.96-5.11,2.44-5.31,2.59c-0.49,0.24-0.83,0.35-1.25,0.71l-0.39,0.21l-0.2,0.17
			c-0.03,0.03-0.08,0.06-0.14,0.1l0.62,0.7c0.73,1.14,2.82,3.09,5.3,1.94c3.83-1.76,3.62-5.14,8.25-6.12c0,0-4.42-5.27-11.29-2.97
			c0,0-3.49,1.22-2.97,4.85C38.3,20.292,40.9,18.673,42.52,17.913z M43.47,28.153c0,0-5.08-1.65-8.01,0.64l-1.72-0.06
			c-1.15-0.55-3.22-1.15-6.21-0.58c0,0-11.27,1.1-7.15,14.28c0,0,3.16,17.31,13.89,14.29c0,0,1.23-0.83,3.02,0.13
			c0,0,7.15,2.61,10.72-7.96C48.01,48.893,54.61,30.763,43.47,28.153z M27.37,32.603c-0.19,0.13-4.27,2.9-2.17,7.43
			c0.25,0.54,0.01,1.19-0.54,1.45c-0.48,0.23-1.02,0.1-1.32-0.28c-0.05-0.07-0.1-0.14-0.13-0.21c-2.32-5.01,0.95-8.85,3-10.19
			c0.51-0.33,1.18-0.2,1.51,0.3C28.03,31.593,27.88,32.272,27.37,32.603z"/>
		<path fill="#F0C383" d="M35.43,25.903l0.03,2.89l-1.72-0.06l-1.02-8.13l2.64-0.46l0.05,4.12c1.37-1.41,2.54-2.07,2.98-2.37
			l0.62,0.7C38.23,23.183,35.84,25.243,35.43,25.903z"/>
	</g>
</g>
<g id="marchew_x5F_big">
	<g>
		<path fill="#60BDAB" d="M29.753,81.412l-0.58-0.46l-0.58-0.25l0.1-0.02l0.1-0.04l0.05-0.01l0.2-0.08l0.16-0.11l0.14-0.19
			l0.11-0.21l0.08-0.3v-0.27l-0.14-0.24l-0.22-0.16l-0.3-0.13l-0.3-0.03l-0.28-0.05l-0.19-0.03h-0.05l1.01-0.35l0.25-0.3v-0.26
			l-0.14-0.25l-0.27-0.26l-0.3-0.19l-0.31-0.14l-0.12-0.06l0.49,0.03l0.09-0.05h0.07l0.99-0.59v-0.32l-0.14-0.24l-0.31-0.19
			l-0.35-0.14l-0.39-0.05l-0.33-0.06h-0.33l0.25-0.18l0.2-0.25l0.19-0.24l0.14-0.24l0.16-0.22l0.08-0.18l0.09-0.14v-0.05l0.02-0.35
			l-0.14-0.19l-0.19-0.02l-0.27,0.05l-0.33,0.11h-0.01l-0.15,0.05l-0.25,0.13l-0.13,0.1l-0.26-0.2l-0.19-0.03l-0.11,0.06l-0.05-0.01
			l-0.25,0.14l-0.19,0.18l-0.16,0.27l-0.11,0.22l-0.03,0.06l-0.12-0.25h-0.28l-0.05,0.05h-0.1l-0.32,0.32l-0.05-0.02l-0.05-0.05
			l-0.09-0.14l-0.02-0.24l-0.03-0.35l0.08-0.51v-0.43l-0.08-0.19l-0.19-0.02l-0.11,0.05h-0.05l-0.25,0.13l-0.24,0.19l-0.29,0.28
			v-0.44l-0.03-0.72l-0.11-0.38l-0.24-0.14l-0.39,0.06l-0.29,0.09l-0.28,0.09l-0.41,0.19l-0.38,0.22l-0.2,0.14l0.02-0.09l-0.03-0.24
			l-0.24-0.29l-0.64-0.19l-0.41,0.08l-0.02,0.02l-0.13,0.03l-0.3,0.29l-0.22,0.49l-0.14,0.56l-0.11,0.54l-0.05,0.48v0.05l-0.04-0.07
			l-0.36-0.29l-0.58-0.09l-0.12,0.06h-0.03l-0.3,0.13l-0.14,0.29l-0.06,0.38l0.03,0.4l0.08,0.46l0.09,0.35l0.05,0.21l-0.48-0.29
			h-0.22l-0.12,0.05h-0.03l-0.19,0.08l-0.14,0.14l-0.11,0.22l-0.06,0.21l-0.05,0.16l-0.03,0.14v0.05l0.3,0.88l-0.15-0.02l-0.33,0.06
			l-0.12,0.04l-0.03,0.01l-0.36,0.13l-0.33,0.16l-0.3,0.14l-0.11,0.07l0.04-0.12l0.06-0.32l-0.14-0.41l-0.47-0.35l-0.35-0.02
			l-0.14,0.05h-0.02l-0.36,0.13l-0.35,0.3l-0.33,0.37l-0.28,0.38l-0.22,0.32l-0.12,0.22l-0.19-0.19l-0.3-0.03l-0.16,0.05l-0.08,0.03
			h-0.01l-0.16,0.06l-0.11,0.05l-0.44,0.48l-0.19,0.41l-0.02,0.4l0.08,0.3l0.16,0.27l0.17,0.21l0.16,0.11l0.06,0.05l-0.28,0.59
			l0.19,0.57l0.36,0.4l0.13,0.13l-0.17,0.01l-0.07,0.04l-0.08,0.01l-0.3,0.19l-0.24,0.24l-0.82-1.05l-0.05-0.05l-0.14-0.08
			l-0.22-0.11l-0.3-0.13l-0.28-0.06l-0.3-0.02l-0.3,0.08l-0.02,0.01l-0.14,0.04l-0.22,0.21l-0.14,0.51l0.22,0.43l0.36,0.3l0.17,0.11
			l-0.6,1.01l-0.81-0.55l-0.17-0.16l-0.19-0.03l-0.19,0.03l-0.05,0.03l-0.11,0.02l-0.19,0.13l-0.19,0.14l-0.17,0.1l-0.38,0.38
			l-0.17,0.27l-0.08,0.29l-0.06,0.27l-0.02,0.3l0.02,0.2l-0.03-0.04l-0.25-0.08h-0.22l-0.15,0.05h-0.01l-0.24,0.08l-0.23,0.11
			l-0.16,0.11l-0.14,0.13l-0.4,0.46l-0.14,0.46l0.08,0.35l0.22,0.32l0.28,0.27l0.27,0.17l-0.19,0.07l-0.33,0.22l-0.47,0.35
			l-0.38,0.43l-0.06,0.43l0.14,0.4l0.28,0.32l0.35,0.3l0.33,0.21l0.25,0.14l0.08,0.03l-0.28,0.05l-0.09,0.04l-0.07,0.01l-0.3,0.14
			l-0.16,0.21l-0.09,0.19l-0.02,0.19l0.05,0.16l0.03,0.14l0.02,0.02l-0.02,0.35l0.11,0.16l0.22,0.06l0.27-0.06l0.08-0.03l0.08-0.02
			l0.3-0.13l0.28-0.11l0.11-0.08l-0.05,0.72l0.22,0.49l0.3,0.29l0.14,0.08l-1.13,0.46l-0.27,0.27l-0.11,0.27l0.02,0.24l0.14,0.19
			l0.19,0.19l0.17,0.1l0.14,0.08l0.08,0.03l-0.99,0.54l-0.41,0.94l-0.09,0.67l0.14,0.46l0.28,0.27l0.35,0.13l0.33,0.05h0.39
			l-0.28,0.65v0.43l0.14,0.3l0.28,0.16l0.33,0.05l0.3,0.03l0.25-0.03l0.08-0.02l0.03,0.4l0.05,0.21l0.14,0.08l0.14-0.02l0.09-0.04
			l0.06-0.01l0.2-0.08l0.19-0.14l0.22-0.16l0.25-0.19l0.22-0.16l0.19-0.24l0.16-0.22l0.14-0.24l0.08-0.19l0.09-0.19l0.05-0.1v-0.04
			l0.7-0.16l-0.44,0.49l-0.28,0.43l-0.08,0.35v0.32l0.11,0.27l0.11,0.16l0.17,0.16l0.19,0.08l0.27-0.05l0.07-0.03l0.09-0.02
			l0.36-0.19l0.38-0.27l0.36-0.29l0.33-0.27l0.14-0.14l0.25,0.94l0.39,0.16l0.13-0.06l0.02,0.01l0.31-0.13l0.22-0.22l0.08-0.13
			l1.05-1.7l0.09,0.05l0.27,0.11l0.28-0.05l0.01-0.03l0.14-0.02l0.19-0.35l0.06-0.38l0.02-0.13l0.26,0.02l0.33-0.11l0.16-0.05
			l0.16-0.16l0.11-0.21l0.06-0.22l0.03-0.19l-0.03-0.13v-0.06l-0.47-0.32l-0.12-0.09l0.17,0.02c0.16-0.22,0.25-0.49,0.28-0.77
			l-0.17-0.03l0.17-0.23l0.01-0.13l0.01-0.22l-0.1-0.18c0-0.01-0.01-0.02-0.01-0.03l-0.08-0.14l-0.22-0.22l-0.13-0.07l0.14-0.03
			l0.01-0.02l0.15-0.04l0.19-0.29l0.1-0.25l0.04-0.1l0.05-0.16l0.03-0.08l0.09,0.03c0.28-0.43,0.55-0.92,0.58-1.19l-0.02-0.01
			l0.02-0.01l0.48-0.38l0.29-0.37l0.22,0.1l0.24,0.29l0.09,0.19l0.19,0.19l0.47,0.35l0.44,0.21l0.06-0.09l0.09,0.04l0.19-0.29
			l0.03-0.1l0.05-0.21l0.24,0.28c0,0,0,0.01,0.01,0.01c0.47,0.07,1.04-0.13,1.58-0.45l-0.09-0.1l0.16-0.08l0.21-0.16l0.1,0.1
			c0.33-0.24,0.64-0.5,0.9-0.77l-0.17-0.18l0.06-0.05l0.08,0.01l0.25-0.24l0.11-0.16l0.14-0.18l0.08,0.16
			c0.04-0.07,0.09-0.13,0.12-0.19c0.23-0.4,0.31-0.74,0.33-1.11l-0.06-0.11v-0.02l0.03-0.19v-0.09h0.25l0.44-0.05l0.1-0.04
			l0.05-0.01l0.5-0.21l0.3-0.3l0.03-0.3l-0.04-0.09v-0.01l0.02,0.01l0.17,0.06l0.33-0.05l0.06-0.03l0.09-0.02l0.07-0.04l0.21-0.12
			l0.18-0.23l0.05,0.2c0.35-0.18,0.6-0.52,0.82-0.88l-0.09-0.34l0.25-0.1l0.13-0.08l0.28-0.16l0.11-0.21l-0.11-0.17l-0.1-0.05
			l-0.15-0.08l-0.24-0.08l-0.14-0.04l-0.08-0.02l-0.08-0.02l-0.06-0.16v-0.33l0.1-0.28l0.21-0.01l0.25,0.02l0.3-0.02l0.15-0.06
			l0.25-0.08l0.25-0.13l0.25-0.14l0.36-0.34l0.13-0.19l0.14-0.41l0.06-0.43l0.02-0.32l0.31,0.16l0.42,0.03l0.04-0.06l0.11,0.01
			l0.33-0.43L29.753,81.412z M4.373,88.142l0.07-0.04l0.06-0.01L4.373,88.142z M4.543,88.112l-0.02-0.02l0.06-0.01l0.12,0.11
			L4.543,88.112z"/>
	</g>
</g>
<g id="ryba_x5F_big">
</g>
<g id="nabial_x5F_big">
</g>
<g id="ziarna_x5F_big">
</g>
<g id="przekaski_x5F_big">
</g>
<g id="marchew_x5F_small">
</g>
<g id="jablko_x5F_small">
</g>
<g id="ryba_x5F_small">
</g>
<g id="nabial_x5F_small">
</g>
<g id="przekaski_x5F_small">
</g>
<g id="ziarna_x5F_small">
</g>
</svg>
