<?xml version="1.0" encoding="utf-8"?>
<!-- Generator: Adobe Illustrator 16.2.0, SVG Export Plug-In . SVG Version: 6.00 Build 0)  -->
<!DOCTYPE svg PUBLIC "-//W3C//DTD SVG 1.1//EN" "http://www.w3.org/Graphics/SVG/1.1/DTD/svg11.dtd">
<svg version="1.1" id="Layer_1" xmlns="http://www.w3.org/2000/svg" xmlns:xlink="http://www.w3.org/1999/xlink" x="0px" y="0px"
	 width="46.75px" height="46.75px" viewBox="0 0 46.75 46.75" enable-background="new 0 0 46.75 46.75" xml:space="preserve">
<g>
	<path fill="#FFFFFF" d="M23.288,45.6C11,45.6,1,35.592,1,23.296S11,1,23.288,1c12.296,0,22.296,10,22.296,22.296
		S35.584,45.6,23.288,45.6z"/>
	<g>
		<path fill="#349145" d="M29.823,6.313c3.2-1.503,6.532-0.31,6.532-0.31c0.396,0.221-0.194,0.239-0.194,0.239
			c-1.849-0.221-2.988,0.044-3.545,0.248c-2.634,0.849-4.517,2.156-4.693,2.289c-0.433,0.212-0.733,0.31-1.104,0.628l-0.344,0.185
			l-0.178,0.151c-0.027,0.026-0.07,0.053-0.124,0.088l0.548,0.619c0.646,1.007,2.493,2.731,4.686,1.715
			c3.386-1.556,3.199-4.543,7.293-5.41c0,0-3.907-4.658-9.979-2.625c0,0-3.086,1.078-2.627,4.287
			C26.092,8.416,28.391,6.984,29.823,6.313z M30.663,15.364c0,0-4.491-1.459-7.081,0.565l-1.521-0.053
			c-1.016-0.486-2.846-1.017-5.489-0.513c0,0-9.962,0.972-6.32,12.624c0,0,2.793,15.301,12.278,12.632c0,0,1.087-0.734,2.669,0.114
			c0,0,6.32,2.308,9.476-7.037C34.676,33.695,40.51,17.671,30.663,15.364z M16.431,19.297c-0.167,0.115-3.774,2.563-1.918,6.568
			c0.221,0.477,0.009,1.052-0.478,1.281c-0.424,0.203-0.901,0.088-1.166-0.248c-0.044-0.063-0.089-0.123-0.115-0.186
			c-2.051-4.429,0.839-7.823,2.652-9.008c0.45-0.292,1.043-0.177,1.334,0.266C17.015,18.404,16.881,19.005,16.431,19.297z"/>
		<path fill="#F0C383" d="M23.556,13.375l0.026,2.554l-1.521-0.053L21.16,8.69l2.333-0.407l0.044,3.642
			c1.211-1.247,2.246-1.83,2.634-2.095l0.548,0.619C26.031,10.97,23.918,12.792,23.556,13.375z"/>
	</g>
</g>
</svg>
