<?xml version="1.0" encoding="utf-8"?>
<!-- Generator: Adobe Illustrator 16.2.0, SVG Export Plug-In . SVG Version: 6.00 Build 0)  -->
<!DOCTYPE svg PUBLIC "-//W3C//DTD SVG 1.1//EN" "http://www.w3.org/Graphics/SVG/1.1/DTD/svg11.dtd">
<svg version="1.1" id="Layer_1" xmlns="http://www.w3.org/2000/svg" xmlns:xlink="http://www.w3.org/1999/xlink" x="0px" y="0px"
	 width="46.75px" height="46.75px" viewBox="0 0 46.75 46.75" enable-background="new 0 0 46.75 46.75" xml:space="preserve">
<path fill="#FFFFFF" d="M23.375,0.995v44.6h-0.09c-12.29,0-22.29-10-22.29-22.3s10-22.3,22.29-22.3H23.375z"/>
<path fill="#349145" d="M22.065,15.875c-1.02-0.48-2.85-1.02-5.49-0.51c0,0-9.97,0.97-6.32,12.62c0,0,2.79,15.3,12.27,12.63
	c0,0,0.32-0.21,0.85-0.271v-24.43L22.065,15.875z M16.435,19.295c-0.17,0.12-3.78,2.56-1.92,6.57c0.22,0.479,0.01,1.05-0.48,1.279
	c-0.42,0.2-0.9,0.091-1.17-0.25c-0.04-0.06-0.09-0.119-0.11-0.18c-2.05-4.43,0.84-7.83,2.65-9.01c0.45-0.29,1.04-0.18,1.34,0.27
	C17.015,18.405,16.885,19.005,16.435,19.295z"/>
<polygon fill="#F0C383" points="23.375,8.305 23.375,15.915 22.065,15.875 21.165,8.685 "/>
</svg>
