<svg xmlns="http://www.w3.org/2000/svg" xmlns:xlink="http://www.w3.org/1999/xlink" x="0px" y="0px"
	 width="51.5px" height="51px" viewBox="0 0 51.5 51" enable-background="new 0 0 51.5 51" xml:space="preserve">
<g>
	<circle fill="#EC4E24" cx="25.75" cy="25.5" r="24"/>
</g>
<path fill="#FFFFFF" d="M29.241,12.363c-1.031-0.422-2.215-0.633-3.549-0.633c-0.931,0-1.828,0.145-2.689,0.434
	c-0.862,0.29-1.545,0.635-2.048,1.038c-0.592,0.453-1.026,0.922-1.303,1.406c-0.277,0.485-0.416,0.979-0.416,1.482
	c0,0.617,0.145,1.158,0.434,1.624c0.29,0.466,0.774,0.698,1.454,0.698c0.767,0,1.353-0.192,1.755-0.576s0.604-0.809,0.604-1.274
	c0-0.302-0.054-0.736-0.161-1.303c-0.106-0.566-0.191-1-0.254-1.302c0.201-0.151,0.519-0.312,0.953-0.481
	c0.434-0.17,0.94-0.255,1.52-0.255c1.535,0,2.702,0.504,3.501,1.513c0.8,1.008,1.199,2.458,1.199,4.349
	c0,1.185-0.18,2.108-0.538,2.77s-0.859,1.226-1.501,1.692c-0.616,0.441-1.314,0.76-2.095,0.955c-0.781,0.195-1.567,0.324-2.36,0.388
	v7.154h1.737v-4.172c2.592-0.303,4.631-1.19,6.116-2.665c1.484-1.474,2.228-3.376,2.228-5.708c0-1.071-0.167-2.063-0.501-2.977
	c-0.333-0.914-0.847-1.736-1.538-2.467C31.123,13.349,30.273,12.785,29.241,12.363z M26.495,35.165
	c-0.51-0.51-1.117-0.765-1.821-0.765c-0.705,0-1.313,0.255-1.822,0.765s-0.765,1.116-0.765,1.821s0.255,1.306,0.765,1.803
	s1.117,0.746,1.822,0.746c0.704,0,1.312-0.249,1.821-0.746s0.765-1.098,0.765-1.803S27.005,35.675,26.495,35.165z"/>
</svg>
