<?xml version="1.0" encoding="utf-8"?>
<!-- Generator: Adobe Illustrator 16.2.0, SVG Export Plug-In . SVG Version: 6.00 Build 0)  -->
<!DOCTYPE svg PUBLIC "-//W3C//DTD SVG 1.1//EN" "http://www.w3.org/Graphics/SVG/1.1/DTD/svg11.dtd">
<svg version="1.1" id="Layer_1" xmlns="http://www.w3.org/2000/svg" xmlns:xlink="http://www.w3.org/1999/xlink" x="0px" y="0px"
	 width="21.25px" height="21.364px" viewBox="0 0 21.25 21.364" enable-background="new 0 0 21.25 21.364" xml:space="preserve">
<path fill="#ED4D21" d="M10.5,1C5.25,1,1,5.25,1,10.5c0,5.25,4.25,9.5,9.5,9.5s9.5-4.25,9.5-9.5C20,5.25,15.75,1,10.5,1z M10.5,18.5
	c-4.41,0-8-3.59-8-8c0-4.41,3.59-8,8-8s8,3.59,8,8C18.5,14.911,14.91,18.5,10.5,18.5z"/>
<path fill="#ED4D21" d="M10.983,15.017H9.575v-1.476h1.408V15.017z M10.949,12.909h-1.34v-0.471c0-0.243,0.024-0.466,0.071-0.662
	c0.049-0.199,0.124-0.387,0.224-0.561c0.099-0.168,0.239-0.356,0.417-0.558c0.094-0.113,0.262-0.286,0.508-0.525
	c0.235-0.228,0.397-0.397,0.481-0.503c0.123-0.147,0.213-0.292,0.268-0.431c0.055-0.137,0.083-0.295,0.083-0.471
	c0-0.366-0.109-0.65-0.334-0.868c-0.223-0.216-0.539-0.326-0.938-0.326c-0.418,0-0.737,0.125-0.975,0.382
	c-0.239,0.257-0.37,0.687-0.388,1.277L9.021,9.337H7.688L7.686,9.19C7.67,8.325,7.914,7.625,8.411,7.11
	c0.498-0.515,1.172-0.776,2.006-0.776c0.511,0,0.976,0.1,1.378,0.296c0.41,0.2,0.729,0.493,0.947,0.87
	c0.217,0.373,0.326,0.782,0.326,1.216c0,0.279-0.043,0.532-0.127,0.751c-0.084,0.216-0.198,0.415-0.342,0.591
	c-0.137,0.17-0.354,0.396-0.666,0.687c-0.293,0.276-0.511,0.503-0.645,0.675c-0.127,0.166-0.216,0.326-0.266,0.478
	c-0.049,0.151-0.074,0.341-0.074,0.562V12.909z"/>
</svg>
