<svg class="askIcon" fill="#959595" xmlns="http://www.w3.org/2000/svg" xmlns:xlink="http://www.w3.org/1999/xlink" x="0px" y="0px" width="21.25px" height="21.364px" viewBox="0 0 21.25 21.364" enable-background="new 0 0 21.25 21.364" xml:space="preserve"><path d="M10.5,1C5.25,1,1,5.25,1,10.5S5.25,20,10.5,20s9.5-4.25,9.5-9.5S15.75,1,10.5,1z M10.5,18.5 c-4.41,0-8-3.59-8-8s3.59-8,8-8s8,3.59,8,8S14.91,18.5,10.5,18.5z"/><path d="M10.983,15.017H9.575v-1.475h1.408V15.017z M10.949,12.908h-1.34v-0.47c0-0.243,0.024-0.466,0.071-0.662 c0.049-0.199,0.124-0.387,0.224-0.56c0.099-0.169,0.239-0.357,0.417-0.559c0.094-0.113,0.262-0.286,0.508-0.525 c0.235-0.228,0.397-0.397,0.482-0.503c0.123-0.147,0.212-0.292,0.267-0.431c0.055-0.137,0.083-0.295,0.083-0.471 c0-0.366-0.109-0.65-0.334-0.868c-0.223-0.216-0.539-0.326-0.938-0.326c-0.418,0-0.737,0.125-0.975,0.382 c-0.239,0.257-0.37,0.687-0.388,1.277L9.021,9.337H7.688L7.686,9.19C7.67,8.325,7.914,7.625,8.411,7.11 c0.498-0.515,1.172-0.776,2.006-0.776c0.511,0,0.975,0.1,1.378,0.296c0.41,0.2,0.729,0.493,0.947,0.87 c0.217,0.373,0.327,0.782,0.327,1.216c0,0.279-0.043,0.532-0.128,0.751c-0.083,0.216-0.198,0.415-0.341,0.591 c-0.137,0.17-0.355,0.396-0.666,0.687c-0.294,0.276-0.511,0.503-0.645,0.676c-0.127,0.165-0.216,0.325-0.266,0.477 c-0.049,0.152-0.074,0.341-0.074,0.562V12.908z"/></svg>