<?xml version="1.0" encoding="utf-8"?>
<!-- Generator: Adobe Illustrator 16.2.0, SVG Export Plug-In . SVG Version: 6.00 Build 0)  -->
<!DOCTYPE svg PUBLIC "-//W3C//DTD SVG 1.1//EN" "http://www.w3.org/Graphics/SVG/1.1/DTD/svg11.dtd">
<svg version="1.1" id="Layer_1" xmlns="http://www.w3.org/2000/svg" xmlns:xlink="http://www.w3.org/1999/xlink" x="0px" y="0px"
	 width="90px" height="90px" viewBox="0 0 90 90" enable-background="new 0 0 90 90" xml:space="preserve">
<circle fill="#FFFFFF" cx="45" cy="45" r="43.5"/>
<path d="M59.293,23.737c0.613,0.211,1.106,0.519,1.213,1.249c0.17,1.178-0.597,2.005-1.749,1.815
	c-0.585-0.096-1.161-0.249-1.739-0.389c-0.271-0.067-0.41-0.019-0.502,0.289c-0.597,2.014-1.215,4.019-1.834,6.027
	c-0.065,0.216-0.058,0.386,0.077,0.578c1.499,2.16,2.991,4.324,4.477,6.491c0.148,0.219,0.256,0.243,0.49,0.109
	c4.701-2.701,10.775-2.038,14.771,1.642c3.212,2.955,4.629,6.657,4.117,10.977c-0.644,5.444-4.393,9.627-9.758,10.882
	c-4.223,0.992-8.037-0.021-11.323-2.869c-1.967-1.699-3.255-3.847-3.893-6.376c-0.059-0.228-0.148-0.316-0.398-0.273
	c-1.431,0.241-2.863,0.474-4.298,0.694c-0.358,0.052-0.536,0.375-0.841,0.5c-0.109,0.047-0.055,0.175-0.038,0.266
	c0.17,0.896,0.346,1.79,0.505,2.691c0.034,0.202,0.134,0.235,0.31,0.237c0.23,0.004,0.467-0.04,0.689,0.029
	c0.011,0.025,0.023,0.033,0.023,0.046c0.15,1.161,0.15,1.161-1.001,1.161c-0.582,0-1.162-0.006-1.743,0.008
	c-0.24,0.005-0.359-0.054-0.341-0.32c0.021-0.29,0.005-0.576,0.005-0.9c0.285-0.02,0.539-0.033,0.836-0.05
	c-0.192-1.001-0.381-1.974-0.562-2.946c-0.028-0.153-0.143-0.192-0.249-0.247c-0.632-0.331-0.957-0.863-0.982-1.57
	c-0.006-0.182-0.053-0.312-0.173-0.444c-4.621-5.148-9.239-10.304-13.859-15.455c-0.028-0.03-0.062-0.052-0.151-0.127
	c-0.133,0.561-0.233,1.094-0.389,1.612c-0.124,0.412-0.056,0.636,0.357,0.873c2.812,1.616,4.772,3.964,5.78,7.05
	c1.162,3.549,0.834,6.997-0.983,10.259c-1.573,2.816-3.92,4.78-6.98,5.808c-3.63,1.222-7.153,0.887-10.481-1.019
	c-2.803-1.603-4.7-3.977-5.741-7.039c-0.298-0.882-0.475-1.785-0.581-2.711c-0.013-0.137-0.045-0.268-0.07-0.402
	c0-0.584,0-1.162,0-1.746c0.021-0.091,0.054-0.184,0.063-0.278c0.276-2.88,1.363-5.404,3.348-7.508
	c2.903-3.082,6.494-4.392,10.701-4.025c0.989,0.087,1.948,0.337,2.926,0.651c0.758-3.321,1.505-6.604,2.26-9.906
	c-0.119-0.012-0.201-0.029-0.281-0.029c-1.301-0.003-2.602-0.003-3.902-0.007c-0.405,0-0.804,0.067-1.184,0.189
	c-0.873,0.281-1.513,0.81-1.696,1.754c-0.198,1.002-0.097,1.933,0.752,2.641c0.706,0.587,1.546,0.839,2.429,0.982
	c0.149,0.026,0.325,0.005,0.305,0.237c-0.038,0.467,0,0.938-0.1,1.398c-0.549,0.048-1.44-0.146-2.41-0.552
	c-2.708-1.139-3.289-3.834-2.242-6.023c0.694-1.45,1.982-2.04,3.487-2.193c2.067-0.208,4.146-0.049,6.222-0.073
	c0.022,0,0.045,0.026,0.074,0.043c0.14,0.837,0.305,1.665,0.036,2.527c-0.238,0.761-0.363,1.557-0.532,2.322
	c0.149,0.091,0.276,0.062,0.396,0.062c6.588,0.003,13.179,0,19.767,0.01c0.292,0,0.4-0.094,0.48-0.366
	c0.543-1.827,1.106-3.649,1.662-5.473c0.034-0.113,0.104-0.227,0.025-0.366c-1.046-0.052-2.096-0.107-3.147-0.062
	c-0.263,0.01-0.525,0.019-0.774-0.097c-0.475-0.219-0.567-0.772-0.178-1.12c0.253-0.227,0.565-0.354,0.897-0.396
	c1.414-0.178,2.829-0.331,4.243-0.516c0.736-0.097,1.488-0.077,2.218-0.236C58.518,23.737,58.904,23.737,59.293,23.737z
	 M30.49,41.36c-0.043,0.169-0.084,0.288-0.104,0.409c-0.217,1.382-0.72,2.644-1.46,3.839c-0.811,1.301-1.518,2.668-2.284,3.999
	c-0.123,0.212-0.139,0.37-0.022,0.597c0.483,0.948,0.065,2.051-0.901,2.456c-0.94,0.392-2.034-0.094-2.368-1.054
	c-0.349-1.007,0.218-2.076,1.268-2.319c0.298-0.069,0.436-0.218,0.571-0.458c0.979-1.745,1.969-3.491,2.961-5.233
	c0.136-0.242,0.242-0.491,0.302-0.766c0.133-0.607,0.263-1.214,0.418-1.817c0.069-0.277,0.023-0.415-0.275-0.513
	c-2.335-0.771-4.697-0.843-7.009-0.021c-4.194,1.491-6.757,4.457-7.49,8.869c-0.549,3.314,0.324,6.318,2.519,8.842
	c2.684,3.096,6.126,4.393,10.188,3.745c3.691-0.585,6.428-2.615,8.112-5.937c1.709-3.374,1.633-6.805-0.084-10.167
	C33.86,43.927,32.4,42.454,30.49,41.36z M60.39,41.46c1.749,2.534,3.484,5.046,5.214,7.569c0.121,0.177,0.265,0.195,0.453,0.202
	c0.804,0.032,1.438,0.559,1.647,1.338c0.192,0.725-0.105,1.509-0.732,1.925c-0.665,0.442-1.524,0.436-2.111-0.114
	c-0.293-0.268-0.563-0.268-0.894-0.21c-2.182,0.352-4.365,0.7-6.548,1.055c-0.73,0.12-1.459,0.239-2.191,0.359
	c0.835,3.965,4.377,7.806,9.376,8.434c4.901,0.623,9.734-2.174,11.605-6.713c1.885-4.575,0.517-9.919-3.242-12.913
	C68.945,39.184,63.765,39.365,60.39,41.46z M47.264,51.145c0.025,0.008,0.05,0.008,0.074,0.008
	c1.736-5.697,3.474-11.392,5.225-17.136c-0.232,0-0.398,0-0.562,0c-6.27,0-12.539,0-18.809,0c-1.057,0-1.051,0-1.294,1.04
	c-0.061,0.263-0.022,0.456,0.168,0.669c4.542,5.07,9.078,10.151,13.617,15.225c0.084,0.09,0.138,0.241,0.325,0.246
	c-0.16-0.836-0.328-1.663-0.473-2.491c-0.036-0.2-0.133-0.228-0.308-0.236c-0.789-0.034-0.789-0.036-0.785-0.819
	c0.001-0.054,0.005-0.112-0.001-0.165c-0.022-0.206,0.084-0.258,0.272-0.258c0.858,0.007,1.716,0,2.573,0.005
	c0.105,0.001,0.256-0.03,0.259,0.132c0.006,0.344,0.06,0.706-0.039,1.024c-0.062,0.195-0.401,0.046-0.612,0.092
	c-0.039,0.006-0.075,0.025-0.13,0.045C46.931,49.4,47.098,50.275,47.264,51.145z M54.023,35.142
	c-0.156,0.117-0.15,0.256-0.186,0.368c-1.284,4.199-2.563,8.4-3.843,12.6c-0.398,1.309-0.796,2.619-1.191,3.925
	c-0.111,0.368,0.156,0.875,0.44,0.83c1.256-0.199,2.512-0.412,3.767-0.606c0.234-0.036,0.277-0.133,0.264-0.354
	c-0.222-3.697,0.928-6.91,3.432-9.636c0.42-0.457,0.823-0.927,1.256-1.416C56.705,39.03,55.369,37.096,54.023,35.142z
	 M59.016,42.403c-0.063,0.041-0.114,0.063-0.152,0.099c-2.714,2.371-4.042,5.354-3.973,8.968c0.008,0.396,0.13,0.477,0.505,0.415
	c2.835-0.473,5.669-0.928,8.504-1.389c0.538-0.085,0.581-0.194,0.262-0.656c-1.63-2.367-3.263-4.735-4.896-7.098
	C59.188,42.628,59.102,42.521,59.016,42.403z"/>
</svg>
