<?xml version="1.0" encoding="utf-8"?>
<!-- Generator: Adobe Illustrator 16.2.0, SVG Export Plug-In . SVG Version: 6.00 Build 0)  -->
<!DOCTYPE svg PUBLIC "-//W3C//DTD SVG 1.1//EN" "http://www.w3.org/Graphics/SVG/1.1/DTD/svg11.dtd">
<svg version="1.1" id="Layer_1" xmlns="http://www.w3.org/2000/svg" xmlns:xlink="http://www.w3.org/1999/xlink" x="0px" y="0px"
	 width="90px" height="90px" viewBox="0 0 90 90" enable-background="new 0 0 90 90" xml:space="preserve">
<circle fill="#FFFFFF" cx="45" cy="45" r="43.5"/>
<path d="M22.184,23.78v11.163c0,0.394-0.319,0.712-0.712,0.712h-1.9c-0.394,0-0.712-0.318-0.712-0.712V23.78
	c0-0.395,0.318-0.713,0.712-0.713h1.9C21.865,23.067,22.184,23.385,22.184,23.78z"/>
<path d="M64.224,20.93h-2.376c-0.524,0-0.949,0.425-0.949,0.95v6.413h-3.955c-0.181-1.011-1.066-1.782-2.13-1.782
	c-1.197,0-1.879,1.088-1.879,1.088c-0.186,0.238-0.366,0.471-0.539,0.694h-4.392c-0.007-0.024-0.017-0.045-0.025-0.069
	c-0.018-0.05-0.039-0.1-0.061-0.15c-0.019-0.05-0.04-0.097-0.064-0.145c-0.156-0.333-0.359-0.642-0.603-0.917
	c-0.033-0.038-0.066-0.073-0.1-0.109c-0.033-0.035-0.069-0.071-0.104-0.107c-0.071-0.069-0.143-0.135-0.219-0.197
	c-0.029-0.026-0.06-0.047-0.088-0.073c-0.05-0.038-0.1-0.076-0.149-0.112c-0.04-0.028-0.079-0.054-0.122-0.083
	c-0.47-0.314-1.011-0.527-1.593-0.608c-0.054-0.009-0.112-0.019-0.167-0.023c-0.064-0.008-0.126-0.02-0.19-0.02h-0.014
	c-0.066,0-0.131-0.005-0.198-0.005c-0.066,0-0.13,0.005-0.197,0.005h-0.014c-0.064,0-0.126,0.012-0.19,0.02
	c-0.054,0.004-0.111,0.014-0.166,0.023c-0.582,0.083-1.126,0.297-1.594,0.608c-0.043,0.029-0.081,0.055-0.121,0.083
	c-0.052,0.036-0.102,0.074-0.149,0.112c-0.028,0.026-0.059,0.047-0.088,0.073c-0.076,0.062-0.147,0.128-0.219,0.197
	c-0.035,0.036-0.071,0.072-0.104,0.107c-0.034,0.036-0.066,0.072-0.1,0.109c-0.242,0.273-0.444,0.582-0.601,0.917
	c-0.026,0.047-0.048,0.095-0.067,0.145c-0.021,0.05-0.042,0.1-0.059,0.15c-0.01,0.021-0.02,0.045-0.026,0.069h-4.392
	c-0.173-0.223-0.354-0.456-0.539-0.694c0,0-0.682-1.088-1.879-1.088c-1.063,0-1.95,0.771-2.13,1.782h-4.026v-6.413
	c0-0.524-0.354-0.95-0.878-0.95h-2.375c-0.525,0-1.021,0.425-1.021,0.95v14.726c0,0.525,0.496,0.951,1.021,0.951h2.375
	c0.524,0,0.878-0.425,0.878-0.951V30.43h4.838l6.396,8.194l-0.237,13.421l-0.95,17.812h0.005c-0.002,0.053-0.005,0.104-0.005,0.157
	c0,1.389,1.126,2.484,2.516,2.484c1.344,0,2.441-0.979,2.515-2.404h0.002l0.787-17.1h1.591l0.786,17.1h0.003
	c0.073,1.425,1.171,2.404,2.515,2.404c1.39,0,2.516-1.096,2.516-2.484c0-0.053-0.003-0.104-0.006-0.157h0.006l-0.95-17.812
	l-0.237-13.421l6.396-8.194h4.768v6.175c0,0.525,0.425,0.951,0.949,0.951h2.376c0.524,0,0.949-0.425,0.949-0.951V21.879
	C65.173,21.355,64.748,20.93,64.224,20.93z M44.308,35.062c-2.462,0-3.586-1.031-6.422-4.631h2.593
	c0.012,0.055,0.024,0.109,0.038,0.164c0.029,0.11,0.063,0.217,0.1,0.321c0.019,0.052,0.038,0.104,0.06,0.154
	c0.045,0.114,0.095,0.224,0.152,0.331c0.019,0.041,0.041,0.079,0.062,0.116c0.135,0.24,0.292,0.463,0.472,0.668
	c0.036,0.04,0.071,0.081,0.109,0.121c0.038,0.039,0.076,0.077,0.114,0.115c0.04,0.038,0.081,0.076,0.121,0.111
	c0.083,0.074,0.169,0.145,0.257,0.209c0.05,0.038,0.102,0.073,0.152,0.109c0.055,0.035,0.107,0.069,0.161,0.102
	c0.053,0.033,0.107,0.064,0.164,0.095c0.055,0.029,0.112,0.06,0.169,0.086c0.171,0.083,0.352,0.154,0.534,0.211
	c0.06,0.019,0.124,0.035,0.186,0.052c0.126,0.033,0.252,0.06,0.382,0.078c0.114,0.017,0.228,0.031,0.344,0.036
	c0.026,0.002,0.053,0.005,0.076,0.005c0.059,0.002,0.116,0.004,0.175,0.004c0.06,0,0.117-0.002,0.176-0.004
	c0.024,0,0.049-0.002,0.076-0.005c0.117-0.005,0.23-0.019,0.345-0.036c0.131-0.019,0.256-0.045,0.382-0.078
	c0.062-0.017,0.125-0.034,0.185-0.052c0.186-0.058,0.364-0.129,0.534-0.211c0.058-0.026,0.114-0.057,0.169-0.086
	c0.057-0.03,0.111-0.062,0.164-0.095c0.055-0.033,0.106-0.067,0.161-0.102c0.051-0.036,0.103-0.071,0.152-0.109
	c0.088-0.067,0.174-0.135,0.257-0.209c0.04-0.035,0.081-0.073,0.121-0.111l0.114-0.115c0.038-0.04,0.073-0.081,0.108-0.121
	c0.181-0.207,0.34-0.43,0.474-0.668c0.021-0.038,0.043-0.076,0.062-0.116c0.057-0.107,0.108-0.218,0.151-0.331
	c0.021-0.049,0.04-0.102,0.061-0.154c0.037-0.104,0.07-0.211,0.099-0.321c0.015-0.055,0.029-0.109,0.039-0.164h2.593
	C47.895,34.03,46.771,35.062,44.308,35.062z"/>
<path d="M69.686,23.78v11.163c0,0.394-0.318,0.712-0.712,0.712h-1.9c-0.395,0-0.712-0.318-0.712-0.712V23.78
	c0-0.395,0.317-0.713,0.712-0.713h1.9C69.367,23.067,69.686,23.385,69.686,23.78z"/>
</svg>
