<?xml version="1.0" encoding="utf-8"?>
<!-- Generator: Adobe Illustrator 16.2.0, SVG Export Plug-In . SVG Version: 6.00 Build 0)  -->
<!DOCTYPE svg PUBLIC "-//W3C//DTD SVG 1.1//EN" "http://www.w3.org/Graphics/SVG/1.1/DTD/svg11.dtd">
<svg version="1.1" id="Layer_1" xmlns="http://www.w3.org/2000/svg" xmlns:xlink="http://www.w3.org/1999/xlink" x="0px" y="0px"
	 width="422px" height="261px" viewBox="0 0 422 261" enable-background="new 0 0 422 261" xml:space="preserve">
<path fill-rule="evenodd" clip-rule="evenodd" d="M296.751,10.199c3.698,1.273,6.657,3.13,7.293,7.516
	c1.028,7.078-3.587,12.055-10.517,10.917c-3.518-0.578-6.982-1.5-10.454-2.34c-1.64-0.396-2.476-0.113-3.024,1.741
	c-3.584,12.109-7.303,24.178-11.024,36.246c-0.4,1.298-0.347,2.317,0.461,3.481c9.011,12.985,17.987,25.995,26.918,39.035
	c0.896,1.309,1.545,1.458,2.957,0.647c28.27-16.235,64.795-12.251,88.828,9.875c19.316,17.783,27.827,40.025,24.755,66.01
	c-3.87,32.74-26.411,57.898-58.68,65.459c-25.398,5.951-48.341-0.139-68.096-17.252c-11.827-10.244-19.58-23.148-23.409-38.35
	c-0.35-1.389-0.902-1.902-2.395-1.652c-8.609,1.445-17.227,2.844-25.854,4.176c-2.148,0.33-3.227,2.25-5.061,3.023
	c-0.656,0.275-0.323,1.025-0.218,1.582c1.017,5.391,2.076,10.773,3.026,16.178c0.213,1.215,0.816,1.424,1.863,1.438
	c1.394,0.018,2.812-0.236,4.146,0.18c0.074,0.137,0.139,0.207,0.149,0.283c0.898,6.984,0.898,6.984-6.021,6.984
	c-3.496,0-6.993-0.053-10.487,0.023c-1.446,0.033-2.164-0.307-2.047-1.926c0.124-1.725,0.028-3.467,0.028-5.42
	c1.705-0.096,3.241-0.18,5.024-0.279c-1.149-6.014-2.285-11.871-3.375-17.738c-0.169-0.91-0.855-1.146-1.5-1.486
	c-3.805-1.996-5.753-5.186-5.904-9.434c-0.038-1.076-0.323-1.875-1.036-2.67c-27.793-30.973-55.569-61.961-83.351-92.945
	c-0.161-0.18-0.371-0.314-0.905-0.76c-0.801,3.38-1.413,6.582-2.343,9.688c-0.743,2.482-0.333,3.831,2.146,5.255
	c16.915,9.714,28.704,23.841,34.769,42.4c6.976,21.342,5.013,42.068-5.925,61.686c-9.457,16.959-23.568,28.752-41.972,34.945
	c-21.824,7.342-43.008,5.316-63.022-6.131c-16.858-9.645-28.276-23.936-34.528-42.332c-1.8-5.295-2.865-10.75-3.492-16.299
	c-0.092-0.818-0.282-1.623-0.426-2.434c0-3.496,0-6.992,0-10.488c0.127-0.563,0.319-1.117,0.374-1.686
	c1.663-17.305,8.202-32.494,20.134-45.154c17.461-18.527,39.057-26.399,64.356-24.197c5.949,0.518,11.717,2.023,17.605,3.911
	c4.553-19.973,9.053-39.717,13.581-59.578c-0.718-0.076-1.202-0.171-1.685-0.172c-7.824-0.015-15.649-0.01-23.473-0.029
	c-2.439-0.006-4.83,0.395-7.121,1.134c-5.239,1.691-9.097,4.874-10.206,10.547c-1.179,6.028-0.585,11.618,4.536,15.885
	c4.239,3.532,9.293,5.043,14.606,5.905c0.899,0.146,1.951,0.028,1.838,1.42c-0.228,2.805-0.007,5.646-0.6,8.404
	c-3.305,0.305-8.671-0.866-14.499-3.314c-16.282-6.842-19.78-23.06-13.481-36.223c4.169-8.713,11.921-12.261,20.962-13.18
	c12.441-1.263,24.942-0.296,37.417-0.445c0.138-0.001,0.278,0.156,0.457,0.263c0.834,5.037,1.833,10.007,0.207,15.205
	c-1.429,4.566-2.172,9.348-3.203,13.962c0.899,0.55,1.664,0.374,2.393,0.374c39.622,0.009,79.244-0.005,118.865,0.052
	c1.763,0.002,2.409-0.573,2.895-2.206C263.272,48.923,266.659,37.968,270,27c0.208-0.683,0.63-1.361,0.146-2.2
	c-6.285-0.309-12.594-0.64-18.918-0.375c-1.585,0.066-3.16,0.112-4.656-0.579c-2.859-1.32-3.416-4.643-1.079-6.735
	c1.531-1.371,3.407-2.133,5.403-2.384c8.5-1.069,17.019-1.978,25.511-3.099c4.442-0.587,8.956-0.458,13.352-1.429
	C292.09,10.199,294.42,10.199,296.751,10.199z M123.532,116.184c-0.261,1.027-0.502,1.738-0.617,2.467
	c-1.307,8.316-4.334,15.904-8.793,23.086c-4.863,7.836-9.129,16.041-13.732,24.041c-0.738,1.281-0.839,2.219-0.131,3.605
	c2.9,5.684,0.389,12.332-5.415,14.762c-5.663,2.371-12.24-0.559-14.25-6.346c-2.093-6.029,1.32-12.484,7.632-13.941
	c1.789-0.412,2.621-1.305,3.425-2.738c5.899-10.516,11.844-21.004,17.811-31.482c0.832-1.461,1.461-2.959,1.819-4.604
	c0.795-3.654,1.587-7.311,2.51-10.934c0.424-1.666,0.142-2.5-1.649-3.088c-14.053-4.626-28.246-5.058-42.149-0.119
	c-25.238,8.965-40.647,26.793-45.044,53.338c-3.301,19.93,1.945,37.98,15.142,53.178c16.146,18.594,36.838,26.395,61.271,22.523
	c22.19-3.518,38.658-15.729,48.78-35.707c10.277-20.285,9.82-40.93-0.501-61.146C143.795,131.629,135.023,122.771,123.532,116.184z
	 M303.357,116.797c10.508,15.234,20.953,30.354,31.35,45.506c0.733,1.068,1.591,1.191,2.723,1.236
	c4.837,0.191,8.653,3.332,9.906,8.039c1.161,4.361-0.627,9.064-4.4,11.576c-3.998,2.664-9.168,2.596-12.709-0.689
	c-1.752-1.625-3.37-1.605-5.365-1.281c-13.125,2.137-26.256,4.234-39.384,6.354c-4.39,0.709-8.775,1.443-13.17,2.166
	c5.021,23.852,26.314,46.928,56.386,50.727c29.472,3.723,58.537-13.094,69.791-40.396c11.332-27.492,3.099-59.629-19.499-77.646
	C354.801,103.105,323.646,104.186,303.357,116.797z M224.412,175.047c0.147,0.014,0.294,0.027,0.441,0.041
	c10.446-34.26,20.892-68.52,31.424-103.066c-1.405,0-2.393,0-3.382,0c-37.705,0-75.409,0-113.113,0
	c-6.357,0-6.325,0.008-7.779,6.256c-0.368,1.583-0.145,2.742,1.003,4.023c27.325,30.497,54.599,61.038,81.9,91.558
	c0.503,0.563,0.826,1.434,1.955,1.49c-0.971-5.047-1.969-10.012-2.854-14.994c-0.213-1.199-0.798-1.373-1.846-1.416
	c-4.751-0.197-4.75-0.229-4.72-4.928c0.002-0.334,0.034-0.67-0.002-0.998c-0.135-1.246,0.504-1.553,1.631-1.545
	c5.16,0.033,10.321,0.008,15.481,0.023c0.625,0.002,1.526-0.182,1.548,0.787c0.046,2.068,0.36,4.27-0.236,6.166
	c-0.373,1.191-2.415,0.275-3.675,0.551c-0.237,0.053-0.463,0.154-0.789,0.266C222.406,164.535,223.409,169.791,224.412,175.047z
	 M265.057,78.801c-0.933,0.698-0.904,1.528-1.112,2.206c-7.722,25.255-15.416,50.518-23.109,75.782
	c-2.396,7.865-4.788,15.73-7.165,23.602c-0.668,2.215,0.938,5.256,2.656,4.984c7.551-1.193,15.088-2.48,22.643-3.65
	c1.411-0.219,1.673-0.795,1.592-2.129c-1.336-22.232,5.564-41.545,20.637-57.947c2.518-2.74,4.944-5.568,7.55-8.512
	C281.185,102.174,273.161,90.546,265.057,78.801z M295.082,122.461c-0.379,0.242-0.679,0.381-0.917,0.59
	c-16.32,14.271-24.302,32.215-23.885,53.922c0.046,2.396,0.778,2.881,3.036,2.506c17.039-2.836,34.094-5.566,51.142-8.342
	c3.241-0.527,3.494-1.186,1.577-3.963c-9.813-14.229-19.628-28.453-29.447-42.678C296.122,123.822,295.612,123.176,295.082,122.461z
	"/>
</svg>
