<?xml version="1.0" encoding="utf-8"?>
<!-- Generator: Adobe Illustrator 16.2.0, SVG Export Plug-In . SVG Version: 6.00 Build 0)  -->
<!DOCTYPE svg PUBLIC "-//W3C//DTD SVG 1.1//EN" "http://www.w3.org/Graphics/SVG/1.1/DTD/svg11.dtd">
<svg version="1.1" id="Layer_1" xmlns="http://www.w3.org/2000/svg" xmlns:xlink="http://www.w3.org/1999/xlink" x="0px" y="0px"
	 width="49.25px" height="55.25px" viewBox="0 0 49.25 55.25" enable-background="new 0 0 49.25 55.25" xml:space="preserve">
<g>
	<path fill="#FFFFFF" d="M25.497,54.197c-12.288,0-22.288-10.008-22.288-22.304s10-22.296,22.288-22.296
		c12.296,0,22.296,10,22.296,22.296S37.793,54.197,25.497,54.197z"/>
	<g>
		<path fill="#EF5551" d="M37.217,49.081l-0.071-0.175l-0.125-0.387l-0.142-0.416l-0.086-0.311l-0.097-0.396l-0.135-0.282
			l-0.122-0.138l-0.064-0.041l-0.024-0.164l-0.057-0.394l-0.161-0.437l-0.24-0.325l-0.085-0.087l0.004-0.115l0.031-0.124
			l-0.235-1.215l-0.46-1.05l-0.432-0.704l-0.204-0.274l-0.211-1.053l-0.371-0.779l-0.348-0.518l-0.161-0.148l-0.143-1.126
			l-0.257-0.775l-0.237-0.431l-0.073-0.134l-0.019-0.74l-0.183-0.707l-0.277-0.698l-0.349-0.576l-0.379-0.492l-0.305-0.391
			l-0.215-0.228l-0.093-0.09L30.85,32.97l-0.067-0.454l-0.118-0.607l-0.146-0.598l-0.31-0.566l-0.481-0.609l-0.465-0.474
			l-0.186-0.179l0.077-0.401l0.011-0.468l-0.076-0.416l-0.093-0.444l-0.116-0.36l-0.105-0.298l-0.083-0.194l-0.046-0.079l-0.376-0.5
			l-0.432-0.349l-0.451-0.272l-0.491-0.149l-0.504-0.063l-0.497,0.007l-0.052,0.011l-0.082-0.004l-0.499,0.08l-0.477,0.093
			l-0.462,0.13l-0.426,0.181l-0.303,0.121l-2.191,1.251l-0.068,0.041L20.8,27.82l-0.567,0.541l-0.505,0.722l-0.287,0.834
			l-0.008,1.038l0.393,1.124l0.146,0.234l0.405,0.549l0.24,0.226c-0.074,0.129-0.073,0.287,0.01,0.415l0.012,0.02
			c0.063,0.107,0.163,0.173,0.271,0.201l0.678,0.354c0.087,0.047,0.182,0.063,0.278,0.046l0.157,0.486l0.317,0.7l0.386,0.527
			l0.467,0.399l0.283,0.22c-0.042,0.13-0.034,0.264,0.045,0.375l0.249,0.352c0.098,0.132,0.268,0.209,0.434,0.176l0.122-0.027
			l0.137,0.34l0.228,0.437l0.303,0.431l0.381,0.452l0.45,0.338c-0.026,0.133,0.013,0.275,0.111,0.375l0.278,0.269
			c0.071,0.077,0.175,0.126,0.281,0.129l0.173,0.002l0.094,0.148l0.259,0.379l0.361,0.397l0.43,0.423l0.544,0.36l0.015,0.004
			c-0.07,0.181-0.005,0.378,0.155,0.494l0.31,0.21c0.078,0.053,0.163,0.075,0.254,0.073l0.116-0.003l0.079,0.144l0.191,0.387
			l0.247,0.393l0.317,0.344l0.092,0.057c-0.008,0.164,0.067,0.322,0.22,0.402l0.319,0.172c0.052,0.021,0.104,0.042,0.161,0.049
			l0.017-0.004l0.053,0.212l0.137,0.34l0.228,0.372l0.295,0.364l0.374,0.317l0.462,0.225l0.085,0.087l0.23,0.265l0.295,0.364
			l0.324,0.346l0.216,0.187l0.243,0.218l0.168,0.15l0.075,0.06l0.071,0.175l0.257,0.42l0.419,0.461l0.601,0.333l0.2,0.093
			l0.178,0.111l0.12,0.08l0.058,0.031l1.918,1.907l0.087-0.052l0.046,0.044l0.105-0.056L37.217,49.081z"/>
		<path fill="#61BDAB" d="M25.408,10.385l-0.359-0.471l-0.4-0.308L24.73,9.61l0.085-0.011l0.041,0.002l0.171-0.022l0.146-0.054
			l0.146-0.12l0.127-0.141l0.121-0.217l0.053-0.209l-0.062-0.214l-0.139-0.167l-0.207-0.16l-0.227-0.082L24.778,8.12L24.636,8.06
			L24.597,8.05l0.852-0.073l0.253-0.183l0.051-0.202l-0.06-0.221l-0.158-0.255L25.341,6.91l-0.213-0.169L25.047,6.67l0.374,0.12
			l0.08-0.021l0.055,0.014l0.884-0.262l0.063-0.248L26.44,6.058L26.237,5.85l-0.244-0.177l-0.292-0.115l-0.244-0.111L25.201,5.38
			l0.23-0.091l0.204-0.154l0.194-0.149l0.156-0.159l0.167-0.139l0.098-0.124l0.097-0.091l0.01-0.039l0.085-0.268L26.37,3.993
			L26.227,3.94l-0.219-0.015L25.73,3.947l-0.008-0.002l-0.126,0.009l-0.22,0.052l-0.12,0.052l-0.162-0.206L24.953,3.79l-0.097,0.025
			l-0.037-0.018l-0.222,0.06l-0.183,0.103l-0.177,0.178l-0.129,0.148l-0.035,0.041l-0.044-0.218l-0.216-0.055l-0.049,0.028
			l-0.078-0.02l-0.311,0.185L23.34,4.223l-0.028-0.049l-0.043-0.126l0.032-0.189l0.046-0.277l0.162-0.38l0.085-0.333L23.57,2.705
			l-0.144-0.053l-0.096,0.017l-0.039-0.01L23.073,2.71l-0.224,0.101l-0.279,0.161l0.086-0.342l0.118-0.564l-0.01-0.316l-0.159-0.156
			l-0.313-0.03l-0.242,0.013L21.813,1.59l-0.355,0.067L21.12,1.753l-0.182,0.069l0.033-0.066l0.023-0.192l-0.129-0.272l-0.458-0.273
			L20.073,1l-0.02,0.011l-0.107-0.002l-0.29,0.166L19.39,1.511l-0.219,0.407L18.98,2.315l-0.133,0.363l-0.01,0.039l-0.018-0.063
			l-0.222-0.295l-0.432-0.185l-0.105,0.023l-0.023-0.006l-0.258,0.041l-0.166,0.198l-0.121,0.283L17.437,3.03l-0.029,0.373
			l0.001,0.289l-0.003,0.172l-0.315-0.319l-0.17-0.043l-0.103,0.015L16.794,3.51l-0.163,0.025l-0.136,0.081l-0.128,0.149
			l-0.088,0.151L16.208,4.03l-0.05,0.103l-0.01,0.039l0.06,0.741l-0.113-0.044l-0.267-0.019l-0.101,0.008l-0.025,0.002l-0.305,0.029
			l-0.287,0.06l-0.26,0.049L14.75,5.03l0.055-0.085l0.11-0.236l-0.028-0.346l-0.295-0.364l-0.268-0.084l-0.119,0.011l-0.016-0.004
			l-0.304,0.03l-0.331,0.163l-0.329,0.222l-0.292,0.24l-0.234,0.205l-0.136,0.147l-0.11-0.185l-0.227-0.082l-0.133,0.007
			l-0.068,0.007l-0.008-0.002l-0.136,0.015l-0.095,0.018L11.35,4.992l-0.228,0.28l-0.094,0.307l0.002,0.249l0.071,0.241l0.091,0.196
			l0.102,0.117l0.037,0.051l-0.333,0.402l0.036,0.479l0.2,0.381l0.075,0.126l-0.133-0.026l-0.062,0.018l-0.064-0.008l-0.27,0.088
			l-0.233,0.139l-0.43-0.975l-0.029-0.049l-0.093-0.09L9.846,6.79L9.639,6.629L9.434,6.528L9.205,6.453L8.957,6.456L8.939,6.46
			L8.823,6.464L8.61,6.583L8.402,6.951l0.086,0.377l0.22,0.303l0.11,0.12L8.154,8.415L7.634,7.83l-0.1-0.158L7.393,7.611
			L7.239,7.597L7.195,7.61L7.106,7.604L6.933,7.667L6.758,7.738L6.606,7.782l-0.369,0.22L6.051,8.178L5.933,8.387l-0.1,0.198
			L5.758,8.814L5.734,8.973L5.719,8.936L5.541,8.825l-0.17-0.043L5.245,8.791L5.236,8.789L5.034,8.803L4.835,8.844L4.689,8.896
			L4.555,8.97L4.154,9.248l-0.199,0.33L3.948,9.865l0.107,0.292l0.164,0.265l0.176,0.185l-0.162,0.017l-0.299,0.106l-0.433,0.179
			l-0.379,0.259l-0.131,0.322l0.029,0.337l0.154,0.303l0.212,0.302l0.215,0.228l0.166,0.158l0.056,0.039l-0.227-0.016L3.52,12.851
			l-0.057-0.006l-0.26,0.05l-0.166,0.131l-0.107,0.129l-0.053,0.144l0.007,0.134l-0.004,0.114l0.012,0.02l-0.084,0.268l0.053,0.146
			l0.159,0.089l0.221,0.007l0.067-0.008h0.066l0.259-0.042l0.239-0.03l0.101-0.041l-0.181,0.549l0.074,0.423l0.175,0.284l0.093,0.09
			l-0.967,0.134l-0.263,0.156L2.768,15.78l-0.032,0.19l0.071,0.175l0.11,0.185l0.112,0.111l0.093,0.09l0.056,0.039l-0.874,0.224
			l-0.503,0.648L1.6,17.943l0.018,0.384l0.164,0.265l0.246,0.17l0.246,0.104l0.302,0.077l-0.345,0.449l-0.084,0.333l0.049,0.261
			l0.186,0.179l0.246,0.104l0.227,0.083l0.2,0.026H3.12l-0.056,0.316l-0.002,0.173l0.093,0.089l0.113,0.012l0.077-0.013l0.049,0.004
			l0.17-0.023l0.175-0.071l0.202-0.081l0.231-0.098l0.202-0.081l0.195-0.149l0.167-0.139l0.156-0.158l0.099-0.131l0.107-0.13
			l0.059-0.067l0.007-0.031l0.575,0.014l-0.438,0.293L5,20.383l-0.131,0.255l-0.063,0.249l0.032,0.231l0.054,0.146l0.101,0.158
			l0.131,0.1l0.219,0.015l0.061-0.01l0.074,0.002l0.316-0.077l0.348-0.134l0.336-0.154l0.309-0.145l0.137-0.081l0.008,0.779
			l0.271,0.2l0.113-0.021l0.014,0.012l0.266-0.039l0.214-0.128l0.087-0.085l1.149-1.112l0.06,0.057l0.188,0.138l0.227,0.017
			l0.014-0.021l0.112,0.012l0.217-0.234l0.121-0.282l0.041-0.097l0.198,0.067l0.277-0.021l0.134-0.007l0.156-0.093l0.126-0.141
			l0.09-0.159l0.061-0.141l0.002-0.107l0.012-0.046l-0.301-0.341l-0.076-0.093l0.128,0.049c0.167-0.139,0.29-0.331,0.368-0.542
			L11.075,18.5l0.177-0.145l0.034-0.099l0.05-0.168l-0.041-0.159c0.001-0.008-0.004-0.018-0.002-0.026l-0.035-0.124l-0.126-0.214
			l-0.087-0.08l0.115,0.004l0.011-0.013l0.124-0.001l0.205-0.188l0.126-0.175l0.051-0.069l0.07-0.114l0.04-0.057l0.064,0.042
			c0.302-0.279,0.607-0.605,0.684-0.809l-0.014-0.012l0.018-0.003l0.447-0.201l0.297-0.229l0.15,0.121l0.13,0.272l0.032,0.165
			l0.109,0.185L14,16.766l0.299,0.249l0.065-0.057l0.062,0.049l0.205-0.188l0.043-0.072l0.08-0.153l0.131,0.265
			c0,0-0.002,0.007,0.006,0.009c0.351,0.147,0.832,0.104,1.313-0.038l-0.049-0.096l0.139-0.03l0.194-0.083l0.058,0.097
			c0.304-0.121,0.595-0.262,0.85-0.419l-0.096-0.174l0.056-0.026l0.06,0.023l0.241-0.137l0.117-0.102l0.144-0.112l0.031,0.14
			c0.045-0.046,0.095-0.083,0.13-0.124c0.257-0.265,0.386-0.512,0.474-0.795l-0.024-0.097l0.003-0.016l0.061-0.142l0.018-0.069
			l0.194,0.049l0.351,0.048l0.085-0.011l0.041,0.002l0.429-0.065L20,14.518l0.082-0.227l-0.013-0.078l0.002-0.007l0.013,0.011
			l0.121,0.08l0.266,0.027l0.052-0.012l0.073,0.002l0.063-0.017l0.187-0.052l0.185-0.143l0,0.165
			c0.307-0.07,0.567-0.285,0.809-0.521l-0.003-0.281l0.214-0.028l0.117-0.037l0.249-0.069l0.126-0.141l-0.052-0.153l-0.068-0.058
			l-0.101-0.091l-0.17-0.109l-0.101-0.06l-0.058-0.031l-0.058-0.031l-0.015-0.136l0.064-0.256l0.133-0.198l0.165,0.034l0.19,0.065
			l0.236,0.043l0.128-0.018l0.209-0.013l0.22-0.051l0.221-0.06l0.347-0.192l0.138-0.122l0.189-0.291l0.132-0.322l0.078-0.244
			l0.209,0.185l0.32,0.106l0.042-0.039l0.084,0.03l0.34-0.269L25.408,10.385z M4.403,10.607l0.063-0.017l0.048,0.004L4.403,10.607z
			 M4.541,10.617l-0.012-0.019l0.049,0.004l0.071,0.109L4.541,10.617z"/>
		<path fill="#1A3B42" d="M23.595,26.11l-2.191,1.251c-0.089-0.072-0.168-0.15-0.242-0.218c-0.041-0.035-0.749-0.694-0.749-0.694
			l-0.856-0.82l-0.962-0.863l-1.017-0.902l-1.11-0.925l-1.113-0.885l-1.142-0.868l-1.136-0.792l-1.098-0.683l-1.073-0.586
			l-0.075-0.027c0.167-0.139,0.29-0.331,0.368-0.542l0.237,0.109l0.659,0.299l0.697,0.376l0.809,0.452l0.871,0.601l0.976,0.645
			l1.02,0.795L17.6,22.74l1.184,1.06l0.721,0.67l-1.583-1.987l-1.831-1.992l-1.629-1.544l-1.384-1.152l-1.114-0.811l-0.114-0.07
			c0.302-0.279,0.607-0.605,0.684-0.809l0.476,0.302l0.759,0.523l0.717,0.653l0.749,0.693l0.742,0.75l0.251,0.277l-0.313-0.525
			l-0.549-0.956l-0.476-0.955c0.351,0.147,0.832,0.104,1.313-0.038l0.629,1.232l1.261,2.186l1.598,2.486l1.505,2.198l-2.373-4.927
			l-1.599-2.09l-0.679-1.196c0.304-0.121,0.595-0.262,0.85-0.419l0.297,0.521l1.158,1.714l0.042,0.06l-0.333-0.67l-0.47-1.365
			l-0.142-0.647c0.045-0.046,0.095-0.083,0.13-0.124c0.257-0.265,0.386-0.512,0.474-0.795l0.445,1.888l0.743,2.276l0.795,2.199
			l0.873,2.021l0.824,1.761l0.3,0.638l-0.22-0.757l-0.355-1.46l-0.29-1.427l-0.259-1.419l-0.148-1.366l-0.129-1.279l-0.073-1.24
			l-0.031-1.114l-0.001-1.065l0.005-0.379c0.307-0.07,0.567-0.285,0.809-0.521l-0.004,0.279l0.008,1.562l0.085,1.549l0.127,1.452
			l0.166,1.396l0.215,1.301l0.217,1.227l0.211,1.118l0.25,0.997C23.203,25.021,23.426,25.572,23.595,26.11z"/>
	</g>
</g>
</svg>
