<svg xmlns="http://www.w3.org/2000/svg" xmlns:xlink="http://www.w3.org/1999/xlink" x="0px" y="0px" width="73px"
	 height="72px" viewBox="0 0 73 72" enable-background="new 0 0 73 72" xml:space="preserve">
<g id="bck">
</g>
<g id="jablko_x5F_big">
</g>
<g id="marchew_x5F_big">
	<g>
		<g>
			<path class="backgroundHighlight" fill="#F7F7F7" d="M36.368,65.102c-16.056,0-29.118-13.065-29.118-29.125
				S20.312,6.852,36.368,6.852s29.118,13.065,29.118,29.125S52.423,65.102,36.368,65.102z"/>
			<path fill="#534359" d="M36.368,8.102c15.366,0,27.868,12.505,27.868,27.875S51.734,63.852,36.368,63.852S8.5,51.347,8.5,35.977
				S21.001,8.102,36.368,8.102 M36.368,5.602C19.596,5.602,6,19.202,6,35.977c0,16.776,13.596,30.375,30.368,30.375
				c16.772,0,30.368-13.599,30.368-30.375C66.735,19.202,53.14,5.602,36.368,5.602L36.368,5.602z"/>
		</g>
		<path fill="#EF5350" d="M55.963,52.662l-0.14-0.19l-0.27-0.43l-0.3-0.46l-0.2-0.35l-0.24-0.45l-0.25-0.3l-0.19-0.13l-0.09-0.03
			l-0.08-0.19l-0.19-0.46l-0.33-0.48l-0.39-0.32l-0.13-0.08l-0.03-0.14v-0.16l-0.66-1.4l-0.88-1.13l-0.74-0.72l-0.33-0.27
			l-0.58-1.21l-0.69-0.83l-0.58-0.52l-0.24-0.13l-0.52-1.32l-0.55-0.86l-0.42-0.45l-0.13-0.14l-0.25-0.89l-0.44-0.8l-0.55-0.76
			l-0.6-0.59l-0.61-0.48l-0.49-0.38l-0.33-0.21l-0.14-0.08l-0.11-0.22l-0.22-0.53l-0.33-0.7l-0.36-0.68l-0.55-0.59l-0.77-0.59
			l-0.71-0.43l-0.28-0.16l-0.03-0.51l-0.13-0.57l-0.22-0.48l-0.25-0.51l-0.25-0.4l-0.22-0.33l-0.16-0.21l-0.08-0.08l-0.61-0.49
			l-0.63-0.29l-0.63-0.19l-0.64-0.03l-0.63,0.08l-0.6,0.16l-0.06,0.03l-0.1,0.02l-0.58,0.25l-0.55,0.26l-0.52,0.3l-0.46,0.35
			l-0.33,0.24l-2.27,2.19l-0.07,0.07l-0.52,0.67l-0.52,0.83l-0.39,1.03l-0.09,1.1l0.31,1.26l0.82,1.24l0.25,0.24l0.66,0.54l0.36,0.2
			c-0.05,0.18,0,0.37,0.14,0.5l0.02,0.02c0.11,0.11,0.25,0.16,0.39,0.16l0.93,0.22c0.12,0.03,0.24,0.02,0.35-0.03l0.34,0.54
			l0.6,0.75l0.63,0.52l0.69,0.34l0.41,0.18c-0.01,0.17,0.04,0.33,0.17,0.44l0.41,0.35c0.16,0.13,0.39,0.17,0.58,0.08l0.14-0.07
			l0.27,0.37l0.41,0.46l0.5,0.43l0.6,0.43l0.65,0.27c0.01,0.17,0.1,0.33,0.25,0.42l0.42,0.24c0.11,0.07,0.25,0.1,0.38,0.07
			l0.21-0.05l0.16,0.15l0.43,0.38l0.56,0.37l0.65,0.38l0.77,0.27h0.02c-0.03,0.24,0.11,0.46,0.34,0.55l0.44,0.16
			c0.11,0.04,0.22,0.04,0.33,0.01l0.14-0.04l0.14,0.15l0.35,0.41l0.42,0.4l0.49,0.32l0.13,0.04c0.04,0.2,0.18,0.37,0.39,0.42
			l0.44,0.11c0.07,0.01,0.14,0.02,0.21,0.01l0.02-0.01l0.13,0.24l0.27,0.37l0.39,0.38l0.47,0.35l0.55,0.27l0.63,0.13l0.13,0.08
			l0.36,0.25l0.47,0.35l0.5,0.32l0.32,0.16l0.36,0.19l0.25,0.13l0.11,0.05l0.14,0.19l0.44,0.43l0.65,0.43l0.83,0.22l0.27,0.05
			l0.25,0.08l0.17,0.06l0.08,0.02l2.91,1.72l0.09-0.09l0.07,0.04l0.11-0.1L55.963,52.662z"/>
		<path fill="#60BDAB" d="M29.753,9.412l-0.58-0.46l-0.58-0.25l0.1-0.02l0.1-0.04l0.05-0.01l0.2-0.08l0.16-0.11l0.14-0.19l0.11-0.21
			l0.08-0.3v-0.27l-0.14-0.24l-0.22-0.16l-0.3-0.13l-0.3-0.03l-0.28-0.05l-0.19-0.03h-0.05l1.01-0.35l0.25-0.3v-0.26l-0.14-0.25
			l-0.27-0.26l-0.3-0.19l-0.31-0.14l-0.12-0.06l0.49,0.03l0.09-0.05h0.07l0.99-0.59v-0.32l-0.14-0.24l-0.31-0.19l-0.35-0.14
			l-0.39-0.05l-0.33-0.06h-0.33l0.25-0.18l0.2-0.25l0.19-0.24l0.14-0.24l0.16-0.22l0.08-0.18l0.09-0.14v-0.05l0.02-0.35l-0.14-0.19
			l-0.19-0.02l-0.27,0.05l-0.33,0.11h-0.01l-0.15,0.05l-0.25,0.13l-0.13,0.1l-0.26-0.2l-0.19-0.03l-0.11,0.06l-0.05-0.01l-0.25,0.14
			l-0.19,0.18l-0.16,0.27l-0.11,0.22l-0.03,0.06l-0.12-0.25h-0.28l-0.05,0.05h-0.1l-0.32,0.32l-0.05-0.02l-0.05-0.05l-0.09-0.14
			l-0.02-0.24l-0.03-0.35l0.08-0.51v-0.43l-0.08-0.19l-0.19-0.02l-0.11,0.05h-0.05l-0.25,0.13l-0.24,0.19l-0.29,0.28v-0.44
			l-0.03-0.72l-0.11-0.38l-0.24-0.14l-0.39,0.06l-0.29,0.09l-0.28,0.09l-0.41,0.19l-0.38,0.22l-0.2,0.14l0.02-0.09l-0.03-0.24
			l-0.24-0.29l-0.64-0.19l-0.41,0.08l-0.02,0.02l-0.13,0.03l-0.3,0.29l-0.22,0.49l-0.14,0.56l-0.11,0.54l-0.05,0.48v0.05l-0.04-0.07
			l-0.36-0.29l-0.58-0.09l-0.12,0.06h-0.03l-0.3,0.13l-0.14,0.29l-0.06,0.38l0.03,0.4l0.08,0.46l0.09,0.35l0.05,0.21l-0.48-0.29
			h-0.22l-0.12,0.05h-0.03l-0.19,0.08l-0.14,0.14l-0.11,0.22l-0.06,0.21l-0.05,0.16l-0.03,0.14v0.05l0.3,0.88l-0.15-0.02l-0.33,0.06
			l-0.12,0.04l-0.03,0.01l-0.36,0.13l-0.33,0.16l-0.3,0.14l-0.11,0.07l0.04-0.12l0.06-0.32l-0.14-0.41l-0.47-0.35l-0.35-0.02
			l-0.14,0.05h-0.02l-0.36,0.13l-0.35,0.3l-0.33,0.37l-0.28,0.38l-0.22,0.32l-0.12,0.22l-0.19-0.19l-0.3-0.03l-0.16,0.05l-0.08,0.03
			h-0.01l-0.16,0.06l-0.11,0.05l-0.44,0.48l-0.19,0.41l-0.02,0.4l0.08,0.3l0.16,0.27l0.17,0.21l0.16,0.11l0.06,0.05l-0.28,0.59
			l0.19,0.57l0.36,0.4l0.13,0.13l-0.17,0.01l-0.07,0.04l-0.08,0.01l-0.3,0.19l-0.24,0.24l-0.82-1.05l-0.05-0.05l-0.14-0.08
			l-0.22-0.11l-0.3-0.13l-0.28-0.06l-0.3-0.02l-0.3,0.08l-0.02,0.01l-0.14,0.04l-0.22,0.21l-0.14,0.51l0.22,0.43l0.36,0.3l0.17,0.11
			l-0.6,1.01l-0.81-0.55l-0.17-0.16l-0.19-0.03l-0.19,0.03l-0.05,0.03l-0.11,0.02l-0.19,0.13l-0.19,0.14l-0.17,0.1l-0.38,0.38
			l-0.17,0.27l-0.08,0.29l-0.06,0.27l-0.02,0.3l0.02,0.2l-0.03-0.04l-0.25-0.08h-0.22l-0.15,0.05h-0.01l-0.24,0.08l-0.23,0.11
			l-0.16,0.11l-0.14,0.13l-0.4,0.46l-0.14,0.46l0.08,0.35l0.22,0.32l0.28,0.27l0.27,0.17l-0.19,0.07l-0.33,0.22l-0.47,0.35
			l-0.38,0.43l-0.06,0.43l0.14,0.4l0.28,0.32l0.35,0.3l0.33,0.21l0.25,0.14l0.08,0.03l-0.28,0.05l-0.09,0.04l-0.07,0.01l-0.3,0.14
			l-0.16,0.21l-0.09,0.19l-0.02,0.19l0.05,0.16l0.03,0.14l0.02,0.02l-0.02,0.35l0.11,0.16l0.22,0.06l0.27-0.06l0.08-0.03l0.08-0.02
			l0.3-0.13l0.28-0.11l0.11-0.08l-0.05,0.72l0.22,0.49l0.3,0.29l0.14,0.08l-1.13,0.46l-0.27,0.27l-0.11,0.27l0.02,0.24l0.14,0.19
			l0.19,0.19l0.17,0.1l0.14,0.08l0.08,0.03l-0.99,0.54l-0.41,0.94l-0.09,0.67l0.14,0.46l0.28,0.27l0.35,0.13l0.33,0.05h0.39
			l-0.28,0.65v0.43l0.14,0.3l0.28,0.16l0.33,0.05l0.3,0.03l0.25-0.03l0.08-0.02l0.03,0.4l0.05,0.21l0.14,0.08l0.14-0.02l0.09-0.04
			l0.06-0.01l0.2-0.08l0.19-0.14l0.22-0.16l0.25-0.19l0.22-0.16l0.19-0.24l0.16-0.22l0.14-0.24l0.08-0.19l0.09-0.19l0.05-0.1v-0.04
			l0.7-0.16l-0.44,0.49l-0.28,0.43l-0.08,0.35v0.32l0.11,0.27l0.11,0.16l0.17,0.16l0.19,0.08l0.27-0.05l0.07-0.03l0.09-0.02
			l0.36-0.19l0.38-0.27l0.36-0.29l0.33-0.27l0.14-0.14l0.25,0.94l0.39,0.16l0.13-0.06l0.02,0.01l0.31-0.13l0.22-0.22l0.08-0.13
			l1.05-1.7l0.09,0.05l0.27,0.11l0.28-0.05l0.01-0.03l0.14-0.02l0.19-0.35l0.06-0.38l0.02-0.13l0.26,0.02l0.33-0.11l0.16-0.05
			l0.16-0.16l0.11-0.21l0.06-0.22l0.03-0.19l-0.03-0.13v-0.06l-0.47-0.32l-0.12-0.09l0.17,0.02c0.16-0.22,0.25-0.49,0.28-0.77
			l-0.17-0.03l0.17-0.23l0.01-0.13l0.01-0.22l-0.1-0.18c0-0.01-0.01-0.02-0.01-0.03l-0.08-0.14l-0.22-0.22l-0.13-0.07l0.14-0.03
			l0.01-0.02l0.15-0.04l0.19-0.29l0.1-0.25l0.04-0.1l0.05-0.16l0.03-0.08l0.09,0.03c0.28-0.43,0.55-0.92,0.58-1.19l-0.02-0.01
			l0.02-0.01l0.48-0.38l0.29-0.37l0.22,0.1l0.24,0.29l0.09,0.19l0.19,0.19l0.47,0.35l0.44,0.21l0.06-0.09l0.09,0.04l0.19-0.29
			l0.03-0.1l0.05-0.21l0.24,0.28c0,0,0,0.01,0.01,0.01c0.47,0.07,1.04-0.13,1.58-0.45l-0.09-0.1l0.16-0.08l0.21-0.16l0.1,0.1
			c0.33-0.24,0.64-0.5,0.9-0.77l-0.17-0.18l0.06-0.05l0.08,0.01l0.25-0.24l0.11-0.16l0.14-0.18l0.08,0.16
			c0.04-0.07,0.09-0.13,0.12-0.19c0.23-0.4,0.31-0.74,0.33-1.11l-0.06-0.11v-0.02l0.03-0.19v-0.09h0.25l0.44-0.05l0.1-0.04
			l0.05-0.01l0.5-0.21l0.3-0.3l0.03-0.3l-0.04-0.09v-0.01l0.02,0.01l0.17,0.06l0.33-0.05l0.06-0.03l0.09-0.02l0.07-0.04l0.21-0.12
			l0.18-0.23l0.05,0.2c0.35-0.18,0.6-0.52,0.82-0.88l-0.09-0.34l0.25-0.1l0.13-0.08l0.28-0.16l0.11-0.21l-0.11-0.17l-0.1-0.05
			l-0.15-0.08l-0.24-0.08l-0.14-0.04l-0.08-0.02l-0.08-0.02l-0.06-0.16v-0.33l0.1-0.28l0.21-0.01l0.25,0.02l0.3-0.02l0.15-0.06
			l0.25-0.08l0.25-0.13l0.25-0.14l0.36-0.34l0.13-0.19l0.14-0.41l0.06-0.43l0.02-0.32l0.31,0.16l0.42,0.03l0.04-0.06l0.11,0.01
			l0.33-0.43L29.753,9.412z M4.373,16.142l0.07-0.04l0.06-0.01L4.373,16.142z M4.543,16.112l-0.02-0.02l0.06-0.01l0.12,0.11
			L4.543,16.112z"/>
		<path fill="#193B42" d="M32.393,29.022l-2.27,2.19c-0.13-0.06-0.25-0.13-0.36-0.19c-0.06-0.03-1.12-0.61-1.12-0.61l-1.29-0.73
			l-1.43-0.75l-1.51-0.78l-1.63-0.78l-1.62-0.73l-1.65-0.7l-1.62-0.61l-1.54-0.49l-1.48-0.38l-0.1-0.01
			c0.16-0.22,0.25-0.49,0.28-0.77l0.32,0.06l0.89,0.16l0.96,0.24l1.12,0.3l1.24,0.46l1.38,0.48l1.48,0.65l1.65,0.75l1.76,0.92
			l1.08,0.59l-2.53-1.92l-2.83-1.85l-2.45-1.37l-2.03-0.97l-1.6-0.64l-0.16-0.05c0.28-0.43,0.55-0.92,0.58-1.19l0.67,0.22l1.08,0.4
			l1.07,0.57l1.12,0.61l1.13,0.68l0.39,0.26l-0.54-0.54l-0.96-0.99l-0.87-1.01c0.47,0.07,1.04-0.13,1.58-0.45l1.14,1.3l2.2,2.26
			l2.7,2.52l2.5,2.2l-4.39-5.24l-2.58-2.04l-1.19-1.24c0.33-0.24,0.64-0.5,0.9-0.77l0.52,0.54l1.93,1.72l0.07,0.06l-0.61-0.71
			l-0.99-1.51l-0.37-0.74c0.04-0.07,0.09-0.13,0.12-0.19c0.23-0.4,0.31-0.74,0.33-1.11l1.12,2.15l1.6,2.53l1.64,2.42l1.68,2.18
			l1.54,1.88l0.56,0.68l-0.5-0.85l-0.88-1.66l-0.79-1.64l-0.75-1.64l-0.6-1.61l-0.55-1.51l-0.47-1.48l-0.38-1.34l-0.33-1.29
			l-0.11-0.46c0.35-0.18,0.6-0.52,0.82-0.88l0.08,0.34l0.49,1.89l0.58,1.85l0.6,1.72l0.63,1.64l0.66,1.51l0.64,1.42l0.6,1.29
			l0.61,1.13C31.583,27.822,32.023,28.422,32.393,29.022z"/>
	</g>
</g>
<g id="ryba_x5F_big">
</g>
<g id="nabial_x5F_big">
</g>
<g id="ziarna_x5F_big">
</g>
<g id="przekaski_x5F_big">
</g>
<g id="marchew_x5F_small">
</g>
<g id="jablko_x5F_small">
</g>
<g id="ryba_x5F_small">
</g>
<g id="nabial_x5F_small">
</g>
<g id="przekaski_x5F_small">
</g>
<g id="ziarna_x5F_small">
</g>
</svg>
