<svg xmlns="http://www.w3.org/2000/svg" xmlns:xlink="http://www.w3.org/1999/xlink" x="0px" y="0px" width="73px"
	 height="72px" viewBox="0 0 73 72" enable-background="new 0 0 73 72" xml:space="preserve">
<g id="bck">
</g>
<g id="jablko_x5F_big">
</g>
<g id="marchew_x5F_big">
</g>
<g id="ryba_x5F_big">
</g>
<g id="nabial_x5F_big">
</g>
<g id="ziarna_x5F_big">
	<g>
		<g>
			<path class="backgroundHighlight" fill="#F7F7F7" d="M36.368,65.125C20.312,65.125,7.25,52.06,7.25,36
				S20.312,6.875,36.368,6.875S65.485,19.94,65.485,36S52.423,65.125,36.368,65.125z"/>
			<path fill="#F8514F" d="M36.368,8.125C51.734,8.125,64.235,20.63,64.235,36S51.734,63.875,36.368,63.875S8.5,51.37,8.5,36
				S21.001,8.125,36.368,8.125 M36.368,5.625C19.596,5.625,6,19.225,6,36s13.596,30.375,30.368,30.375
				c16.772,0,30.368-13.6,30.368-30.375S53.14,5.625,36.368,5.625L36.368,5.625z"/>
		</g>
		<path fill="#1A3C43" d="M60.039,11.291c-0.474-0.273-1.081-0.109-1.353,0.37L47.842,30.723h2.284l10.282-18.081
			C60.681,12.168,60.514,11.561,60.039,11.291z"/>
		<path fill="#F4EB9F" d="M15.406,31.789v0.558c0,10.188,9.292,18.442,20.752,18.442
			c11.46,0,20.752-8.255,20.752-18.442v-0.558H15.406z"/>
		<g>
			<g>
				<path fill="#F5C38D" d="M43.292,50.677c-2.241,0.682-4.637,1.065-7.132,1.065c-2.498,0-4.893-0.384-7.134-1.065h-0.499v3.354
					h15.261v-3.354H43.292z"/>
			</g>
		</g>
	</g>
</g>
<g id="przekaski_x5F_big">
</g>
<g id="marchew_x5F_small">
</g>
<g id="jablko_x5F_small">
</g>
<g id="ryba_x5F_small">
</g>
<g id="nabial_x5F_small">
</g>
<g id="przekaski_x5F_small">
</g>
<g id="ziarna_x5F_small">
</g>
</svg>
