<?xml version="1.0" encoding="utf-8"?>
<!-- Generator: Adobe Illustrator 16.2.0, SVG Export Plug-In . SVG Version: 6.00 Build 0)  -->
<!DOCTYPE svg PUBLIC "-//W3C//DTD SVG 1.1//EN" "http://www.w3.org/Graphics/SVG/1.1/DTD/svg11.dtd">
<svg version="1.1" id="Layer_1" xmlns="http://www.w3.org/2000/svg" xmlns:xlink="http://www.w3.org/1999/xlink" x="0px" y="0px"
	 width="46.75px" height="47px" viewBox="0 0 46.75 47" enable-background="new 0 0 46.75 47" xml:space="preserve">
<g>
	<path fill="#FFFFFF" d="M23.288,45.6C11,45.6,1,35.592,1,23.295C1,11,11,1,23.288,1c12.296,0,22.296,10,22.296,22.295
		C45.584,35.592,35.584,45.6,23.288,45.6z"/>
	<g>
		<path fill="#1B3D43" d="M41.649,8.365c-0.356-0.204-0.812-0.082-1.015,0.277l-8.133,14.297h1.713l7.711-13.561
			C42.131,9.023,42.005,8.567,41.649,8.365z"/>
		<path fill-rule="evenodd" clip-rule="evenodd" fill="#F3EA9E" d="M8.173,23.739v0.419c0,7.641,6.97,13.832,15.564,13.832
			c8.596,0,15.565-6.191,15.565-13.832v-0.419H8.173z"/>
		<g>
			<g>
				<path fill="#F4C38D" d="M29.089,37.905c-1.681,0.512-3.479,0.8-5.35,0.8c-1.873,0-3.669-0.288-5.351-0.8h-0.374v2.516h11.446
					v-2.516H29.089z"/>
			</g>
		</g>
	</g>
</g>
</svg>
