<?xml version="1.0" encoding="utf-8"?>
<!-- Generator: Adobe Illustrator 16.2.0, SVG Export Plug-In . SVG Version: 6.00 Build 0)  -->
<!DOCTYPE svg PUBLIC "-//W3C//DTD SVG 1.1//EN" "http://www.w3.org/Graphics/SVG/1.1/DTD/svg11.dtd">
<svg version="1.1" id="Layer_1" xmlns="http://www.w3.org/2000/svg" xmlns:xlink="http://www.w3.org/1999/xlink" x="0px" y="0px"
	 width="46.75px" height="46.75px" viewBox="0 0 46.75 46.75" enable-background="new 0 0 46.75 46.75" xml:space="preserve">
<g>
	<path fill="#FFFFFF" d="M23.288,45.6C11,45.6,1,35.592,1,23.296S11,1,23.288,1c12.296,0,22.296,10,22.296,22.296
		S35.584,45.6,23.288,45.6z"/>
</g>
<path fill="#F5C38D" d="M22.352,23.948L15.669,21.3c-0.239,0.917-0.976,1.589-1.858,1.589c-1.076,0-1.948-0.993-1.948-2.217
	c0-0.292,0.052-0.569,0.142-0.824l-4.978-1.972l4.97,14.372l16.386,7.254V26.339l-1.915-0.759c-0.431,0.257-0.959,0.415-1.537,0.415
	C23.517,25.995,22.37,25.08,22.352,23.948z M19.59,32.426c-1.041,0-1.884-1.083-1.884-2.418c0-1.336,0.843-2.418,1.884-2.418
	c1.04,0,1.884,1.082,1.884,2.418C21.474,31.343,20.63,32.426,19.59,32.426z"/>
<path fill="#F5C38D" d="M27.517,23.921c0,0.032-0.011,0.061-0.012,0.092l1.819,0.764c4.03-2.369,5.642-9.854,4.971-14.287
	l-3.344,0.719c-0.305,0.772-1.212,1.338-2.298,1.338c-0.624,0-1.187-0.191-1.616-0.496l-8.472,1.822
	c0.005,0.05,0.014,0.099,0.014,0.15c0,0.815-0.631,1.477-1.41,1.477c-0.632,0-1.16-0.438-1.34-1.038l-7.324,1.576l14.867,6.24
	c0.435-0.266,0.973-0.43,1.56-0.43C26.359,21.848,27.517,22.776,27.517,23.921z M24.087,18.255c0-1.001,0.962-1.813,2.148-1.813
	c1.188,0,2.148,0.813,2.148,1.813c0,1.001-0.961,1.813-2.148,1.813C25.049,20.068,24.087,19.256,24.087,18.255z"/>
<path fill="#F4EB9F" d="M36.053,11.208c0.679,4.487-0.952,12.062-5.03,14.459l-0.623,13.835c0,0,4.204-2.002,6.984-10.813
	C39.045,23.427,36.053,11.208,36.053,11.208z"/>
</svg>
