<?xml version="1.0" encoding="utf-8"?>
<!-- Generator: Adobe Illustrator 16.2.0, SVG Export Plug-In . SVG Version: 6.00 Build 0)  -->
<!DOCTYPE svg PUBLIC "-//W3C//DTD SVG 1.1//EN" "http://www.w3.org/Graphics/SVG/1.1/DTD/svg11.dtd">
<svg version="1.1" id="Layer_1" xmlns="http://www.w3.org/2000/svg" xmlns:xlink="http://www.w3.org/1999/xlink" x="0px" y="0px"
	 width="46.75px" height="46.75px" viewBox="0 0 46.75 46.75" enable-background="new 0 0 46.75 46.75" xml:space="preserve">
<path fill="#FFFFFF" d="M23.375,0.995v44.6h-0.09c-12.29,0-22.29-10-22.29-22.3s10-22.3,22.29-22.3H23.375z"/>
<path fill="#F5C38D" d="M22.355,23.945l-6.69-2.65c-0.23,0.92-0.97,1.59-1.85,1.59c-1.08,0-1.95-0.99-1.95-2.21
	c0-0.3,0.05-0.57,0.14-0.83l-4.98-1.97l4.97,14.37l11.38,5.04v-11.71C22.765,25.205,22.365,24.615,22.355,23.945z M19.585,32.425
	c-1.04,0-1.88-1.08-1.88-2.42c0-1.33,0.84-2.42,1.88-2.42s1.89,1.09,1.89,2.42C21.475,31.345,20.625,32.425,19.585,32.425z"/>
<path fill="#F5C38D" d="M23.375,12.845v9.43l-14.87-6.24l7.32-1.57c0.18,0.6,0.71,1.03,1.34,1.03c0.78,0,1.41-0.66,1.41-1.47
	c0-0.05-0.01-0.1-0.01-0.15L23.375,12.845z"/>
</svg>
