<?xml version="1.0" encoding="utf-8"?>
<!-- Generator: Adobe Illustrator 16.2.0, SVG Export Plug-In . SVG Version: 6.00 Build 0)  -->
<!DOCTYPE svg PUBLIC "-//W3C//DTD SVG 1.1//EN" "http://www.w3.org/Graphics/SVG/1.1/DTD/svg11.dtd">
<svg version="1.1" id="Layer_1" xmlns="http://www.w3.org/2000/svg" xmlns:xlink="http://www.w3.org/1999/xlink" x="0px" y="0px"
	 width="46.75px" height="46.75px" viewBox="0 0 46.75 46.75" enable-background="new 0 0 46.75 46.75" xml:space="preserve">
<g>
	<path fill="#FFFFFF" d="M23.288,45.6C11,45.6,1,35.592,1,23.296S11,1,23.288,1c12.296,0,22.296,10,22.296,22.296
		S35.584,45.6,23.288,45.6z"/>
</g>
<g>
	<path fill="#F8514F" d="M33.5,25.232c-4.197-0.919-7.991,0.143-8.896,4.335c-0.917,4.194,1.748,8.348,5.941,9.253
		c4.195,0.917,8.333-1.745,9.253-5.942C40.699,28.686,37.694,26.148,33.5,25.232z M28.344,27.79
		c-0.105,0.106-2.563,2.388-0.722,5.313c0.225,0.342,0.119,0.813-0.221,1.051c-0.284,0.198-0.668,0.171-0.903-0.063
		c-0.039-0.055-0.076-0.096-0.099-0.138c-2.028-3.227-0.241-6.185,1.001-7.298c0.302-0.275,0.76-0.261,1.025,0.061
		C28.686,27.018,28.646,27.512,28.344,27.79z"/>
	<path fill="#F8514F" d="M15.917,23.914c-3.543-2.428-7.459-2.871-9.872,0.676c-2.427,3.543-1.519,8.394,2.027,10.807
		c3.544,2.428,8.378,1.516,10.807-2.028C21.293,29.821,19.459,26.342,15.917,23.914z M10.178,24.346
		c-0.136,0.062-3.272,1.251-2.664,4.653c0.078,0.402-0.195,0.801-0.6,0.892C6.575,29.966,6.23,29.798,6.1,29.493
		c-0.016-0.066-0.035-0.116-0.04-0.163c-0.667-3.753,2.102-5.823,3.67-6.388c0.384-0.143,0.802,0.044,0.927,0.439
		C10.785,23.762,10.563,24.202,10.178,24.346z"/>
	<path fill="#465C66" d="M17.207,22.134l0.431-0.123c0.34-0.096,8.3-2.451,6.619-10.293C23.112,9.368,21.97,7.4,21.402,6.459
		c-0.11,0.016-0.223,0.021-0.334,0.021c-0.749,0-1.319-0.364-1.488-0.949c-0.225-0.804,0.384-1.607,1.446-1.912
		c0.24-0.069,0.48-0.105,0.716-0.105c0.767,0,1.349,0.367,1.516,0.958c0.093,0.357,0.032,0.718-0.172,1.033
		c1.667,2.766,6.275,10.951,6.57,17.39l0.021,0.445l-1.924,0.101l-0.021-0.452c-0.088-1.92-0.623-4.212-1.593-6.829
		c-1.433,5.786-7.934,7.691-8.005,7.708l-0.413,0.09L17.207,22.134z"/>
	<path fill="#349145" d="M33.949,4.947c0,0-2.251-1.238-4.699-0.465c-2.447,0.773-4.313,2.235-4.166,3.265
		c0.146,1.03,2.251,1.239,4.699,0.466C32.231,7.438,33.949,4.947,33.949,4.947z"/>
	<path fill="#349145" d="M27.755,1c0,0-0.229,1.85-1.088,3.432c-0.856,1.583-1.759,2.612-2.014,2.299
		c-0.258-0.313,0.23-1.85,1.087-3.433C26.597,1.715,27.755,1,27.755,1z"/>
</g>
</svg>
