<?xml version="1.0" encoding="utf-8"?>
<!-- Generator: Adobe Illustrator 16.2.0, SVG Export Plug-In . SVG Version: 6.00 Build 0)  -->
<!DOCTYPE svg PUBLIC "-//W3C//DTD SVG 1.1//EN" "http://www.w3.org/Graphics/SVG/1.1/DTD/svg11.dtd">
<svg version="1.1" id="Layer_1" xmlns="http://www.w3.org/2000/svg" xmlns:xlink="http://www.w3.org/1999/xlink" x="0px" y="0px"
	 width="46.75px" height="46.75px" viewBox="0 0 46.75 46.75" enable-background="new 0 0 46.75 46.75" xml:space="preserve">
<g>
	<path fill="#FFFFFF" d="M23.445,0.995v44.6h-0.16c-12.29,0-22.29-10-22.29-22.3s10-22.3,22.29-22.3H23.445z"/>
</g>
<path fill="#F8514F" d="M15.917,23.914c-3.543-2.428-7.459-2.871-9.872,0.676c-2.427,3.543-1.519,8.395,2.027,10.807
	c3.544,2.429,8.378,1.517,10.807-2.027C21.293,29.82,19.459,26.342,15.917,23.914z M10.178,24.346
	c-0.136,0.063-3.272,1.252-2.664,4.653c0.078,0.401-0.195,0.801-0.6,0.892C6.575,29.966,6.23,29.798,6.1,29.493
	c-0.016-0.066-0.035-0.116-0.04-0.163c-0.667-3.753,2.102-5.823,3.67-6.388c0.384-0.143,0.802,0.044,0.927,0.439
	C10.785,23.762,10.563,24.202,10.178,24.346z"/>
<path fill="#465C66" d="M23.445,6.115v4c-0.84-1.62-1.6-2.94-2.04-3.66c-0.11,0.02-0.23,0.02-0.34,0.02c-0.75,0-1.32-0.36-1.48-0.94
	c-0.23-0.81,0.38-1.61,1.44-1.92c0.24-0.07,0.48-0.1,0.72-0.1c0.76,0,1.35,0.37,1.51,0.96c0.1,0.35,0.04,0.71-0.17,1.03
	C23.195,5.685,23.315,5.895,23.445,6.115z"/>
<path fill="#465C66" d="M23.445,17.715v3c-2.35,2.29-5.26,3.14-5.31,3.15l-0.41,0.09l-0.52-1.82l0.43-0.12
	C17.865,21.945,21.585,20.845,23.445,17.715z"/>
</svg>
