<svg xmlns="http://www.w3.org/2000/svg" xmlns:xlink="http://www.w3.org/1999/xlink" x="0px" y="0px" width="73px"
	 height="72px" viewBox="0 0 73 72" enable-background="new 0 0 73 72" xml:space="preserve">
<g id="bck">
</g>
<g id="jablko_x5F_big">
</g>
<g id="marchew_x5F_big">
</g>
<g id="ryba_x5F_big">
</g>
<g id="nabial_x5F_big">
</g>
<g id="ziarna_x5F_big">
</g>
<g id="przekaski_x5F_big">
	<g>
		<g>
			<path class="backgroundHighlight" fill="#F7F7F7" d="M36.368,65.125C20.312,65.125,7.25,52.06,7.25,36
				c0-16.06,13.062-29.125,29.118-29.125S65.485,19.94,65.485,36C65.485,52.06,52.423,65.125,36.368,65.125z"/>
			<path fill="#39BFBF" d="M36.368,8.125c15.366,0,27.868,12.505,27.868,27.875c0,15.371-12.501,27.875-27.868,27.875
				S8.5,51.37,8.5,36C8.5,20.629,21.001,8.125,36.368,8.125 M36.368,5.625C19.596,5.625,6,19.224,6,36
				c0,16.776,13.596,30.375,30.368,30.375c16.772,0,30.368-13.599,30.368-30.375C66.735,19.224,53.14,5.625,36.368,5.625
				L36.368,5.625z"/>
		</g>
		<g>
			<g>
				<path fill="#F5C38D" d="M36.243,45.386l-3.197,2.01l3.197,2.011l3.197-2.011L36.243,45.386z M40.625,47.396l0.049,0.031
					l0.803,0.505l0.541-1.411l-1.312,0.825L40.625,47.396z M40.032,43.004l-3.197,2.01l3.197,2.01l1.048-0.659l1.312-0.824
					l0.325-0.849l-0.803-0.505L40.032,43.004z M36.243,40.621l-3.197,2.011l3.197,2.009l3.197-2.009L36.243,40.621z M35.651,54.543
					l-1.422-0.895l-1.314-0.826l1.066,2.771l0.802-0.505L35.651,54.543z M36.243,54.915l-1.229,0.772l-0.802,0.504l1.589,4.131
					c0.055,0.145,0.247,0.246,0.466,0.246s0.411-0.102,0.466-0.246l1.573-4.11l-0.803-0.505L36.243,54.915z M36.835,54.543
					l0.898,0.564l0.803,0.505l1.078-2.816l-1.312,0.824L36.835,54.543z M40.032,47.768l-3.197,2.011l2.368,1.488l0.802,0.505
					l1.241-3.24l-0.803-0.505L40.032,47.768z M31.863,42.632l-2.47-1.554l-0.727-0.457l-0.359,0.226l1.246,3.236l0.802-0.504
					L31.863,42.632z M31.863,47.396l-0.052-0.032l-1.314-0.826l0.532,1.383l0.802-0.504L31.863,47.396z M35.651,49.778l-3.197-2.011
					l-0.393,0.247L31.26,48.52l1.245,3.236l0.802-0.504L35.651,49.778z M32.454,47.023l3.197-2.01l-3.197-2.01l-1.869,1.175
					l-0.802,0.504l0.335,0.873l1.314,0.826L32.454,47.023z M36.243,39.877l3.197-2.011l-2.566-1.622H35.59l-2.543,1.623
					L36.243,39.877z M43.229,40.249l-3.197-2.01l-3.197,2.01l3.197,2.01L43.229,40.249z M29.258,40.249l3.197,2.01l3.197-2.01
					l-3.197-2.01L29.258,40.249z M43.107,41.07l-2.482,1.562l1.519,0.955l0.803,0.504l1.241-3.24l-0.366-0.229L43.107,41.07z
					 M44.417,40.251l0.001-0.006l-0.005,0.004L44.417,40.251z M43.206,36.244l-0.303,0.189l-2.279,1.433l2.989,1.88l0.208,0.13
					l0.972-0.61l1.157-3.021H43.206z M33.046,52.16l0.805,0.507l2.392,1.504l2.435-1.531l0.762-0.479l-0.467-0.293l-2.73-1.717
					l-2.705,1.701L33.046,52.16z M28.879,39.742l2.984-1.875l-2.28-1.434l-0.302-0.189h-2.744l1.165,3.025l0.965,0.607
					L28.879,39.742z M32.455,37.494l1.687-1.061l0.303-0.189h-3.979l0.303,0.189L32.455,37.494z M40.032,37.494l1.687-1.061
					l0.302-0.189h-3.979l0.303,0.189L40.032,37.494z"/>
			</g>
		</g>
		<path fill="#F8514F" d="M45.31,35.502c1.046-3.996-4.115-4.655-10.434-5.297c-5.615-0.57-7.073-1.873-7.073-1.873
			c-3.368,3.414,0.26,7.17,0.26,7.17H45.31z"/>
		<path fill="#F8514F" d="M29.109,27.817c2.282,1.067,6.794,1.375,10.575,1.923c4.877,0.705,6.113,2.438,6.113,2.438
			c2.885-5.578-5.975-8.268-9.895-9c-3.919-0.732-6.271-1.953-6.271-1.953C26.29,21.717,25.259,26.018,29.109,27.817z"/>
		<path fill="#F8514F" d="M35.288,21.957c2.245,0.508,4.043,0.89,5.426,1.349c2.176,0.721,3.278,1.618,3.278,1.618
			c2.335-2.504-0.752-5.507-3.622-6.945c-5.633-2.824-3.297-6.547-3.297-6.547s-7.693,2.311-7.442,6.563
			C29.732,19.72,31.029,20.994,35.288,21.957z"/>
	</g>
</g>
<g id="marchew_x5F_small">
</g>
<g id="jablko_x5F_small">
</g>
<g id="ryba_x5F_small">
</g>
<g id="nabial_x5F_small">
</g>
<g id="przekaski_x5F_small">
</g>
<g id="ziarna_x5F_small">
</g>
</svg>
