<?xml version="1.0" encoding="utf-8"?>
<!-- Generator: Adobe Illustrator 16.2.0, SVG Export Plug-In . SVG Version: 6.00 Build 0)  -->
<!DOCTYPE svg PUBLIC "-//W3C//DTD SVG 1.1//EN" "http://www.w3.org/Graphics/SVG/1.1/DTD/svg11.dtd">
<svg version="1.1" id="Layer_1" xmlns="http://www.w3.org/2000/svg" xmlns:xlink="http://www.w3.org/1999/xlink" x="0px" y="0px"
	 width="46.75px" height="49.5px" viewBox="0 0 46.75 49.5" enable-background="new 0 0 46.75 49.5" xml:space="preserve">
<g>
	<path fill="#FFFFFF" d="M23.371,47.757c-12.288,0-22.288-10.008-22.288-22.304s10-22.296,22.288-22.296
		c12.296,0,22.296,10,22.296,22.296S35.667,47.757,23.371,47.757z"/>
	<g>
		<g>
			<g>
				<path fill="#F4C38D" d="M24.509,31.935l-2.917,1.833l2.917,1.834l2.917-1.834L24.509,31.935z M28.506,33.768l0.044,0.028
					l0.732,0.46l0.493-1.287l-1.197,0.753L28.506,33.768z M27.965,29.761l-2.916,1.834l2.916,1.833l0.956-0.602l1.196-0.752
					l0.296-0.774l-0.732-0.46L27.965,29.761z M24.509,27.588l-2.917,1.834l2.917,1.833l2.917-1.833L24.509,27.588z M23.969,40.289
					l-1.297-0.816l-1.199-0.754l0.973,2.528l0.732-0.461L23.969,40.289z M24.509,40.628l-1.122,0.705l-0.731,0.459l1.45,3.769
					c0.05,0.131,0.226,0.224,0.425,0.224c0.2,0,0.375-0.093,0.425-0.225l1.435-3.75l-0.732-0.46L24.509,40.628z M25.049,40.289
					l0.819,0.515l0.732,0.46l0.983-2.569l-1.196,0.752L25.049,40.289z M27.965,34.107l-2.916,1.834l2.16,1.358l0.732,0.461
					l1.132-2.957l-0.732-0.46L27.965,34.107z M20.512,29.422l-2.253-1.417l-0.663-0.417l-0.327,0.206l1.136,2.953l0.731-0.46
					L20.512,29.422z M20.512,33.768l-0.047-0.029l-1.198-0.754l0.486,1.261l0.731-0.459L20.512,33.768z M23.969,35.941l-2.917-1.834
					l-0.358,0.225l-0.732,0.461l1.137,2.953l0.731-0.459L23.969,35.941z M21.052,33.429l2.917-1.833l-2.917-1.834l-1.705,1.072
					l-0.732,0.46l0.306,0.796l1.2,0.754L21.052,33.429z M24.509,26.909l2.917-1.834l-2.341-1.479h-1.172l-2.32,1.48L24.509,26.909z
					 M30.882,27.249l-2.917-1.834l-2.916,1.834l2.916,1.833L30.882,27.249z M18.136,27.249l2.917,1.833l2.917-1.833l-2.917-1.834
					L18.136,27.249z M30.771,27.998l-2.265,1.424l1.386,0.871l0.732,0.46l1.132-2.956l-0.334-0.209L30.771,27.998z M31.965,27.25
					l0.001-0.005l-0.005,0.004L31.965,27.25z M30.861,23.595l-0.276,0.173l-2.079,1.307l2.727,1.715l0.189,0.119l0.887-0.557
					l1.056-2.756H30.861z M21.592,38.115l0.734,0.462l2.182,1.372l2.221-1.397l0.696-0.438L27,37.847l-2.491-1.566l-2.468,1.552
					L21.592,38.115z M17.791,26.786l2.722-1.71l-2.08-1.308l-0.276-0.173h-2.503l1.063,2.76l0.88,0.554L17.791,26.786z
					 M21.052,24.735l1.539-0.967l0.276-0.173h-3.63l0.276,0.173L21.052,24.735z M27.965,24.735l1.54-0.967l0.275-0.173h-3.629
					l0.276,0.173L27.965,24.735z"/>
			</g>
		</g>
		<path fill="#F05451" d="M32.78,22.917c0.955-3.645-3.754-4.246-9.519-4.832c-5.123-0.52-6.453-1.708-6.453-1.708
			c-3.073,3.115,0.237,6.541,0.237,6.541H32.78z"/>
		<path fill="#F05451" d="M18,15.907c2.082,0.974,6.199,1.254,9.648,1.754c4.449,0.643,5.577,2.224,5.577,2.224
			c2.632-5.089-5.451-7.542-9.027-8.21c-3.576-0.668-5.722-1.782-5.722-1.782C15.428,10.341,14.488,14.265,18,15.907z"/>
		<path fill="#F05451" d="M23.638,10.561c2.048,0.463,3.688,0.812,4.95,1.23c1.985,0.658,2.991,1.477,2.991,1.477
			c2.13-2.285-0.686-5.024-3.304-6.336c-5.139-2.576-3.008-5.973-3.008-5.973s-7.019,2.108-6.79,5.988
			C18.569,8.519,19.752,9.682,23.638,10.561z"/>
	</g>
</g>
</svg>
