<?xml version="1.0" encoding="utf-8"?>
<!-- Generator: Adobe Illustrator 16.2.0, SVG Export Plug-In . SVG Version: 6.00 Build 0)  -->
<!DOCTYPE svg PUBLIC "-//W3C//DTD SVG 1.1//EN" "http://www.w3.org/Graphics/SVG/1.1/DTD/svg11.dtd">
<svg version="1.1" id="Layer_1" xmlns="http://www.w3.org/2000/svg" xmlns:xlink="http://www.w3.org/1999/xlink" x="0px" y="0px"
	 width="46.75px" height="49.5px" viewBox="0 0 46.75 49.5" enable-background="new 0 0 46.75 49.5" xml:space="preserve">
<path fill="#FFFFFF" d="M23.375,3.16v44.6c-12.29,0-22.29-10.01-22.29-22.31C1.085,13.16,11.085,3.16,23.375,3.16z"/>
<g>
	<g>
		<path fill="#F4C38D" d="M19.235,23.6l0.28,0.17l1.54,0.96l1.54-0.96l0.27-0.17H19.235z M18.435,23.77l-0.28-0.17h-2.5l1.06,2.76
			l0.88,0.55l0.2-0.12l2.72-1.71L18.435,23.77z M20.465,33.74l-1.2-0.76l0.49,1.27l0.73-0.46l0.03-0.021L20.465,33.74z M18.255,28
			l-0.66-0.41l-0.33,0.2l1.14,2.96l0.73-0.46l1.38-0.87L18.255,28z"/>
		<polygon fill="#F4C38D" points="23.375,41.34 23.375,43.66 22.655,41.79 		"/>
		<polygon fill="#F4C38D" points="23.375,39.91 23.375,40.66 23.175,40.79 22.445,41.25 21.475,38.72 22.675,39.47 		"/>
		<polygon fill="#F4C38D" points="23.375,36.99 23.375,39.24 22.325,38.58 21.595,38.12 22.045,37.83 		"/>
		<polygon fill="#F4C38D" points="23.375,35.57 23.375,36.31 21.835,37.29 21.095,37.75 19.965,34.79 20.695,34.33 21.055,34.11 		
			"/>
		<polygon fill="#F4C38D" points="23.375,32.65 23.375,34.89 21.595,33.77 		"/>
		<polygon fill="#F4C38D" points="23.375,31.23 23.375,31.97 21.055,33.43 20.125,32.84 18.925,32.09 18.615,31.29 19.345,30.83 
			21.055,29.76 		"/>
		<polygon fill="#F4C38D" points="23.375,28.3 23.375,30.54 21.595,29.42 		"/>
		<polygon fill="#F4C38D" points="23.375,26.87 23.375,27.63 21.055,29.08 18.135,27.25 21.055,25.42 		"/>
		<polygon fill="#F4C38D" points="23.375,23.94 23.375,26.2 21.595,25.08 		"/>
	</g>
</g>
<path fill="#F05451" d="M23.375,18.09v4.83h-6.33c0,0-3.31-3.43-0.24-6.54c0,0,1.33,1.18,6.46,1.7
	C23.305,18.08,23.335,18.09,23.375,18.09z"/>
<path fill="#F05451" d="M23.375,11.5v5.6c-2.14-0.27-4.12-0.61-5.38-1.19c-3.51-1.64-2.57-5.57,0.48-6.02
	C18.475,9.89,20.295,10.84,23.375,11.5z"/>
<path fill="#F05451" d="M23.375,1.68v8.82c-3.67-0.87-4.81-2.02-4.9-3.55C18.325,4.39,21.315,2.61,23.375,1.68z"/>
</svg>
