<svg version="1.1" xmlns="http://www.w3.org/2000/svg" xmlns:xlink="http://www.w3.org/1999/xlink" x="0px" y="0px" width="196.876px" height="185.882px" viewBox="0 0 196.876 185.882" enable-background="new 0 0 196.876 185.882" xml:space="preserve">
	<path id="female" d="M83.121,89.09L70.685,47.778c-1.532-4.646-5.64-13.077-15.763-13.077H30.436 c-10.217,0-14.297,8.364-15.628,13.077L2.382,89.129c-2.583,8.892,8.7,12.298,11.365,4l11.192-38.065h3.011L8.704,122.537h17.927 l0.003,52.528c0,9.044,13.407,9.044,13.407,0l-0.009-52.874h5.444v52.947c0,8.926,13.351,8.971,13.351,0v-52.602h17.87 L57.3,55.065h3.257l11.19,37.932C74.417,101.654,85.603,97.977,83.121,89.09z M42.75,31.615c8.013,0,14.506-6.563,14.506-14.659 S50.762,2.297,42.75,2.297c-8.012,0-14.506,6.563-14.506,14.659S34.738,31.615,42.75,31.615z"/>
	<path id="male" d="M159.098,2c8.008,0,14.5,6.575,14.5,14.687c0,8.11-6.492,14.686-14.5,14.686s-14.499-6.576-14.499-14.686 C144.599,8.575,151.09,2,159.098,2z M141.957,173.77c0,4.544,3.643,8.233,8.128,8.233c4.495,0,8.133-3.689,8.133-8.233l0.007-69.072 h3.62l-0.022,69.072c0,4.544,3.638,8.233,8.129,8.233c4.487,0,8.125-3.689,8.125-8.233l0.035-119.086h3.564v43.885 c0,8.828,11.371,8.828,11.347,0V53.748c0-9.752-5.658-19.311-16.925-19.311l-32.499-0.014c-10.266,0-16.697,8.478-16.697,19.057 v45.089c0,8.766,11.432,8.766,11.432,0V54.686h3.64L141.957,173.77z"/>
</svg>
