<?xml version="1.0" encoding="utf-8"?>
<!-- Generator: Adobe Illustrator 16.2.0, SVG Export Plug-In . SVG Version: 6.00 Build 0)  -->
<!DOCTYPE svg PUBLIC "-//W3C//DTD SVG 1.1//EN" "http://www.w3.org/Graphics/SVG/1.1/DTD/svg11.dtd">
<svg version="1.1" id="Layer_1" xmlns="http://www.w3.org/2000/svg" xmlns:xlink="http://www.w3.org/1999/xlink" x="0px" y="0px"
	 width="233px" height="234px" viewBox="0 0 233 234" enable-background="new 0 0 233 234" xml:space="preserve">
<path d="M25,21v47c0,1.66-1.34,3-3,3h-8c-1.66,0-3-1.34-3-3V21c0-1.66,1.34-3,3-3h8C23.66,18,25,19.34,25,21z"/>
<path d="M202,9h-10c-2.21,0-4,1.79-4,4v27h-16.65c-0.76-4.26-4.49-7.5-8.97-7.5c-5.04,0-7.91,4.58-7.91,4.58
	c-0.78,1-1.54,1.98-2.27,2.92h-18.49c-0.03-0.1-0.07-0.19-0.11-0.29c-0.07-0.21-0.16-0.42-0.25-0.63c-0.08-0.21-0.17-0.41-0.27-0.61
	c-0.66-1.4-1.52-2.7-2.54-3.86c-0.14-0.16-0.28-0.31-0.42-0.46c-0.14-0.15-0.29-0.3-0.44-0.45c-0.3-0.29-0.6-0.57-0.92-0.83
	c-0.12-0.11-0.25-0.2-0.37-0.31c-0.21-0.16-0.42-0.32-0.63-0.47c-0.17-0.12-0.33-0.23-0.51-0.35c-1.98-1.32-4.26-2.22-6.71-2.56
	c-0.23-0.04-0.47-0.08-0.7-0.1c-0.27-0.03-0.53-0.08-0.8-0.08h-0.06c-0.28,0-0.55-0.02-0.83-0.02c-0.28,0-0.55,0.02-0.83,0.02h-0.06
	c-0.27,0-0.53,0.05-0.8,0.08c-0.23,0.02-0.47,0.06-0.7,0.1c-2.45,0.35-4.74,1.25-6.71,2.56c-0.18,0.12-0.34,0.23-0.51,0.35
	c-0.22,0.15-0.43,0.31-0.63,0.47c-0.12,0.11-0.25,0.2-0.37,0.31c-0.32,0.26-0.62,0.54-0.92,0.83c-0.15,0.15-0.3,0.3-0.44,0.45
	c-0.14,0.15-0.28,0.3-0.42,0.46c-1.02,1.15-1.87,2.45-2.53,3.86c-0.11,0.2-0.2,0.4-0.28,0.61c-0.09,0.21-0.18,0.42-0.25,0.63
	c-0.04,0.09-0.08,0.19-0.11,0.29H84.1c-0.73-0.94-1.49-1.92-2.27-2.92c0,0-2.87-4.58-7.91-4.58c-4.48,0-8.21,3.24-8.97,7.5H48V13
	c0-2.21-1.49-4-3.7-4h-10c-2.21,0-4.3,1.79-4.3,4v62c0,2.21,2.09,4,4.3,4h10c2.21,0,3.7-1.79,3.7-4V49h20.37L95.3,83.5l-1,56.5
	l-4,75h0.02c-0.01,0.22-0.02,0.44-0.02,0.66c0,5.85,4.74,10.46,10.59,10.46c5.66,0,10.28-4.12,10.59-10.12h0.01l3.31-72h6.7l3.31,72
	h0.01c0.31,6,4.93,10.12,10.59,10.12c5.85,0,10.59-4.61,10.59-10.46c0-0.22-0.01-0.44-0.02-0.66H146l-4-75l-1-56.5L167.93,49H188v26
	c0,2.21,1.79,4,4,4h10c2.21,0,4-1.79,4-4V13C206,10.79,204.21,9,202,9z M118.15,68.5c-10.37,0-15.1-4.34-27.04-19.5h10.92
	c0.05,0.23,0.1,0.46,0.16,0.69c0.12,0.46,0.26,0.91,0.42,1.35c0.08,0.22,0.16,0.44,0.25,0.65c0.19,0.48,0.4,0.94,0.64,1.39
	c0.08,0.17,0.17,0.33,0.26,0.49c0.57,1.01,1.23,1.95,1.99,2.81c0.15,0.17,0.3,0.34,0.46,0.51c0.16,0.16,0.32,0.32,0.48,0.48
	c0.17,0.16,0.34,0.32,0.51,0.47c0.35,0.31,0.71,0.61,1.08,0.88c0.21,0.16,0.43,0.31,0.64,0.46c0.23,0.15,0.45,0.29,0.68,0.43
	c0.22,0.14,0.45,0.27,0.69,0.4c0.23,0.12,0.47,0.25,0.71,0.36c0.72,0.35,1.48,0.65,2.25,0.89c0.25,0.08,0.52,0.15,0.78,0.22
	c0.53,0.14,1.06,0.25,1.61,0.33c0.48,0.07,0.96,0.13,1.45,0.15c0.11,0.01,0.22,0.02,0.32,0.02c0.25,0.01,0.49,0.02,0.74,0.02
	s0.49-0.01,0.74-0.02c0.1,0,0.21-0.01,0.32-0.02c0.49-0.02,0.97-0.08,1.45-0.15c0.55-0.08,1.08-0.19,1.61-0.33
	c0.26-0.07,0.53-0.14,0.78-0.22c0.78-0.24,1.53-0.54,2.25-0.89c0.24-0.11,0.48-0.24,0.71-0.36c0.24-0.13,0.47-0.26,0.69-0.4
	c0.23-0.14,0.45-0.28,0.68-0.43c0.21-0.15,0.43-0.3,0.64-0.46c0.37-0.28,0.73-0.57,1.08-0.88c0.17-0.15,0.34-0.31,0.51-0.47
	l0.48-0.48c0.16-0.17,0.31-0.34,0.46-0.51c0.76-0.87,1.43-1.81,1.99-2.81c0.09-0.16,0.18-0.32,0.26-0.49
	c0.24-0.45,0.46-0.92,0.64-1.39c0.09-0.21,0.17-0.43,0.25-0.65c0.16-0.44,0.3-0.89,0.42-1.35c0.06-0.23,0.12-0.46,0.16-0.69h10.92
	C133.25,64.16,128.52,68.5,118.15,68.5z"/>
<path d="M225,21v47c0,1.66-1.34,3-3,3h-8c-1.66,0-3-1.34-3-3V21c0-1.66,1.34-3,3-3h8C223.66,18,225,19.34,225,21z"/>
</svg>
