<?xml version="1.0" encoding="utf-8"?>
<!-- Generator: Adobe Illustrator 16.2.0, SVG Export Plug-In . SVG Version: 6.00 Build 0)  -->
<!DOCTYPE svg PUBLIC "-//W3C//DTD SVG 1.1//EN" "http://www.w3.org/Graphics/SVG/1.1/DTD/svg11.dtd">
<svg version="1.1" id="Layer_1" xmlns="http://www.w3.org/2000/svg" xmlns:xlink="http://www.w3.org/1999/xlink" x="0px" y="0px"
	 width="37.981px" height="37.818px" viewBox="0 0 37.981 37.818" enable-background="new 0 0 37.981 37.818" xml:space="preserve">
<path fill="#F4C38D" d="M18.99,0.5C8.78,0.5,0.5,8.75,0.5,18.91c0,10.16,8.28,18.41,18.49,18.41c10.21,0,18.49-8.25,18.49-18.41
	C37.48,8.75,29.2,0.5,18.99,0.5z M21.859,18.236l4.504-3.813v9.652L21.859,18.236z M11.672,13.681h14.655L19,19.884L11.672,13.681z
	 M11.616,24.1l0.012-9.683l4.512,3.819L11.616,24.1z M18.998,20.656v0.003L19,20.657l0.002,0.002v-0.003l2.497-2.114l4.318,5.597
	H12.183l4.318-5.597L18.998,20.656z"/>
</svg>
