<?xml version="1.0" encoding="utf-8"?>
<!-- Generator: Adobe Illustrator 16.2.0, SVG Export Plug-In . SVG Version: 6.00 Build 0)  -->
<!DOCTYPE svg PUBLIC "-//W3C//DTD SVG 1.1//EN" "http://www.w3.org/Graphics/SVG/1.1/DTD/svg11.dtd">
<svg version="1.1" id="Layer_1" xmlns="http://www.w3.org/2000/svg" xmlns:xlink="http://www.w3.org/1999/xlink" x="0px" y="0px"
	 width="56px" height="47.25px" viewBox="0 0 56 47.25" enable-background="new 0 0 56 47.25" xml:space="preserve">
<path fill="#FFFFFF" d="M23.29,1.005v44.59C11,45.595,1,35.595,1,23.295C1,11.005,11,1.005,23.29,1.005z"/>
<path fill="#1A3B42" d="M23.29,28.385v6.8c-5.72-0.199-12.11-1.819-13.67-7.109c0.23,0.03,0.46,0.06,0.71,0.069l0.04,0.011h0.04
	C10.49,28.145,16.52,27.885,23.29,28.385z"/>
<path fill="#EF5552" d="M15.961,14.306c-0.513,0.05-1.025,0.106-1.542,0.165c-5.365,0.608-8.203,3.129-8.881,5.576
	c1.88-0.471,3.766-0.823,5.634-1.077L15.961,14.306z"/>
<path fill="#EF5552" d="M23.29,14.085v2.38l-2.15,1.99c-2.33-0.06-4.77,0-7.27,0.22c1.52-1.49,4.39-4.28,4.69-4.57
	C20.03,14.025,21.57,14.005,23.29,14.085z"/>
<path fill="#EF5552" d="M23.29,23.795v2.92c-1.81-0.13-3.56-0.22-5.17-0.26c-0.65-0.91-3.12-4.33-4.39-6.09
	c2.48-0.23,4.91-0.29,7.23-0.24L23.29,23.795z"/>
<path fill="#EF5552" d="M16.041,26.416l-4.209-5.843c-2.125,0.27-4.275,0.671-6.414,1.234c0.011,0.079,0.023,0.158,0.038,0.238
	c0.339,1.876,1.79,4.236,4.937,4.426C10.751,26.458,12.95,26.378,16.041,26.416z"/>
</svg>
