<svg xmlns="http://www.w3.org/2000/svg" xmlns:xlink="http://www.w3.org/1999/xlink" x="0px" y="0px" width="73px"
	 height="72px" viewBox="0 0 73 72" enable-background="new 0 0 73 72" xml:space="preserve">
<g id="bck">
</g>
<g id="jablko_x5F_big">
</g>
<g id="marchew_x5F_big">
</g>
<g id="ryba_x5F_big">
	<g>
		<g>
			<path class="backgroundHighlight" fill="#F7F7F7" d="M36.368,65.125C20.312,65.125,7.25,52.06,7.25,36
				S20.312,6.875,36.368,6.875S65.485,19.94,65.485,36S52.423,65.125,36.368,65.125z"/>
			<path fill="#00B57B" d="M36.368,8.125C51.734,8.125,64.235,20.63,64.235,36S51.734,63.875,36.368,63.875S8.5,51.37,8.5,36
				S21.001,8.125,36.368,8.125 M36.368,5.625C19.596,5.625,6,19.225,6,36c0,16.776,13.596,30.375,30.368,30.375
				c16.772,0,30.368-13.599,30.368-30.375C66.735,19.225,53.14,5.625,36.368,5.625L36.368,5.625z"/>
		</g>
		<path fill="#193B42" d="M37.658,42.896c-8.968-1.068-18.322-0.674-18.416-0.669l-0.045,0.002l-0.046-0.004
			c-0.268-0.014-0.525-0.043-0.777-0.079c2.958,10.081,21.865,8.013,25.287,6.861c5.392-1.813,6.153-6.237,6.153-6.237
			c-0.007-0.006-0.014-0.012-0.022-0.018C46.593,43.407,42.473,43.47,37.658,42.896z"/>
		<path fill="#EF5351" d="M25.354,26.985c-0.565,0.055-1.129,0.117-1.698,0.181c-5.907,0.669-9.032,3.445-9.778,6.139
			c2.07-0.519,4.146-0.906,6.203-1.186L25.354,26.985z"/>
		<path fill="#EF5351" d="M49.327,29.589c-1.465,1.032-3.58,2.521-4.813,3.39c4.925,0.907,8.768,2.02,10.904,2.704
			c-0.036-0.45-0.139-0.906-0.318-1.353C54.611,33.108,53.228,31.129,49.327,29.589z"/>
		<path fill="#EF5351" d="M41.939,32.542l5.224-3.68c-0.726-0.208-1.516-0.4-2.378-0.574c-2.361-0.475-4.45-0.824-6.336-1.074
			c-1.22,1.129-3.426,3.17-4.802,4.445C36.672,31.83,39.477,32.161,41.939,32.542z"/>
		<path fill="#EF5351" d="M47.911,41.204c0.52-0.07,1.021-0.15,1.5-0.248c2.64-0.537,4.495-1.492,5.367-2.763
			c0.143-0.206,0.261-0.427,0.357-0.659c-1.992-0.646-5.827-1.779-10.735-2.697C45.429,36.702,47.164,39.847,47.911,41.204z"/>
		<path fill="#EF5351" d="M31.054,31.552l4.986-4.615c-3.018-0.29-5.504-0.306-7.821-0.178c-0.335,0.327-3.492,3.4-5.166,5.032
			C25.802,31.549,28.49,31.489,31.054,31.552z"/>
		<path fill="#EF5351" d="M22.903,33.654c1.394,1.937,4.112,5.708,4.833,6.708c2.396,0.067,5.098,0.202,7.841,0.459l-4.719-7.428
			C28.307,33.335,25.633,33.403,22.903,33.654z"/>
		<path fill="#EF5351" d="M25.441,40.318l-4.634-6.433c-2.34,0.297-4.708,0.739-7.062,1.359c0.012,0.086,0.026,0.174,0.042,0.262
			c0.373,2.065,1.971,4.665,5.436,4.873C19.618,40.365,22.038,40.276,25.441,40.318z"/>
		<path fill="#EF5351" d="M45.92,41.39l-3.835-6.957c-2.632-0.421-5.687-0.787-9-0.958c1.242,1.956,4.021,6.332,4.823,7.592
			C40.894,41.423,43.573,41.529,45.92,41.39z"/>
		<path fill="#EF5351" d="M63.187,35.82c-2.434-0.144-4.519,0.312-5.606,0.484c-0.219,1.343-0.783,2.232-0.783,2.232
			s1.152,1.989,3.906,4.208c2.565,2.066,4.76,2.204,5.52,0.895c1.265-2.174-1.987-3.581-1.987-3.581
			c1.477,0.408,3.66,0.587,3.977-1.49C68.526,36.54,65.763,35.973,63.187,35.82z"/>
	</g>
</g>
<g id="nabial_x5F_big">
</g>
<g id="ziarna_x5F_big">
</g>
<g id="przekaski_x5F_big">
</g>
<g id="marchew_x5F_small">
</g>
<g id="jablko_x5F_small">
</g>
<g id="ryba_x5F_small">
</g>
<g id="nabial_x5F_small">
</g>
<g id="przekaski_x5F_small">
</g>
<g id="ziarna_x5F_small">
</g>
</svg>
