<?xml version="1.0" encoding="utf-8"?>
<!-- Generator: Adobe Illustrator 16.2.0, SVG Export Plug-In . SVG Version: 6.00 Build 0)  -->
<!DOCTYPE svg PUBLIC "-//W3C//DTD SVG 1.1//EN" "http://www.w3.org/Graphics/SVG/1.1/DTD/svg11.dtd">
<svg version="1.1" id="Layer_1" xmlns="http://www.w3.org/2000/svg" xmlns:xlink="http://www.w3.org/1999/xlink" x="0px" y="0px"
	 width="56px" height="47.25px" viewBox="0 0 56 47.25" enable-background="new 0 0 56 47.25" xml:space="preserve">
<g>
	<path fill="#FFFFFF" d="M23.288,45.6C11,45.6,1,35.592,1,23.296S11,1,23.288,1c12.296,0,22.296,10,22.296,22.296
		S35.584,45.6,23.288,45.6z"/>
	<g>
		<path fill="#1A3B42" d="M27.137,28.757c-8.145-0.97-16.642-0.612-16.726-0.607l-0.041,0.001l-0.042-0.003
			c-0.243-0.013-0.477-0.039-0.706-0.072c2.687,9.156,19.859,7.278,22.967,6.232c4.897-1.647,5.588-5.665,5.588-5.665
			c-0.006-0.005-0.012-0.011-0.02-0.017C35.252,29.222,31.51,29.278,27.137,28.757z"/>
		<path fill="#EF5552" d="M15.961,14.306c-0.513,0.05-1.025,0.106-1.542,0.165c-5.365,0.608-8.203,3.129-8.881,5.576
			c1.88-0.471,3.766-0.823,5.634-1.077L15.961,14.306z"/>
		<path fill="#EF5552" d="M37.735,16.672c-1.331,0.938-3.251,2.29-4.371,3.079c4.473,0.824,7.963,1.834,9.903,2.456
			c-0.032-0.409-0.126-0.823-0.289-1.229C42.535,19.868,41.278,18.07,37.735,16.672z"/>
		<path fill="#EF5552" d="M31.025,19.353l4.745-3.342c-0.659-0.189-1.376-0.363-2.16-0.521c-2.145-0.431-4.042-0.749-5.755-0.975
			c-1.108,1.026-3.112,2.879-4.362,4.037C26.241,18.707,28.789,19.007,31.025,19.353z"/>
		<path fill="#EF5552" d="M36.449,27.221c0.472-0.063,0.928-0.137,1.362-0.225c2.398-0.487,4.083-1.355,4.875-2.51
			c0.13-0.187,0.237-0.388,0.325-0.598c-1.809-0.587-5.292-1.616-9.75-2.45C34.195,23.131,35.77,25.988,36.449,27.221z"/>
		<path fill="#EF5552" d="M21.139,18.455l4.528-4.192c-2.741-0.263-4.999-0.278-7.103-0.162c-0.305,0.297-3.171,3.088-4.692,4.571
			C16.368,18.452,18.81,18.397,21.139,18.455z"/>
		<path fill="#EF5552" d="M13.735,20.364c1.266,1.759,3.735,5.185,4.389,6.092c2.176,0.062,4.63,0.184,7.122,0.417l-4.287-6.746
			C18.644,20.074,16.215,20.135,13.735,20.364z"/>
		<path fill="#EF5552" d="M16.041,26.416l-4.209-5.843c-2.125,0.27-4.275,0.671-6.414,1.234c0.011,0.079,0.023,0.158,0.038,0.238
			c0.339,1.876,1.79,4.236,4.937,4.426C10.751,26.458,12.95,26.378,16.041,26.416z"/>
		<path fill="#EF5552" d="M34.641,27.39l-3.483-6.318c-2.391-0.382-5.165-0.714-8.175-0.871c1.128,1.776,3.652,5.751,4.38,6.896
			C30.076,27.419,32.509,27.516,34.641,27.39z"/>
		<path fill="#EF5552" d="M50.323,22.331c-2.21-0.13-4.104,0.283-5.091,0.44c-0.199,1.22-0.711,2.027-0.711,2.027
			s1.046,1.807,3.548,3.822c2.33,1.876,4.323,2.002,5.013,0.813c1.149-1.975-1.805-3.252-1.805-3.252
			c1.341,0.371,3.324,0.533,3.612-1.353C55.173,22.984,52.663,22.47,50.323,22.331z"/>
	</g>
</g>
</svg>
