<svg xmlns="http://www.w3.org/2000/svg" xmlns:xlink="http://www.w3.org/1999/xlink" x="0px" y="0px" width="73px"
	 height="72px" viewBox="0 0 73 72" enable-background="new 0 0 73 72" xml:space="preserve">
<g id="bck">
</g>
<g id="jablko_x5F_big">
</g>
<g id="marchew_x5F_big">
</g>
<g id="ryba_x5F_big">
</g>
<g id="nabial_x5F_big">
	<g>
		<g>
			<path class="backgroundHighlight" fill="#F7F7F7" d="M36.368,65.125C20.312,65.125,7.25,52.06,7.25,36
				S20.312,6.875,36.368,6.875S65.485,19.94,65.485,36S52.423,65.125,36.368,65.125z"/>
			<path fill="#BE715F" d="M36.368,8.125C51.734,8.125,64.235,20.63,64.235,36S51.734,63.875,36.368,63.875S8.5,51.37,8.5,36
				S21.001,8.125,36.368,8.125 M36.368,5.625C19.596,5.625,6,19.225,6,36c0,16.776,13.596,30.375,30.368,30.375
				c16.772,0,30.368-13.599,30.368-30.375C66.735,19.225,53.14,5.625,36.368,5.625L36.368,5.625z"/>
		</g>
		<g>
			<g>
				<path fill="#5FBEAC" d="M46.509,29.459c-0.486-2.616-1.383-4.792-2.664-6.47c-2.125-2.78-2.452-6.937-2.496-8.542
					c0.197-0.288,0.306-0.615,0.307-0.936c-0.001-0.701-0.526-1.411-1.222-1.652l-0.021-0.006l-0.021-0.006
					c-1.31-0.375-2.664-0.565-4.025-0.565c-1.361,0-2.716,0.19-4.025,0.565l-0.021,0.006L32.3,11.86
					c-0.696,0.242-1.221,0.951-1.221,1.651c0,0.321,0.108,0.648,0.307,0.936c-0.043,1.605-0.371,5.762-2.495,8.542
					c-1.282,1.678-2.178,3.854-2.664,6.47c-0.353,1.895-0.349,3.318-0.349,3.428v22.854c0,1.228,0.243,2.222,0.742,3.038
					c0.463,0.754,1.15,1.339,2.043,1.736c1.602,0.713,3.722,0.772,5.757,0.772c0.319,0,0.647-0.001,0.965-0.003
					c0.321-0.002,0.654-0.004,0.982-0.004c0.328,0,0.66,0.002,0.982,0.004c0.317,0.001,0.646,0.003,0.965,0.003
					c2.035,0,4.155-0.06,5.756-0.772c0.894-0.398,1.581-0.982,2.044-1.737c0.499-0.815,0.742-1.81,0.742-3.038V32.888
					C46.857,32.778,46.861,31.354,46.509,29.459z M46.047,55.742c0,4.439-3.568,4.734-7.732,4.734c-0.639,0-1.292-0.006-1.947-0.006
					s-1.309,0.006-1.947,0.006c-4.164,0-7.732-0.295-7.732-4.734V32.884c0,0-0.057-5.604,2.845-9.401
					c2.27-2.97,2.649-7.42,2.668-9.32c-0.188-0.183-0.312-0.431-0.312-0.651c0-0.344,0.301-0.754,0.675-0.883
					c1.243-0.356,2.522-0.534,3.802-0.534c1.28,0,2.56,0.178,3.803,0.534c0.374,0.129,0.675,0.539,0.675,0.883
					c0,0.221-0.124,0.468-0.312,0.651c0.018,1.9,0.398,6.351,2.667,9.32c2.903,3.797,2.846,9.401,2.846,9.401V55.742z"/>
			</g>
		</g>
		<path fill="#F3C28C" d="M42.666,58.508c-0.665,0-11.89,0-12.59,0s-1.4-0.592-1.4-1.38
			s0-23.62,0-23.62h15.39c0,0,0,22.783,0,23.62S43.331,58.508,42.666,58.508z"/>
	</g>
</g>
<g id="ziarna_x5F_big">
</g>
<g id="przekaski_x5F_big">
</g>
<g id="marchew_x5F_small">
</g>
<g id="jablko_x5F_small">
</g>
<g id="ryba_x5F_small">
</g>
<g id="nabial_x5F_small">
</g>
<g id="przekaski_x5F_small">
</g>
<g id="ziarna_x5F_small">
</g>
</svg>
