<?xml version="1.0" encoding="utf-8"?>
<!-- Generator: Adobe Illustrator 16.2.0, SVG Export Plug-In . SVG Version: 6.00 Build 0)  -->
<!DOCTYPE svg PUBLIC "-//W3C//DTD SVG 1.1//EN" "http://www.w3.org/Graphics/SVG/1.1/DTD/svg11.dtd">
<svg version="1.1" id="Layer_1" xmlns="http://www.w3.org/2000/svg" xmlns:xlink="http://www.w3.org/1999/xlink" x="0px" y="0px"
	 width="46.75px" height="47.25px" viewBox="0 0 46.75 47.25" enable-background="new 0 0 46.75 47.25" xml:space="preserve">
<g>
	<path fill="#FFFFFF" d="M23.392,45.6c-12.288,0-22.288-10.008-22.288-22.304S11.104,1,23.392,1c12.296,0,22.296,10,22.296,22.296
		S35.688,45.6,23.392,45.6z"/>
	<g>
		<g>
			<path fill="#60BEAC" d="M31.681,17.842c-0.379-2.04-1.079-3.738-2.078-5.046c-1.657-2.169-1.913-5.411-1.946-6.663
				c0.154-0.224,0.239-0.479,0.239-0.73c0-0.546-0.411-1.1-0.953-1.288l-0.016-0.005l-0.016-0.005
				c-1.021-0.293-2.078-0.441-3.14-0.441c-1.062,0-2.118,0.148-3.14,0.441l-0.017,0.005l-0.017,0.005
				c-0.543,0.188-0.952,0.742-0.952,1.288c0,0.25,0.084,0.506,0.239,0.73c-0.034,1.252-0.289,4.494-1.946,6.663
				c-1,1.309-1.699,3.006-2.078,5.046c-0.275,1.478-0.272,2.588-0.272,2.674v17.827c0,0.958,0.19,1.733,0.579,2.369
				c0.361,0.588,0.897,1.044,1.594,1.354c1.249,0.556,2.903,0.603,4.49,0.603c0.249,0,0.505-0.001,0.752-0.002
				c0.251-0.001,0.511-0.003,0.766-0.003c0.256,0,0.515,0.002,0.766,0.003c0.248,0.001,0.504,0.002,0.753,0.002
				c1.587,0,3.241-0.046,4.49-0.602c0.697-0.311,1.233-0.767,1.594-1.355c0.389-0.636,0.579-1.412,0.579-2.369V20.516
				C31.953,20.43,31.957,19.32,31.681,17.842z M31.321,38.343c0,3.463-2.783,3.692-6.031,3.692c-0.499,0-1.007-0.005-1.519-0.005
				s-1.021,0.005-1.519,0.005c-3.248,0-6.031-0.23-6.031-3.692v-17.83c0,0-0.044-4.371,2.219-7.333
				c1.771-2.316,2.066-5.788,2.081-7.27c-0.146-0.143-0.243-0.336-0.243-0.508c0-0.269,0.235-0.588,0.527-0.689
				c0.969-0.277,1.967-0.416,2.966-0.416c0.998,0,1.997,0.139,2.966,0.416c0.292,0.101,0.527,0.421,0.527,0.689
				c0,0.172-0.097,0.365-0.244,0.508c0.014,1.482,0.311,4.954,2.081,7.27c2.264,2.962,2.22,7.333,2.22,7.333V38.343z"/>
		</g>
	</g>
	<path fill-rule="evenodd" clip-rule="evenodd" fill="#F3C28C" d="M28.684,40.5c-0.519,0-9.274,0-9.82,0
		c-0.546,0-1.093-0.462-1.093-1.077c0-0.614,0-18.424,0-18.424h12.005c0,0,0,17.771,0,18.424C29.775,40.077,29.202,40.5,28.684,40.5
		z"/>
</g>
</svg>
