<?xml version="1.0" encoding="utf-8"?>
<!-- Generator: Adobe Illustrator 16.2.0, SVG Export Plug-In . SVG Version: 6.00 Build 0)  -->
<!DOCTYPE svg PUBLIC "-//W3C//DTD SVG 1.1//EN" "http://www.w3.org/Graphics/SVG/1.1/DTD/svg11.dtd">
<svg version="1.1" id="Layer_1" xmlns="http://www.w3.org/2000/svg" xmlns:xlink="http://www.w3.org/1999/xlink" x="0px" y="0px"
	 width="46.75px" height="47.25px" viewBox="0 0 46.75 47.25" enable-background="new 0 0 46.75 47.25" xml:space="preserve">
<path fill="none" d="M23.375,1.005v44.59c-12.28-0.01-22.27-10.01-22.27-22.3C1.105,11.015,11.095,1.015,23.375,1.005z"/>
<path fill="#60BEAC" d="M20.275,5.405c0,0.17,0.1,0.36,0.25,0.51c-0.02,1.48-0.31,4.95-2.09,7.27c-2.26,2.96-2.21,7.33-2.21,7.33
	v17.83c0,3.46,2.78,3.69,6.03,3.69c0.37,0,0.74-0.01,1.12-0.01v0.64h-1.12c-1.59,0-3.25-0.04-4.49-0.6
	c-0.7-0.311-1.24-0.771-1.6-1.351c-0.39-0.64-0.58-1.41-0.58-2.37v-17.83c0-0.08,0-1.2,0.27-2.67c0.38-2.04,1.08-3.74,2.08-5.05
	c1.66-2.17,1.92-5.41,1.95-6.66c-0.16-0.23-0.24-0.48-0.24-0.73c0-0.55,0.41-1.1,0.95-1.29l0.02-0.01h0.02
	c0.89-0.25,1.81-0.4,2.74-0.42v0.63c-0.87,0.02-1.73,0.16-2.57,0.4C20.515,4.815,20.275,5.135,20.275,5.405z"/>
<path fill="#F3C28C" d="M23.375,20.995v19.51h-4.51c-0.55,0-1.09-0.47-1.09-1.08c0-0.62,0-18.43,0-18.43H23.375z"/>
</svg>
