<svg xmlns="http://www.w3.org/2000/svg" xmlns:xlink="http://www.w3.org/1999/xlink" x="0px" y="0px"
	 width="228px" height="252px" viewBox="0 0 228 252" enable-background="new 0 0 228 252" xml:space="preserve">
<path fill-rule="evenodd" clip-rule="evenodd" fill="#F6F6F6" d="M122.95,57.57l31.45,0.9c-2.541-2.32-4.4-3.54-4.4-3.54V26h3v-7.23
	l-2-2.49v-3.74c-10-5.25-21,0-21,0v3.74l-2,1.24V25h2.08l-1.25,28.675C126.66,54.885,124.71,56.2,122.95,57.57z"/>
<path fill-rule="evenodd" clip-rule="evenodd" fill="#F4EB9F" d="M156.68,152.9c-2.87,4.58-5.08,12.35,3.221,31.96
	c0.04,0.109,1.21,2.96,1.439,3.47c-1.2,2.65-7.35,16.56-7.35,22.46c0,5.6,2.31,19.85,9.109,25.68l0.16,0.13l0.21,0.07
	c0.11,0.03,0.71,0.22,1.71,0.49c-0.399,0.35-0.87,1.12-1.41,1.33c-5.63,2.1-16.22,1.51-16.22,1.51h-34.94c0,0-0.84-0.18-1.91-0.64
	c0.28-0.08,0.54-0.17,0.78-0.261c3.95-1.489,3.66-6.649,3.65-6.79l1-118.49l-0.01-0.08c-1.16-7.57-5.12-13.57-8.62-17.55l0.12-14.94
	c0,0,2.36-13.52,15.33-23.62l31.47,0.87c4.93,4.53,12.5,13.2,14.34,25.13l-0.529,62.74C162.45,147.06,159.1,149.03,156.68,152.9z"/>
<path fill-rule="evenodd" clip-rule="evenodd" fill="#F4EB9F" d="M168.17,153.33l-0.229,26.33c-0.171-0.141-0.341-0.28-0.511-0.44
	l-0.439-0.41c-2.19-2.189-4.63-6.14-4.721-12.92C162.13,156.16,166.46,153.86,168.17,153.33z"/>
<path fill-rule="evenodd" clip-rule="evenodd" fill="#F4EB9F" d="M114.13,232.3c0,0,0.3,4.62-3,5.86
	c-4.51,1.699-13.01,0.84-13.01,0.84H70.11c0,0-4.4-0.561-5-3.851l1-120.839c0,0,1.91-12.81,12.42-21.39l25.09,0.73
	c3.95,3.63,10.04,10.63,11.51,20.24L114.13,232.3z"/>
<path fill-rule="evenodd" clip-rule="evenodd" fill="none" d="M178.74,164.65c-1.23-10.94-9.98-12.471-9.98-12.471
	s-7.68,0.681-7.49,13.721c0.11,7.6,3.051,11.84,5.49,14.06c0.33,0.3,0.65,0.56,0.95,0.79c1.31,1,2.29,1.36,2.29,1.36
	c2.14-1.511,4.3-2.94,5.97-4.99c0.03-0.04,0.061-0.08,0.09-0.12C178.16,174.37,179.42,170.73,178.74,164.65z"/>
<path fill-rule="evenodd" clip-rule="evenodd" fill="#F6F6F6" d="M78.53,92.96l25.03,0.71c-2.03-1.87-3.56-2.85-3.56-2.85V68h2
	v-6.27l-1-2.01v-3.01c-8-4.23-17,0-17,0v3.01l-2,1V67h2.12l-1,22.95C81.43,90.89,79.91,91.81,78.53,92.96z"/>
<path fill-rule="evenodd" clip-rule="evenodd" fill="#F5C38D" d="M85.118,51.692c0,0,8.909-2.255,15.005,0v5.017l-2.001,2.007v15.05
	H87.118V60.722l-3.001-2.006l1-2.007V51.692z"/>
<path fill-rule="evenodd" clip-rule="evenodd" fill="none" d="M178.74,164.65c-1.23-10.94-9.98-12.471-9.98-12.471
	s-7.68,0.681-7.49,13.721c0.11,7.6,3.051,11.84,5.49,14.06c0.33,0.3,0.65,0.56,0.95,0.79c1.31,0.98,2.29,1.3,2.29,1.3
	c2.14-1.51,4.3-3.05,5.97-5.05h0.09C178.16,174.37,179.42,170.73,178.74,164.65z"/>
<path fill-rule="evenodd" clip-rule="evenodd" fill="#F6F6F6" d="M211.17,149.66c-8.13,3.71-11.22,9.939-11.22,9.939l1.24,17.4
	H176.06c2.101-2.63,3.36-6.27,2.681-12.35c-1.23-10.94-9.98-12.471-9.98-12.471s-7.68,0.681-7.49,13.721
	c0.11,7.6,3.051,11.84,5.49,14.06c-1.529,1.36-3.5,3.13-5.67,5.16c-7.87-18.34-6.83-26.48-3.56-31.69
	c3.45-5.51,8.95-6.84,21.21-6.229c12.26,0.609,19.96-1.25,19.96-1.25s4.26-1.83,8.729-1.25
	C211.9,145.29,211.17,149.66,211.17,149.66z"/>
<path fill-rule="evenodd" clip-rule="evenodd" fill="#F4EB9F" d="M219.91,211.971c0,17.91-9.98,24.969-9.98,24.969
	s-10.56,2.506-22.46,2.506c-11.899,0-23.7-3.733-23.7-3.733c-6.199-5.319-8.739-18.696-8.739-24.926
	c0-6.24,7.489-22.448,7.489-22.448c-0.5-1.109-0.979-2.179-1.43-3.219c2.17-2.03,4.141-3.799,5.67-5.16
	c1.75,1.6,3.24,2.091,3.24,2.091c2.14-1.511,4.3-3.05,5.97-5.05h25.221C201.19,177,219.91,194.061,219.91,211.971z"/>
<path fill-rule="evenodd" clip-rule="evenodd" fill="#F5C38D" d="M131.328,6.303c0,0,11.111-2.803,18.714,0v6.234l-2.495,2.494
	v18.703h-13.724V17.524l-3.743-2.494l1.248-2.494V6.303z"/>
<path fill-rule="evenodd" clip-rule="evenodd" fill="#F5C38D" d="M181.232,162.158c0,0,6.854,1.217,16.219,0
	c0,0-2.944-13.514,0-19.949h-16.219C181.232,142.209,182.769,157.953,181.232,162.158z"/>
<path fill-rule="evenodd" clip-rule="evenodd" fill="#F4EB9F" d="M62,222.5v7c0,0.35,0.44,0.5,0.32,1.5H20.68
	c-0.12-1-0.68-1.15-0.68-1.5v-7c0-1.66,1.84-2.5,3.5-2.5h36C61.16,220,62,220.84,62,222.5z"/>
<path fill-rule="evenodd" clip-rule="evenodd" fill="#F6F6F6" d="M75.5,231l-16.83,8.02L40.5,239h-17l-17-8c0,0,5.38,0,14.18,0
	h41.64C70.44,231,75.5,231,75.5,231z"/>
<path fill-rule="evenodd" clip-rule="evenodd" fill="#F6F6F6" d="M160.74,186.81l-0.01,0.011l-0.391-0.92
	C160.47,186.2,160.6,186.5,160.74,186.81z"/>
<path fill-rule="evenodd" clip-rule="evenodd" fill="#F4EB9F" d="M160.03,185.18l-0.141-0.31l0.011-0.01
	C159.94,184.97,159.98,185.08,160.03,185.18z"/>
</svg>
