<?xml version="1.0" encoding="utf-8"?>
<!-- Generator: Adobe Illustrator 16.2.0, SVG Export Plug-In . SVG Version: 6.00 Build 0)  -->
<!DOCTYPE svg PUBLIC "-//W3C//DTD SVG 1.1//EN" "http://www.w3.org/Graphics/SVG/1.1/DTD/svg11.dtd">
<svg version="1.1" id="Layer_1" xmlns="http://www.w3.org/2000/svg" xmlns:xlink="http://www.w3.org/1999/xlink" x="0px" y="0px"
	 width="46.75px" height="46.75px" viewBox="0 0 46.75 46.75" enable-background="new 0 0 46.75 46.75" xml:space="preserve">
<g>
	<path fill="#FFFFFF" d="M23.288,45.6C11,45.6,1,35.592,1,23.296S11,1,23.288,1c12.296,0,22.296,10,22.296,22.296
		S35.584,45.6,23.288,45.6z"/>
</g>
<g>
	<g>
		<path fill="#5FBEAC" d="M40.857,12.305c0,0-24.744-1.673-35.517,13.824C16.453,12.293,40.857,12.305,40.857,12.305z
			 M42.207,13.003c-2.469,1.494-5.139,3.092-7.882,4.718c0.023-0.072,0.044-0.146,0.062-0.221c0.283-1.264-0.51-2.518-1.773-2.802
			c-1.263-0.283-2.518,0.511-2.802,1.775c-0.284,1.264,0.51,2.519,1.774,2.802c0.027,0.007,0.057,0.009,0.086,0.015
			c-0.844,0.498-1.69,0.995-2.536,1.492c0.096-0.183,0.172-0.378,0.219-0.588c0.284-1.265-0.51-2.519-1.773-2.803
			c-1.263-0.283-2.517,0.512-2.801,1.775c-0.284,1.265,0.51,2.519,1.773,2.803c0.152,0.034,0.305,0.052,0.455,0.056
			c-0.794,0.464-1.586,0.924-2.37,1.38c0.057-0.132,0.104-0.27,0.137-0.416c0.285-1.265-0.51-2.518-1.772-2.802
			s-2.519,0.51-2.802,1.775c-0.284,1.264,0.51,2.519,1.773,2.803c0.083,0.019,0.166,0.031,0.247,0.04
			c-0.812,0.47-1.615,0.932-2.403,1.384c0.065-0.144,0.117-0.295,0.153-0.454c0.284-1.265-0.51-2.519-1.773-2.804
			c-1.264-0.284-2.519,0.511-2.802,1.775s0.51,2.519,1.774,2.803c0.089,0.02,0.178,0.033,0.267,0.043
			c-0.83,0.472-1.638,0.931-2.418,1.371c0.063-0.141,0.113-0.289,0.148-0.445c0.284-1.265-0.511-2.519-1.774-2.803
			c-1.264-0.283-2.517,0.511-2.802,1.774c-0.284,1.264,0.51,2.52,1.774,2.803c0.073,0.017,0.146,0.028,0.219,0.038
			c-0.824,0.46-1.606,0.893-2.338,1.295c0.046-0.116,0.087-0.236,0.116-0.363c0.284-1.264-0.51-2.52-1.773-2.803
			c-1.264-0.283-2.518,0.513-2.802,1.775c-0.284,1.265,0.51,2.519,1.773,2.803c0.02,0.004,0.039,0.006,0.058,0.01
			c-1.418,0.753-2.5,1.297-3.142,1.571c2.395,1.331,6.085,1.571,8.745,0.934c4.438-1.064,15.866-9.106,21.893-11.732
			c3.602-1.571,6.756-5.382,7.265-7.646C42.883,13.87,42.207,13.003,42.207,13.003z M5.105,30.042
			c0.368-1.638,1.998-2.67,3.633-2.303c0.415,0.093,0.789,0.271,1.113,0.506c-0.029-0.31-0.013-0.628,0.059-0.948
			c0.369-1.637,1.998-2.669,3.633-2.302c0.414,0.094,0.789,0.27,1.113,0.505c-0.028-0.31-0.012-0.628,0.06-0.947
			c0.368-1.636,1.997-2.669,3.633-2.301c0.415,0.093,0.789,0.271,1.112,0.507c-0.028-0.311-0.012-0.629,0.06-0.95
			c0.368-1.637,1.998-2.669,3.634-2.302c0.319,0.072,0.611,0.197,0.878,0.356c-0.017-0.278,0.002-0.563,0.066-0.849
			c0.368-1.637,1.998-2.669,3.634-2.302c0.523,0.118,0.983,0.368,1.358,0.704c-0.052-0.355-0.043-0.725,0.04-1.095
			c0.367-1.637,1.997-2.669,3.634-2.302c0.687,0.154,1.266,0.533,1.68,1.041c4.35-1.903,6.662-2.461,6.662-2.461
			s-17.392,1.05-28.434,8.044c-7.576,4.8-8.639,7.415-9.056,13.505C4.313,33.612,5,33.092,5.678,32.58
			C5.137,31.887,4.897,30.965,5.105,30.042z"/>
	</g>
</g>
</svg>
