<?xml version="1.0" encoding="utf-8"?>
<!-- Generator: Adobe Illustrator 16.2.0, SVG Export Plug-In . SVG Version: 6.00 Build 0)  -->
<!DOCTYPE svg PUBLIC "-//W3C//DTD SVG 1.1//EN" "http://www.w3.org/Graphics/SVG/1.1/DTD/svg11.dtd">
<svg version="1.1" id="Layer_1" xmlns="http://www.w3.org/2000/svg" xmlns:xlink="http://www.w3.org/1999/xlink" x="0px" y="0px"
	 width="46.75px" height="46.75px" viewBox="0 0 46.75 46.75" enable-background="new 0 0 46.75 46.75" xml:space="preserve">
<path fill="#FFFFFF" d="M23.375,0.995v44.6h-0.09c-12.29,0-22.29-10-22.29-22.3s10-22.3,22.29-22.3H23.375z"/>
<path fill="#5FBEAC" d="M23.375,14.315v0.74c-6.51,1.97-13.42,5.32-18.04,11.07C9.855,19.635,16.815,16.165,23.375,14.315z"/>
<path fill="#5FBEAC" d="M23.375,20.305v10.05c-4.09,2.42-7.97,4.63-10.15,5.159c-2.66,0.63-6.35,0.391-8.75-0.939
	c0.64-0.271,1.73-0.82,3.14-1.57c-0.01,0-0.03,0-0.05-0.01c-1.27-0.28-2.06-1.54-1.78-2.8c0.29-1.261,1.54-2.061,2.8-1.78
	c1.27,0.29,2.06,1.54,1.78,2.81c-0.03,0.12-0.07,0.24-0.12,0.36c0.73-0.4,1.52-0.83,2.34-1.29c-0.07-0.02-0.15-0.03-0.22-0.04
	c-1.26-0.29-2.06-1.54-1.77-2.81c0.28-1.261,1.53-2.051,2.8-1.771c1.26,0.28,2.06,1.54,1.77,2.8c-0.03,0.16-0.08,0.311-0.14,0.45
	c0.77-0.439,1.58-0.899,2.41-1.37c-0.09-0.01-0.18-0.029-0.26-0.05c-1.27-0.28-2.06-1.53-1.78-2.8c0.29-1.26,1.54-2.06,2.8-1.77
	c1.27,0.28,2.06,1.54,1.78,2.8c-0.04,0.159-0.09,0.31-0.16,0.449c0.79-0.449,1.6-0.909,2.41-1.38c-0.08-0.01-0.17-0.02-0.25-0.04
	c-1.26-0.279-2.06-1.54-1.77-2.8c0.28-1.27,1.54-2.06,2.8-1.78C23.135,20.215,23.255,20.255,23.375,20.305z"/>
<path fill="#5FBEAC" d="M23.375,15.925v3.64c-0.07-0.02-0.14-0.04-0.22-0.06c-1.64-0.36-3.27,0.67-3.63,2.3
	c-0.08,0.32-0.09,0.64-0.06,0.95c-0.33-0.23-0.7-0.41-1.12-0.5c-1.63-0.37-3.26,0.66-3.63,2.3c-0.07,0.32-0.09,0.63-0.06,0.94
	c-0.32-0.23-0.7-0.41-1.11-0.5c-1.64-0.37-3.27,0.67-3.63,2.3c-0.08,0.32-0.09,0.64-0.06,0.95c-0.33-0.24-0.7-0.41-1.12-0.51
	c-1.63-0.36-3.26,0.67-3.63,2.31c-0.21,0.92,0.03,1.84,0.57,2.54c-0.68,0.51-1.36,1.03-2.06,1.56c0.42-6.09,1.48-8.699,9.06-13.5
	C15.895,18.605,19.655,17.065,23.375,15.925z"/>
</svg>
