<?xml version="1.0" encoding="utf-8"?>
<!-- Generator: Adobe Illustrator 16.2.0, SVG Export Plug-In . SVG Version: 6.00 Build 0)  -->
<!DOCTYPE svg PUBLIC "-//W3C//DTD SVG 1.1//EN" "http://www.w3.org/Graphics/SVG/1.1/DTD/svg11.dtd">
<svg version="1.1" id="Layer_1" xmlns="http://www.w3.org/2000/svg" xmlns:xlink="http://www.w3.org/1999/xlink" x="0px" y="0px"
	 width="46.75px" height="46.75px" viewBox="0 0 46.75 46.75" enable-background="new 0 0 46.75 46.75" xml:space="preserve">
<path fill="#FFFFFF" d="M23.275,0.995v44.6c-12.29-0.01-22.28-10-22.28-22.3S10.985,1.005,23.275,0.995z"/>
<path fill="#F8514F" d="M23.275,15.085v23.19c-6.1-1.271-11.74-6.98-14.47-13.631c-1.11-2.7-0.32-5.359,1.45-7.689
	c1-0.46,1.99-0.75,3.14-0.75c0.4,0,0.81,0.04,1.26,0.1c-0.16,0.23-0.32,0.47-0.51,0.71c-0.69,0.91-1.56,2.05-2.21,4.49l-0.14,0.54
	l0.42,0.37c0.57,0.53,1.04,0.75,1.5,0.75c0.32,0,0.91-0.11,1.28-0.89c0.62-1.25,2.53-3.76,3.64-4.63c1.28-0.98,2.36-1.92,3.49-3
	c0.22,0,0.65,0.2,1.02,0.38C23.185,15.045,23.225,15.065,23.275,15.085z"/>
<path fill="#1C924F" d="M23.275,3.235v10.83c-0.7-0.33-1.35-0.55-1.87-0.04c-1.06,1.05-2.14,1.97-3.33,2.89
	c-1.24,0.96-3.24,3.6-3.91,4.95c-0.21,0.45-0.53,0.59-1.32-0.12c0.98-3.78,2.48-4.1,3.15-6.09c-4.22-1.14-6.22,0.48-9.71,2.46
	c0.25-3.78,5.44-6.49,8.72-6.91c0,0-1-3.16-2.29-4.38c-1.28-1.21-3.07-2.34-3.44-3.86c0.99-0.05,1.84,0.23,2.74,0.62
	c0.85,0.38,1.51,0.69,2.39,1.1c2.56,1.18,3.82,2.38,4.66,4.18c1.56-1.47,2.51-3.46,3.83-5.13
	C23.035,3.555,23.165,3.385,23.275,3.235z"/>
<g>
	<path fill="#FFFFFF" d="M17.999,26.145c-0.565-0.821-0.812-1.209-0.777-0.746c-0.035-1.233,0.212-1.62,0.789-0.763
		c0.419-0.857,0.669-0.472,0.787,0.745C18.68,24.936,18.43,25.322,17.999,26.145C17.434,25.322,18.43,25.322,17.999,26.145z"/>
	<path fill="#FFFFFF" d="M13.709,28.348c-0.392-0.705-0.639-0.32-0.76,0.717c0.121-0.265,0.368,0.121,0.779,0.746
		c0.586-0.625,0.834-1.011,0.763-0.715C14.563,28.027,14.315,27.643,13.709,28.348C13.318,27.643,14.315,27.643,13.709,28.348z"/>
	<path fill="#FFFFFF" d="M18.514,29.096c-0.565-0.682-0.813-0.296-0.777,0.736c-0.036-0.262,0.212,0.125,0.765,0.718
		c0.443-0.593,0.692-0.979,0.776-0.737C19.194,28.8,18.945,28.414,18.514,29.096C17.949,28.414,18.945,28.414,18.514,29.096z"/>
	<path fill="#FFFFFF" d="M20.166,34.006c-0.544-0.316-0.793,0.068-0.763,0.733c-0.031,0.104,0.218,0.491,0.746,0.711
		c0.467-0.22,0.717-0.604,0.76-0.735C20.866,34.074,20.616,33.688,20.166,34.006C19.622,33.688,20.616,33.688,20.166,34.006z"/>
</g>
</svg>
