<?xml version="1.0" encoding="utf-8"?>
<!-- Generator: Adobe Illustrator 16.2.0, SVG Export Plug-In . SVG Version: 6.00 Build 0)  -->
<!DOCTYPE svg PUBLIC "-//W3C//DTD SVG 1.1//EN" "http://www.w3.org/Graphics/SVG/1.1/DTD/svg11.dtd">
<svg version="1.1" id="Layer_1" xmlns="http://www.w3.org/2000/svg" xmlns:xlink="http://www.w3.org/1999/xlink" x="0px" y="0px"
	 width="46.75px" height="46.75px" viewBox="0 0 46.75 46.75" enable-background="new 0 0 46.75 46.75" xml:space="preserve">
<g>
	<path fill="#FFFFFF" d="M23.288,45.6C11,45.6,1,35.592,1,23.296S11,1,23.288,1c12.296,0,22.296,10,22.296,22.296
		S35.584,45.6,23.288,45.6z"/>
</g>
<path fill="#F8514F" d="M35.523,16.042c-0.313,0.008-0.636-0.014-0.974-0.051c-0.688-0.076-1.421-0.228-2.323-0.477
	c-0.448-0.12-0.927-0.287-1.392-0.452c-0.545-0.195-1.099-0.398-1.631-0.521c0.041,0.139,0.089,0.286,0.132,0.412
	c0.307,0.95,0.631,1.929,0.188,2.604c-0.151,0.218-0.437,0.484-0.994,0.529c-0.116,0.016-0.229,0.01-0.341-0.002
	c-0.729-0.081-1.234-0.576-1.676-1.015c-0.173-0.168-0.326-0.327-0.478-0.436c-0.273-0.208-0.509-0.46-0.711-0.689
	c-0.222-0.244-0.493-0.543-0.641-0.56c-0.014-0.002-0.035-0.004-0.08,0.019c-0.959,0.398-1.917,0.725-3.009,1.03
	c-0.967,0.276-2.903,1.425-3.636,2.082c-0.244,0.214-0.503,0.313-0.762,0.285c-0.498-0.055-0.774-0.504-0.958-0.893l-0.15-0.308
	l0.201-0.275c1.057-1.409,1.908-1.918,2.599-2.331c0.235-0.137,0.44-0.264,0.634-0.406c-0.723-0.456-1.419-0.71-2.183-0.794
	c-0.104-0.012-0.211-0.016-0.317-0.021c-0.811-0.047-1.668,0.078-2.664,0.223c-0.275,0.041-0.563,0.08-0.865,0.117l-1.038,0.141
	l0.452-0.943c0.008-0.013,0.018-0.034,0.026-0.047c-3.005,1.641-5.057,4.472-5.528,8.741C6.454,30.616,8.8,36.028,21.516,37.434
	c12.001,1.326,16.188-3.363,17.141-11.978C39.105,21.384,37.866,18.28,35.523,16.042z M29.223,34.787
	c4.361-0.938,6.773-3.509,7.509-8.04c0.088-0.473,0.766-0.369,0.677,0.11C36.775,30.655,34.053,36.03,29.223,34.787z"/>
<path fill="#5FBDAB" d="M20.521,8.968c-0.588-0.793-1.617-1.638-1.54-2.331c0.758,0.206,1.33,0.504,1.885,0.854
	c0.53,0.333,0.922,0.596,1.419,0.943c1.45,1.013,1.948,1.773,1.984,2.837c1.466-0.385,2.725-1.078,4.18-1.524
	c1.184-0.339,1.386-0.529,2.663-0.624c0.588,0.563-1.405,1.803-2.708,3.613c0.667-0.99,2.673,0.101,3.889,0.389
	c0.781,0.186,1.797,0.859,2.523,1.203c0.652,0.314,1.107,0.924,1.864,1.063c-1.435,0.245-2.922-0.041-4.305-0.417
	c-1.209-0.327-2.613-1.018-3.868-1.123c-0.116,0.845,1.573,3.543-0.026,3.676c-0.908,0.075-1.473-0.87-2.109-1.347
	c-0.723-0.54-1.202-1.629-1.988-1.301c-0.974,0.407-1.921,0.728-2.941,1.013c-1.07,0.301-3.07,1.493-3.864,2.203
	c-0.259,0.231-0.506,0.245-0.835-0.434c1.643-2.208,2.71-2.018,3.672-3.143c-1.228-0.928-2.275-1.258-3.367-1.314
	c-1.092-0.057-2.228,0.163-3.631,0.348c0.581-1.2,1.886-1.84,3.337-2.101s3.053-0.173,4.195,0.104
	C20.95,11.555,21.109,9.76,20.521,8.968z"/>
</svg>
