<?xml version="1.0" encoding="utf-8"?>
<!-- Generator: Adobe Illustrator 16.2.0, SVG Export Plug-In . SVG Version: 6.00 Build 0)  -->
<!DOCTYPE svg PUBLIC "-//W3C//DTD SVG 1.1//EN" "http://www.w3.org/Graphics/SVG/1.1/DTD/svg11.dtd">
<svg version="1.1" id="Layer_1" xmlns="http://www.w3.org/2000/svg" xmlns:xlink="http://www.w3.org/1999/xlink" x="0px" y="0px"
	 width="46.75px" height="46.75px" viewBox="0 0 46.75 46.75" enable-background="new 0 0 46.75 46.75" xml:space="preserve">
<path fill="#FFFFFF" d="M23.375,0.995v44.6h-0.09c-12.29,0-22.29-10-22.29-22.3s10-22.3,22.29-22.3H23.375z"/>
<path fill="#F8514F" d="M23.375,15.875v21.72c-0.6-0.04-1.22-0.09-1.86-0.16c-12.72-1.409-15.06-6.819-14.11-15.43
	c0.47-4.27,2.52-7.1,5.53-8.74c-0.01,0.01-0.02,0.03-0.03,0.05l-0.45,0.94l1.04-0.14c0.3-0.04,0.59-0.08,0.86-0.12
	c1-0.14,1.85-0.27,2.67-0.22c0.1,0,0.21,0.01,0.31,0.02c0.77,0.08,1.46,0.34,2.19,0.79c-0.2,0.14-0.4,0.27-0.64,0.41
	c-0.69,0.41-1.54,0.92-2.6,2.33l-0.2,0.27l0.15,0.31c0.19,0.39,0.46,0.84,0.96,0.89c0.26,0.03,0.52-0.07,0.76-0.28
	c0.73-0.66,2.67-1.81,3.64-2.08C22.225,16.255,22.815,16.075,23.375,15.875z"/>
<path fill="#5FBDAB" d="M23.375,9.315v5.96c-0.63,0.23-1.26,0.43-1.93,0.62c-1.07,0.3-3.07,1.49-3.87,2.2
	c-0.26,0.23-0.5,0.24-0.83-0.43c1.64-2.21,2.71-2.02,3.67-3.15c-1.23-0.93-2.27-1.26-3.37-1.31c-1.09-0.06-2.22,0.16-3.63,0.35
	c0.58-1.2,1.89-1.84,3.34-2.1c1.45-0.27,3.05-0.18,4.2,0.1c0,0,0.15-1.8-0.43-2.59c-0.59-0.79-1.62-1.63-1.54-2.33
	c0.75,0.21,1.33,0.51,1.88,0.86c0.53,0.33,0.92,0.59,1.42,0.94C22.735,8.745,23.095,9.035,23.375,9.315z"/>
</svg>
