<?xml version="1.0" encoding="utf-8"?>
<!-- Generator: Adobe Illustrator 16.2.0, SVG Export Plug-In . SVG Version: 6.00 Build 0)  -->
<!DOCTYPE svg PUBLIC "-//W3C//DTD SVG 1.1//EN" "http://www.w3.org/Graphics/SVG/1.1/DTD/svg11.dtd">
<svg version="1.1" id="Layer_1" xmlns="http://www.w3.org/2000/svg" xmlns:xlink="http://www.w3.org/1999/xlink" x="0px" y="0px"
	 width="37.98px" height="37.818px" viewBox="0 0 37.98 37.818" enable-background="new 0 0 37.98 37.818" xml:space="preserve">
<path fill="#17ADE4" d="M18.99,0.5C8.78,0.5,0.5,8.75,0.5,18.91S8.78,37.32,18.99,37.32c10.21,0,18.489-8.25,18.489-18.41
	S29.2,0.5,18.99,0.5z M27.573,15.337c0.01,0.177,0.019,0.373,0.019,0.56c0,5.744-4.37,12.364-12.363,12.364
	c-2.457,0-4.735-0.729-6.659-1.961c0.336,0.047,0.682,0.065,1.037,0.065c2.035,0,3.903-0.691,5.397-1.858
	c-1.905-0.038-3.511-1.289-4.063-3.016c0.262,0.046,0.542,0.074,0.813,0.074c0.402,0,0.784-0.057,1.149-0.149
	c-1.989-0.402-3.483-2.158-3.483-4.259v-0.056c0.588,0.326,1.251,0.513,1.971,0.542c-1.167-0.784-1.934-2.11-1.934-3.614
	c0-0.804,0.215-1.55,0.588-2.185c2.139,2.624,5.342,4.352,8.956,4.538c-0.075-0.317-0.112-0.653-0.112-0.989
	c0-2.4,1.942-4.343,4.341-4.343c1.252,0,2.382,0.523,3.167,1.363c0.989-0.186,1.923-0.551,2.764-1.045
	c-0.327,1.008-1.019,1.857-1.915,2.399c0.878-0.103,1.719-0.336,2.494-0.682C29.161,13.954,28.424,14.72,27.573,15.337z"/>
</svg>
