<svg xmlns="http://www.w3.org/2000/svg" xmlns:xlink="http://www.w3.org/1999/xlink" x="0px" y="0px"
	 width="234.5px" height="372.5px" viewBox="0 0 234.5 372.5" enable-background="new 0 0 234.5 372.5" xml:space="preserve">
<path d="M227.57,191.85c-0.58,7.38-7.04,12.91-14.42,12.27c-2.27-0.12-4.13-1.05-6.17-1.98l-44.83-30.88
	c-1.4-1.1-2.51-2.5-3.44-3.95l-11.22-22.39l-13.55,59.55l47.69,66.1c0.66,1.13,1.17,2.55,1.5,4.13l14.15,74.77
	c-0.02,0.811,0.01,1.49,0.04,2.05c0.02,0.471,0.04,0.811,0.01,1.07c-0.54,7.561-6.64,13.19-14.18,13.19
	c-0.36,0-0.73-0.011-1.09-0.04c-6.07-0.5-11.09-4.94-12.79-11.33l-13.77-72.25l-52.08-56.92L90.98,282.68
	c-0.26,0.87-1.54,3.21-2.16,4.351c-0.49,0.899-0.92,1.689-1.26,2.39l-41.14,69.32c-2.89,4.439-7.3,6.99-12.13,6.99
	c-0.37,0-0.74-0.011-1.12-0.04c-3.86-0.28-7.32-2.021-9.78-4.91c-2.47-2.88-3.66-6.561-3.34-10.37c0.13-1.73,0.88-4.07,2.01-6.32
	l38.77-65.02l9.54-67.66l0.48-2.12l16.8-74.38l-20.94,16.93L55.6,202.37c-1.51,6.52-7.38,11.81-14.3,11.29
	c-7.51-0.58-12.97-7.04-12.39-14.54c0-0.58,0.12-1.17,0.23-1.86l13.15-58.92c0.81-2.5,2.15-4.76,4.13-6.51l59.95-48.56
	c5.88-4.13,13.03-6.86,21-6.16c10.23,0.81,18.61,7.15,23.73,14.88l30.12,59.73l41.12,28.32
	C225.83,182.72,228.04,187.08,227.57,191.85z"/>
		<polygon points="70.85,209.29 70.37,211.41 70.5,210.5"/>
<path d="M131.256,74c16.516,1.338,30.822-10.933,32.16-27.392c1.279-16.458-10.992-30.764-27.508-32.16
	c-16.342-1.221-30.765,11.05-31.986,27.508C102.526,58.298,114.797,72.721,131.256,74L131.256,74z"/>
</svg>
