<svg xmlns="http://www.w3.org/2000/svg" xmlns:xlink="http://www.w3.org/1999/xlink" x="0px" y="0px" width="104px" preserveAspectRatio="xMinYMin slice" height="194px" viewBox="0 0 104 194" enable-background="new 0 0 104 194" xml:space="preserve">
<path fill="#DCF5FA" d="M92.67,75.39c-2.78-2.63-24.54-3.66-41.15-3.66
	c-16.64,0-38.47,1.06-41.18,3.71c-0.18,0.18-0.279,0.37-0.279,0.56c0,0.22,0.119,0.43,0.35,0.64c2.98,2.75,24.6,4.86,41.109,4.86
	c16.471,0,37.98-2.12,41.07-4.86c0.25-0.22,0.38-0.44,0.38-0.67C92.97,75.77,92.87,75.58,92.67,75.39z"/>
<path fill="#BDE0E9" d="M92.59,76.64l-5.13,84.14l-0.08-0.011
	c0,3.461-16.09,7.73-35.93,7.73c-19.421,0-35.24-4.09-35.9-7.51l-0.01-0.221L10.41,76.64c2.98,2.75,24.6,4.86,41.109,4.86
	C67.99,81.5,89.5,79.38,92.59,76.64z"/>
<path fill="none" stroke="#9DAFBB" stroke-width="2" stroke-miterlimit="10" d="M92.59,76.64l-5.21,84.129
	c0,3.461-16.09,7.73-35.93,7.73c-19.421,0-35.24-4.09-35.9-7.51l-5.14-84.35"/>
<path fill="none" stroke="#9DAFBB" stroke-width="2" stroke-miterlimit="10" d="
	M15.55,160.99L16.59,180c0,3,15.631,7.73,34.91,7.73c19.28,0,34.91-4.73,34.91-7.73l0.97-19.23"/>
<path fill="none" stroke="#9DAFBB" stroke-width="2" stroke-miterlimit="10" d="
	M10.41,76.64l-0.07-1.2L6.5,12.5c0-3.32,25.74-4.62,45-4.62s45,1.3,45,4.62l-3.83,62.89l-0.08,1.25"/>
<path fill="none" stroke="#9DAFBB" stroke-width="2" stroke-miterlimit="10" d="
	M96.377,12.485c0,3.323-25.615,6.018-44.877,6.018S6.623,15.808,6.623,12.485"/>
<path opacity="0.7" fill="#FFFFFF" d="M86.943,22.449l1.764-0.766
	c0.486-0.211,0.881-0.224,0.881-0.028l-8,138.177c0,0.195-0.395,0.525-0.881,0.736l-1.764,0.766
	c-0.486,0.211-0.882,0.223-0.882,0.027l8.001-138.176C86.063,22.99,86.457,22.66,86.943,22.449z"/>
<circle opacity="0.9" fill="#FFFFFF" cx="38.909" cy="97.058" r="2.478"/>
<circle opacity="0.6" fill="#FFFFFF" cx="46.002" cy="115.464" r="2.478"/>
<circle opacity="0.3" fill="#FFFFFF" cx="46.002" cy="134.464" r="2.478"/>
<circle opacity="0.3" fill="#FFFFFF" cx="48.002" cy="141.465" r="1.734"/>
	<circle opacity="0.3" fill="#FFFFFF" cx="50.002" cy="155.465" r="1.734"/>
</svg>