<svg xmlns="http://www.w3.org/2000/svg" xmlns:xlink="http://www.w3.org/1999/xlink" x="0px" y="0px"
	 width="64.75px" height="62.25px" viewBox="0 0 64.75 62.25" enable-background="new 0 0 64.75 62.25" xml:space="preserve">
<path fill="#F7F8F8" class="backgroundHighlight" d="M60.005,31.13c0,15.37-12.51,27.87-27.87,27.87c-15.37,0-27.87-12.5-27.87-27.87
	c0-15.38,12.5-27.88,27.87-27.88C47.495,3.25,60.005,15.75,60.005,31.13z"/>
<g>
	<path fill="#F0E89C" d="M32.133,3.25C47.499,3.25,60,15.755,60,31.125S47.499,59,32.133,59C16.767,59,4.265,46.495,4.265,31.125
		S16.767,3.25,32.133,3.25 M32.133,0.75c-16.771,0-30.368,13.6-30.368,30.375C1.765,47.9,15.361,61.5,32.133,61.5
		C48.904,61.5,62.5,47.9,62.5,31.125C62.5,14.35,48.904,0.75,32.133,0.75L32.133,0.75z"/>
</g>
<path fill="#349145" d="M38.286,13.038c3.618-1.7,7.39-0.35,7.39-0.35c0.45,0.25-0.22,0.27-0.22,0.27
	c-2.09-0.25-3.38,0.05-4.011,0.28c-2.979,0.96-5.109,2.44-5.311,2.59c-0.49,0.24-0.83,0.35-1.25,0.71l-0.39,0.21l-0.2,0.17
	c-0.029,0.03-0.08,0.06-0.141,0.1l0.621,0.7c0.729,1.14,2.82,3.09,5.3,1.94c3.829-1.76,3.62-5.14,8.25-6.12
	c0,0-4.421-5.27-11.29-2.97c0,0-3.49,1.22-2.971,4.85C34.064,15.417,36.666,13.798,38.286,13.038z M39.234,23.278
	c0,0-5.08-1.65-8.008,0.64l-1.72-0.06c-1.15-0.55-3.22-1.15-6.21-0.58c0,0-11.27,1.1-7.15,14.281c0,0,3.16,17.31,13.89,14.289
	c0,0,1.23-0.83,3.021,0.131c0,0,7.149,2.609,10.721-7.961C43.775,44.018,50.375,25.888,39.234,23.278z M23.135,27.728
	c-0.19,0.13-4.27,2.9-2.17,7.431c0.25,0.539,0.01,1.188-0.54,1.448c-0.48,0.23-1.02,0.101-1.32-0.278
	c-0.05-0.07-0.1-0.142-0.13-0.211c-2.32-5.01,0.95-8.85,3-10.189c0.51-0.33,1.18-0.2,1.51,0.3
	C23.795,26.718,23.646,27.397,23.135,27.728z"/>
<path fill="#F0C383" d="M31.195,21.028l0.03,2.89l-1.72-0.06l-1.02-8.13l2.64-0.46l0.05,4.12c1.37-1.41,2.54-2.07,2.979-2.37
	l0.621,0.7C33.996,18.308,31.605,20.368,31.195,21.028z"/>
</svg>
