<svg xmlns="http://www.w3.org/2000/svg" xmlns:xlink="http://www.w3.org/1999/xlink" x="0px" y="0px"
	 width="66.25px" height="69.75px" viewBox="0 0 66.25 69.75" enable-background="new 0 0 66.25 69.75" xml:space="preserve">
<g>
	<g>
		<path fill="#F7F8F8" class="backgroundHighlight" d="M33.435,66.764c-16.056,0-29.118-13.065-29.118-29.125c0-16.061,13.062-29.125,29.118-29.125
			c16.055,0,29.118,13.066,29.118,29.125C62.553,53.697,49.49,66.764,33.435,66.764z"/>
		<path fill="#54445A" d="M33.435,9.763c15.366,0,27.868,12.505,27.868,27.875c0,15.369-12.502,27.875-27.868,27.875
			c-15.366,0-27.868-12.506-27.868-27.875C5.567,22.268,18.068,9.763,33.435,9.763 M33.435,7.263
			c-16.771,0-30.368,13.6-30.368,30.375c0,16.775,13.596,30.375,30.368,30.375s30.368-13.6,30.368-30.375
			C63.803,20.863,50.205,7.263,33.435,7.263L33.435,7.263z"/>
	</g>
	<path fill="#EF5551" d="M53.029,54.323l-0.139-0.19l-0.271-0.43l-0.299-0.46l-0.201-0.351l-0.24-0.449l-0.25-0.301l-0.189-0.129
		l-0.09-0.031l-0.08-0.189l-0.189-0.46l-0.33-0.479l-0.391-0.32l-0.129-0.08l-0.031-0.141v-0.16l-0.66-1.399l-0.879-1.13
		l-0.74-0.721l-0.33-0.27l-0.58-1.21l-0.689-0.83l-0.58-0.52l-0.24-0.13l-0.52-1.32l-0.551-0.859l-0.42-0.451l-0.131-0.14
		l-0.25-0.89l-0.439-0.801l-0.549-0.76l-0.602-0.59l-0.609-0.48l-0.49-0.379l-0.33-0.211l-0.139-0.08l-0.111-0.219l-0.219-0.531
		l-0.33-0.699l-0.361-0.68l-0.549-0.59l-0.771-0.59l-0.709-0.43l-0.279-0.16l-0.031-0.51l-0.129-0.57l-0.221-0.48l-0.25-0.51
		l-0.25-0.4l-0.221-0.33l-0.16-0.21l-0.08-0.08l-0.609-0.49l-0.629-0.29l-0.631-0.19l-0.64-0.03l-0.629,0.08l-0.601,0.16L32,29.263
		l-0.1,0.02l-0.58,0.25l-0.55,0.26l-0.52,0.3l-0.46,0.35l-0.33,0.24l-2.27,2.19l-0.07,0.07l-0.52,0.67l-0.52,0.83l-0.39,1.03
		l-0.09,1.101l0.31,1.26l0.82,1.24l0.25,0.239l0.66,0.541L28,40.053c-0.05,0.18,0,0.37,0.14,0.5l0.02,0.021
		c0.11,0.11,0.25,0.159,0.39,0.159l0.93,0.221c0.12,0.029,0.24,0.02,0.35-0.03l0.34,0.54l0.6,0.75l0.63,0.52l0.69,0.341l0.411,0.18
		c-0.01,0.17,0.039,0.33,0.17,0.44l0.41,0.35c0.16,0.13,0.39,0.17,0.58,0.08l0.139-0.07l0.271,0.37l0.41,0.46l0.5,0.43l0.6,0.431
		l0.65,0.271c0.01,0.17,0.1,0.329,0.25,0.42l0.42,0.239c0.109,0.07,0.25,0.101,0.379,0.07l0.211-0.05l0.16,0.149l0.43,0.38
		l0.561,0.37l0.648,0.38l0.771,0.271h0.02c-0.031,0.239,0.109,0.46,0.34,0.55l0.439,0.16c0.111,0.04,0.221,0.04,0.33,0.01
		l0.141-0.04l0.141,0.15l0.35,0.409l0.42,0.4l0.49,0.32l0.129,0.04c0.041,0.2,0.18,0.37,0.391,0.42l0.439,0.11
		c0.07,0.01,0.141,0.02,0.211,0.01l0.02-0.01l0.129,0.24l0.271,0.369l0.389,0.381l0.471,0.35l0.551,0.27l0.629,0.131l0.131,0.079
		l0.359,0.25l0.471,0.351l0.5,0.32l0.32,0.159l0.359,0.19l0.25,0.13l0.109,0.05L49,54.232l0.439,0.431l0.65,0.43l0.83,0.22
		l0.27,0.051l0.25,0.08l0.17,0.06l0.08,0.021l2.91,1.72l0.09-0.091l0.07,0.041l0.109-0.101L53.029,54.323z"/>
	<path fill="#61BDAB" d="M26.82,11.073l-0.58-0.46l-0.58-0.25l0.1-0.02l0.1-0.04l0.05-0.01l0.2-0.08l0.16-0.11l0.14-0.19l0.11-0.21
		l0.08-0.3v-0.27l-0.14-0.24l-0.22-0.16l-0.3-0.13l-0.3-0.03l-0.28-0.05l-0.19-0.03h-0.05l1.01-0.35l0.25-0.3v-0.26l-0.14-0.25
		l-0.27-0.26l-0.3-0.19l-0.31-0.14l-0.12-0.06l0.49,0.03l0.09-0.05h0.07l0.99-0.59v-0.32l-0.14-0.24l-0.31-0.19l-0.35-0.14
		l-0.39-0.05l-0.33-0.06h-0.33l0.25-0.18l0.2-0.25l0.19-0.24l0.14-0.24l0.16-0.22l0.08-0.18l0.09-0.14v-0.05l0.02-0.35l-0.14-0.19
		l-0.19-0.02l-0.27,0.05l-0.33,0.11h-0.01l-0.15,0.05l-0.25,0.13l-0.13,0.1l-0.26-0.2l-0.19-0.03l-0.11,0.06l-0.05-0.01l-0.25,0.14
		l-0.19,0.18l-0.16,0.27l-0.11,0.22l-0.03,0.06l-0.12-0.25h-0.28l-0.05,0.05h-0.1l-0.32,0.32l-0.05-0.02l-0.05-0.05l-0.09-0.14
		l-0.02-0.24l-0.03-0.35l0.08-0.51v-0.43l-0.08-0.19l-0.19-0.02l-0.11,0.05h-0.05l-0.25,0.13l-0.24,0.19l-0.29,0.28v-0.44
		l-0.03-0.72l-0.11-0.38l-0.24-0.14l-0.39,0.06l-0.29,0.09l-0.28,0.09l-0.41,0.19l-0.38,0.22l-0.2,0.14l0.02-0.09l-0.03-0.24
		l-0.24-0.29l-0.64-0.19l-0.41,0.08l-0.02,0.02l-0.13,0.03l-0.3,0.29l-0.22,0.49l-0.14,0.56l-0.11,0.54l-0.05,0.48v0.05l-0.04-0.07
		l-0.36-0.29l-0.58-0.09l-0.12,0.06h-0.03l-0.3,0.13l-0.14,0.29l-0.06,0.38l0.03,0.4l0.08,0.46l0.09,0.35l0.05,0.21l-0.48-0.29
		h-0.22l-0.12,0.05h-0.03l-0.19,0.08l-0.14,0.14l-0.11,0.22l-0.06,0.21l-0.05,0.16l-0.03,0.14v0.05l0.3,0.88l-0.15-0.02l-0.33,0.06
		l-0.12,0.04l-0.03,0.01L13,7.493l-0.33,0.16l-0.3,0.14l-0.11,0.07l0.04-0.12l0.06-0.32l-0.14-0.41l-0.47-0.35l-0.35-0.02
		l-0.14,0.05h-0.02l-0.36,0.13l-0.35,0.3l-0.33,0.37l-0.28,0.38L9.7,8.193l-0.12,0.22l-0.19-0.19l-0.3-0.03l-0.16,0.05l-0.08,0.03
		H8.84l-0.16,0.06l-0.11,0.05l-0.44,0.48l-0.19,0.41l-0.02,0.4L8,9.973l0.16,0.27l0.17,0.21l0.16,0.11l0.06,0.05l-0.28,0.59
		l0.19,0.57l0.36,0.4l0.13,0.13l-0.17,0.01l-0.07,0.04l-0.08,0.01l-0.3,0.19l-0.24,0.24l-0.82-1.05l-0.05-0.05l-0.14-0.08
		l-0.22-0.11l-0.3-0.13l-0.28-0.06l-0.3-0.02l-0.3,0.08l-0.02,0.01l-0.14,0.04l-0.22,0.21l-0.14,0.51l0.22,0.43l0.36,0.3l0.17,0.11
		l-0.6,1.01l-0.81-0.55l-0.17-0.16l-0.19-0.03l-0.19,0.03l-0.05,0.03l-0.11,0.02l-0.19,0.13l-0.19,0.14l-0.17,0.1l-0.38,0.38
		l-0.17,0.27l-0.08,0.29l-0.06,0.27l-0.02,0.3l0.02,0.2l-0.03-0.04l-0.25-0.08H2.05l-0.15,0.05H1.89l-0.24,0.08l-0.23,0.11
		l-0.16,0.11l-0.14,0.13l-0.4,0.46l-0.14,0.46l0.08,0.35l0.22,0.32l0.28,0.27l0.27,0.17l-0.19,0.07l-0.33,0.22l-0.47,0.35
		l-0.38,0.43L0,19.303l0.14,0.4l0.28,0.32l0.35,0.3l0.33,0.21l0.25,0.14l0.08,0.03l-0.28,0.05l-0.09,0.04l-0.07,0.01l-0.3,0.14
		l-0.16,0.21l-0.09,0.19l-0.02,0.19l0.05,0.16l0.03,0.14l0.02,0.02l-0.02,0.35l0.11,0.16l0.22,0.06l0.27-0.06l0.08-0.03l0.08-0.02
		l0.3-0.13l0.28-0.11l0.11-0.08l-0.05,0.72l0.22,0.49l0.3,0.29l0.14,0.08l-1.13,0.46l-0.27,0.27l-0.11,0.271l0.02,0.24l0.14,0.19
		l0.19,0.19l0.17,0.1l0.14,0.08l0.08,0.03l-0.99,0.54l-0.41,0.94l-0.09,0.67l0.14,0.46l0.28,0.27l0.35,0.13l0.33,0.05h0.39
		l-0.28,0.65v0.43l0.14,0.3l0.28,0.16l0.33,0.05l0.3,0.03l0.25-0.03l0.08-0.02l0.03,0.4l0.05,0.21l0.14,0.08l0.14-0.02l0.09-0.04
		l0.06-0.01l0.2-0.08l0.19-0.14l0.22-0.16l0.25-0.19l0.22-0.16l0.19-0.24l0.16-0.22l0.14-0.24l0.08-0.19l0.09-0.19l0.05-0.1v-0.04
		l0.7-0.16l-0.44,0.49l-0.28,0.43l-0.08,0.35v0.32l0.11,0.27l0.11,0.16l0.17,0.16l0.19,0.08l0.27-0.05l0.07-0.03l0.09-0.02
		l0.36-0.19l0.38-0.27l0.36-0.29l0.33-0.27l0.14-0.14l0.25,0.94l0.39,0.16l0.13-0.06l0.02,0.01l0.31-0.13l0.22-0.22l0.08-0.13
		l1.05-1.7l0.09,0.05l0.27,0.11l0.28-0.05l0.01-0.03l0.14-0.02l0.19-0.35l0.06-0.38l0.02-0.13l0.26,0.02l0.33-0.11l0.16-0.05
		l0.16-0.16l0.11-0.21l0.06-0.22l0.03-0.19l-0.03-0.13v-0.06l-0.47-0.32l-0.12-0.09l0.17,0.02c0.16-0.22,0.25-0.49,0.28-0.77
		l-0.17-0.03l0.17-0.23l0.01-0.13l0.01-0.22l-0.1-0.18c0-0.01-0.01-0.02-0.01-0.03l-0.08-0.14l-0.22-0.22l-0.13-0.07l0.14-0.03
		l0.01-0.02l0.15-0.04l0.19-0.29l0.1-0.25l0.04-0.1l0.05-0.16l0.03-0.08l0.09,0.03c0.28-0.43,0.55-0.92,0.58-1.19l-0.02-0.01
		l0.02-0.01l0.48-0.38l0.29-0.37l0.22,0.1l0.24,0.29l0.09,0.19l0.19,0.19l0.47,0.35l0.44,0.21l0.06-0.09l0.09,0.04l0.19-0.29
		l0.03-0.1l0.05-0.21l0.24,0.28c0,0,0,0.01,0.01,0.01c0.47,0.07,1.04-0.13,1.58-0.45l-0.09-0.1l0.16-0.08l0.21-0.16l0.1,0.1
		c0.33-0.24,0.64-0.5,0.9-0.77l-0.17-0.18l0.06-0.05l0.08,0.01l0.25-0.24l0.11-0.16l0.14-0.18l0.08,0.16
		c0.04-0.07,0.09-0.13,0.12-0.19c0.23-0.4,0.31-0.74,0.33-1.11l-0.06-0.11v-0.02l0.03-0.19v-0.09h0.25l0.44-0.05l0.1-0.04l0.05-0.01
		l0.5-0.21l0.3-0.3l0.03-0.3l-0.04-0.09v-0.01l0.02,0.01l0.17,0.06l0.33-0.05l0.06-0.03l0.09-0.02l0.07-0.04l0.21-0.12l0.18-0.23
		l0.05,0.2c0.35-0.18,0.6-0.52,0.82-0.88l-0.09-0.34l0.25-0.1l0.13-0.08l0.28-0.16l0.11-0.21l-0.11-0.17l-0.1-0.05l-0.15-0.08
		l-0.24-0.08l-0.14-0.04l-0.08-0.02l-0.08-0.02l-0.06-0.16v-0.33l0.1-0.28l0.21-0.01l0.25,0.02l0.3-0.02l0.15-0.06l0.25-0.08
		l0.25-0.13l0.25-0.14l0.36-0.34l0.13-0.19l0.14-0.41l0.06-0.43l0.02-0.32l0.31,0.16l0.42,0.03l0.04-0.06l0.11,0.01l0.33-0.43
		L26.82,11.073z M1.44,17.803l0.07-0.04l0.06-0.01L1.44,17.803z M1.61,17.773l-0.02-0.02l0.06-0.01l0.12,0.11L1.61,17.773z"/>
	<path fill="#1A3B42" d="M29.46,30.683l-2.27,2.19c-0.13-0.06-0.25-0.13-0.36-0.19c-0.06-0.03-1.12-0.61-1.12-0.61l-1.29-0.73
		l-1.43-0.75l-1.51-0.78l-1.63-0.78l-1.62-0.73l-1.65-0.7l-1.62-0.61l-1.54-0.49l-1.48-0.38l-0.1-0.01
		c0.16-0.22,0.25-0.49,0.28-0.77l0.32,0.06l0.89,0.16l0.96,0.24l1.12,0.3l1.24,0.46l1.38,0.48l1.48,0.65l1.65,0.75l1.76,0.92
		l1.08,0.59l-2.53-1.92l-2.83-1.85l-2.45-1.37l-2.03-0.97l-1.6-0.64l-0.16-0.05c0.28-0.43,0.55-0.92,0.58-1.19l0.67,0.22l1.08,0.4
		l1.07,0.57l1.12,0.61l1.13,0.68l0.39,0.26l-0.54-0.54l-0.96-0.99l-0.87-1.01c0.47,0.07,1.04-0.13,1.58-0.45l1.14,1.3l2.2,2.26
		l2.7,2.52l2.5,2.2l-4.39-5.24l-2.58-2.04l-1.19-1.24c0.33-0.24,0.64-0.5,0.9-0.77l0.52,0.54l1.93,1.72l0.07,0.06l-0.61-0.71
		l-0.99-1.51l-0.37-0.74c0.04-0.07,0.09-0.13,0.12-0.19c0.23-0.4,0.31-0.74,0.33-1.11l1.12,2.15l1.6,2.53l1.64,2.42l1.68,2.18
		l1.54,1.88l0.56,0.68l-0.5-0.85l-0.88-1.66l-0.79-1.64l-0.75-1.64l-0.6-1.61L24,21.693l-0.47-1.48l-0.38-1.34l-0.33-1.29
		l-0.11-0.46c0.35-0.18,0.6-0.52,0.82-0.88l0.08,0.34l0.49,1.89l0.58,1.85l0.6,1.72l0.63,1.64l0.66,1.51l0.64,1.42l0.6,1.29
		l0.61,1.13C28.65,29.483,29.09,30.083,29.46,30.683z"/>
</g>
</svg>
