<svg xmlns="http://www.w3.org/2000/svg" xmlns:xlink="http://www.w3.org/1999/xlink" x="0px" y="0px"
	 width="64.25px" height="63.75px" viewBox="0 0 64.25 63.75" enable-background="new 0 0 64.25 63.75" xml:space="preserve">
<g>
	<g>
		<path fill="#F7F8F8" class="backgroundHighlight" d="M33.882,61C17.826,61,4.764,47.936,4.764,31.875c0-16.06,13.062-29.125,29.118-29.125
			C49.938,2.75,63,15.815,63,31.875C63,47.936,49.938,61,33.882,61z"/>
		<path fill="#F05451" d="M33.882,4C49.248,4,61.75,16.505,61.75,31.875S49.248,59.75,33.882,59.75S6.014,47.245,6.014,31.875
			S18.516,4,33.882,4 M33.882,1.5C17.111,1.5,3.514,15.1,3.514,31.875c0,16.775,13.597,30.375,30.368,30.375
			c16.771,0,30.368-13.6,30.368-30.375C64.25,15.1,50.653,1.5,33.882,1.5L33.882,1.5z"/>
	</g>
	<path fill="#1B3D43" d="M57.553,7.166c-0.474-0.273-1.081-0.109-1.353,0.37L45.356,26.598h2.284L57.923,8.517
		C58.194,8.043,58.028,7.436,57.553,7.166z"/>
	<path fill="#F3EA9E" d="M12.92,27.664v0.558c0,10.188,9.292,18.442,20.752,18.442s20.752-8.255,20.752-18.442v-0.558H12.92z"/>
	<g>
		<g>
			<path fill="#F4C38D" d="M40.807,46.552c-2.241,0.683-4.637,1.065-7.132,1.065c-2.498,0-4.893-0.385-7.134-1.065h-0.499v3.354
				h15.261v-3.354H40.807z"/>
		</g>
	</g>
</g>
</svg>
