<?xml version="1.0" encoding="utf-8"?>
<!-- Generator: Adobe Illustrator 16.2.0, SVG Export Plug-In . SVG Version: 6.00 Build 0)  -->
<!DOCTYPE svg PUBLIC "-//W3C//DTD SVG 1.1//EN" "http://www.w3.org/Graphics/SVG/1.1/DTD/svg11.dtd">
<svg version="1.1" id="Layer_1" xmlns="http://www.w3.org/2000/svg" xmlns:xlink="http://www.w3.org/1999/xlink" x="0px" y="0px"
	 width="64.25px" height="63.75px" viewBox="0 0 64.25 63.75" enable-background="new 0 0 64.25 63.75" xml:space="preserve">
<g>
	<g>
		<path fill="#F7F8F8" class="backgroundHighlight" d="M33.882,60.995c-16.056,0-29.118-13.065-29.118-29.126c0-16.06,13.062-29.125,29.118-29.125
			C49.938,2.744,63,15.81,63,31.869C63,47.93,49.938,60.995,33.882,60.995z"/>
		<path fill="#3CBFBF" d="M33.882,3.994c15.366,0,27.868,12.505,27.868,27.875c0,15.371-12.501,27.876-27.868,27.876
			S6.014,47.24,6.014,31.869C6.014,16.499,18.516,3.994,33.882,3.994 M33.882,1.494c-16.771,0-30.368,13.6-30.368,30.375
			S17.11,62.245,33.882,62.245c16.771,0,30.368-13.601,30.368-30.376S50.653,1.494,33.882,1.494L33.882,1.494z"/>
	</g>
	<g>
		<g>
			<path fill="#F4C38D" d="M33.757,41.255l-3.197,2.011l3.197,2.01l3.197-2.01L33.757,41.255z M38.139,43.266l0.05,0.03l0.803,0.505
				l0.541-1.41l-1.313,0.824L38.139,43.266z M37.547,38.874l-3.197,2.01l3.197,2.011l1.048-0.66l1.313-0.823l0.324-0.849
				l-0.803-0.506L37.547,38.874z M33.757,36.491l-3.197,2.011l3.197,2.008l3.197-2.009L33.757,36.491z M33.166,50.413l-1.422-0.896
				l-1.314-0.826l1.066,2.771l0.802-0.505L33.166,50.413z M33.757,50.785l-1.229,0.771l-0.802,0.504l1.588,4.131
				c0.055,0.145,0.248,0.246,0.467,0.246s0.41-0.103,0.466-0.246l1.572-4.11l-0.803-0.505L33.757,50.785z M34.35,50.413l0.898,0.563
				l0.803,0.506l1.078-2.816l-1.312,0.824L34.35,50.413z M37.547,43.637l-3.197,2.012l2.368,1.487l0.803,0.505l1.24-3.24
				l-0.803-0.504L37.547,43.637z M29.377,38.501l-2.47-1.554L26.18,36.49l-0.359,0.226l1.246,3.236l0.802-0.504L29.377,38.501z
				 M29.377,43.266l-0.052-0.033l-1.314-0.825l0.532,1.383l0.802-0.504L29.377,43.266z M33.166,45.648l-3.197-2.012l-0.393,0.247
				l-0.802,0.505l1.245,3.236l0.802-0.504L33.166,45.648z M29.968,42.893l3.197-2.01l-3.197-2.01l-1.869,1.175l-0.802,0.504
				l0.335,0.873l1.314,0.826L29.968,42.893z M33.757,35.747l3.197-2.011l-2.566-1.622h-1.284l-2.543,1.622L33.757,35.747z
				 M40.743,36.119l-3.197-2.01l-3.197,2.01l3.197,2.01L40.743,36.119z M26.772,36.119l3.197,2.01l3.197-2.01l-3.197-2.01
				L26.772,36.119z M40.62,36.939l-2.481,1.563l1.519,0.955l0.804,0.504l1.241-3.24l-0.366-0.229L40.62,36.939z M41.931,36.121
				l0.001-0.006l-0.005,0.004L41.931,36.121z M40.72,32.114l-0.303,0.188l-2.279,1.434l2.989,1.88l0.208,0.13l0.972-0.61
				l1.157-3.021L40.72,32.114L40.72,32.114z M30.561,48.03l0.805,0.507l2.391,1.504l2.436-1.531l0.762-0.479l-0.467-0.293
				l-2.73-1.719l-2.705,1.701L30.561,48.03z M26.393,35.611l2.984-1.875l-2.28-1.434l-0.302-0.188h-2.744l1.165,3.024l0.965,0.607
				L26.393,35.611z M29.969,33.364l1.687-1.062l0.303-0.188H27.98l0.303,0.188L29.969,33.364z M37.547,33.364l1.687-1.062
				l0.303-0.188h-3.979l0.304,0.188L37.547,33.364z"/>
		</g>
	</g>
	<path fill="#F05451" d="M42.823,31.372c1.047-3.996-4.114-4.655-10.434-5.297c-5.615-0.57-7.073-1.873-7.073-1.873
		c-3.368,3.414,0.26,7.17,0.26,7.17H42.823z"/>
	<path fill="#F05451" d="M26.623,23.687c2.282,1.067,6.794,1.375,10.575,1.923c4.877,0.705,6.113,2.438,6.113,2.438
		c2.885-5.578-5.976-8.268-9.896-9c-3.919-0.732-6.271-1.953-6.271-1.953C23.804,17.586,22.774,21.887,26.623,23.687z"/>
	<path fill="#F05451" d="M32.802,17.827c2.245,0.508,4.043,0.89,5.426,1.349c2.176,0.721,3.278,1.618,3.278,1.618
		c2.335-2.504-0.752-5.507-3.622-6.945c-5.633-2.824-3.297-6.547-3.297-6.547s-7.693,2.311-7.442,6.563
		C27.247,15.589,28.544,16.864,32.802,17.827z"/>
</g>
</svg>
