<svg xmlns="http://www.w3.org/2000/svg" xmlns:xlink="http://www.w3.org/1999/xlink" x="0px" y="0px"
	 width="66.25px" height="63.75px" viewBox="0 0 66.25 63.75" enable-background="new 0 0 66.25 63.75" xml:space="preserve">
<g>
	<g>
		<path fill="#F7F8F8" class="backgroundHighlight" d="M33.368,60.5C17.312,60.5,4.25,47.436,4.25,31.375c0-16.06,13.062-29.125,29.118-29.125
			c16.056,0,29.118,13.065,29.118,29.125C62.486,47.436,49.423,60.5,33.368,60.5z"/>
		<path fill="#0BB47B" d="M33.368,3.5c15.366,0,27.868,12.505,27.868,27.875S48.734,59.25,33.368,59.25S5.5,46.745,5.5,31.375
			S18.001,3.5,33.368,3.5 M33.368,1C16.596,1,3,14.6,3,31.375C3,48.15,16.596,61.75,33.368,61.75
			c16.772,0,30.368-13.6,30.368-30.375C63.734,14.6,50.141,1,33.368,1L33.368,1z"/>
	</g>
	<path fill="#1A3B42" d="M34.658,38.271c-8.968-1.068-18.322-0.674-18.416-0.67l-0.045,0.002L16.151,37.6
		c-0.268-0.014-0.525-0.043-0.777-0.078c2.958,10.08,21.864,8.013,25.287,6.86c5.392-1.813,6.153-6.237,6.153-6.237
		c-0.008-0.006-0.015-0.012-0.022-0.018C43.593,38.782,39.473,38.845,34.658,38.271z"/>
	<path fill="#EF5552" d="M22.354,22.36c-0.565,0.055-1.129,0.117-1.698,0.181c-5.907,0.669-9.032,3.445-9.778,6.139
		c2.07-0.519,4.146-0.906,6.203-1.186L22.354,22.36z"/>
	<path fill="#EF5552" d="M46.327,24.964c-1.466,1.032-3.58,2.521-4.813,3.39c4.926,0.907,8.769,2.02,10.904,2.704
		c-0.036-0.45-0.139-0.906-0.318-1.353C51.611,28.483,50.229,26.504,46.327,24.964z"/>
	<path fill="#EF5552" d="M38.939,27.917l5.224-3.68c-0.726-0.208-1.517-0.4-2.378-0.574c-2.361-0.475-4.45-0.824-6.336-1.074
		c-1.221,1.129-3.426,3.17-4.802,4.445C33.672,27.205,36.477,27.536,38.939,27.917z"/>
	<path fill="#EF5552" d="M44.911,36.579c0.521-0.07,1.021-0.149,1.5-0.248c2.64-0.537,4.495-1.492,5.366-2.763
		c0.144-0.207,0.262-0.428,0.357-0.659c-1.992-0.646-5.826-1.779-10.734-2.697C42.43,32.077,44.164,35.223,44.911,36.579z"/>
	<path fill="#EF5552" d="M28.054,26.927l4.986-4.615c-3.018-0.29-5.504-0.306-7.821-0.178c-0.335,0.327-3.492,3.4-5.166,5.032
		C22.802,26.924,25.49,26.864,28.054,26.927z"/>
	<path fill="#EF5552" d="M19.903,29.029c1.394,1.937,4.112,5.708,4.833,6.708c2.396,0.068,5.098,0.203,7.841,0.459l-4.719-7.427
		C25.307,28.71,22.633,28.778,19.903,29.029z"/>
	<path fill="#EF5552" d="M22.441,35.693l-4.634-6.434c-2.34,0.297-4.708,0.739-7.062,1.359c0.012,0.086,0.026,0.174,0.042,0.262
		c0.373,2.064,1.971,4.665,5.436,4.873C16.618,35.74,19.038,35.65,22.441,35.693z"/>
	<path fill="#EF5552" d="M42.92,36.766l-3.835-6.958c-2.632-0.421-5.687-0.787-9-0.958c1.242,1.956,4.021,6.332,4.823,7.591
		C37.895,36.798,40.573,36.904,42.92,36.766z"/>
	<path fill="#EF5552" d="M60.188,31.195c-2.435-0.144-4.52,0.312-5.606,0.484c-0.22,1.342-0.783,2.232-0.783,2.232
		s1.152,1.989,3.906,4.208c2.565,2.066,4.76,2.204,5.521,0.895c1.264-2.174-1.988-3.58-1.988-3.58
		c1.478,0.407,3.66,0.586,3.978-1.49C65.525,31.915,62.764,31.348,60.188,31.195z"/>
</g>
</svg>
