<svg xmlns="http://www.w3.org/2000/svg" xmlns:xlink="http://www.w3.org/1999/xlink" x="0px" y="0px"
	 width="65.625px" height="63.75px" viewBox="0 0 65.625 63.75" enable-background="new 0 0 65.625 63.75" xml:space="preserve">
<g>
	<g>
		<path fill="#F7F8F8" class="backgroundHighlight" d="M32.882,61C16.826,61,3.764,47.936,3.764,31.875c0-16.06,13.062-29.125,29.118-29.125
			C48.938,2.75,62,15.815,62,31.875C62,47.936,48.937,61,32.882,61z"/>
		<path fill="#BE7260" d="M32.882,4C48.248,4,60.75,16.505,60.75,31.875S48.248,59.75,32.882,59.75S5.014,47.245,5.014,31.875
			S17.515,4,32.882,4 M32.882,1.5C16.11,1.5,2.514,15.1,2.514,31.875c0,16.775,13.596,30.375,30.368,30.375
			c16.772,0,30.368-13.6,30.368-30.375C63.248,15.1,49.654,1.5,32.882,1.5L32.882,1.5z"/>
	</g>
	<g>
		<g>
			<path fill="#60BEAC" d="M43.022,25.334c-0.485-2.616-1.383-4.792-2.663-6.47c-2.125-2.78-2.453-6.938-2.496-8.542
				c0.196-0.288,0.305-0.615,0.307-0.937c-0.002-0.701-0.526-1.411-1.223-1.652l-0.021-0.006l-0.021-0.006
				c-1.311-0.375-2.664-0.565-4.025-0.565s-2.716,0.19-4.025,0.565l-0.021,0.006l-0.021,0.007c-0.696,0.242-1.221,0.951-1.221,1.651
				c0,0.321,0.108,0.648,0.307,0.937c-0.043,1.604-0.371,5.762-2.495,8.542c-1.282,1.678-2.178,3.854-2.664,6.47
				c-0.353,1.895-0.349,3.318-0.349,3.428v22.854c0,1.228,0.243,2.222,0.742,3.038c0.463,0.754,1.15,1.339,2.043,1.736
				c1.602,0.713,3.722,0.771,5.757,0.771c0.319,0,0.647-0.001,0.965-0.003c0.321-0.002,0.654-0.004,0.982-0.004
				s0.66,0.002,0.982,0.004c0.316,0.001,0.646,0.003,0.965,0.003c2.035,0,4.154-0.061,5.756-0.771
				c0.894-0.398,1.58-0.982,2.043-1.738c0.5-0.814,0.742-1.81,0.742-3.037V28.763C43.371,28.653,43.375,27.229,43.022,25.334z
				 M42.561,51.617c0,4.439-3.568,4.734-7.732,4.734c-0.639,0-1.291-0.007-1.946-0.007s-1.309,0.007-1.947,0.007
				c-4.164,0-7.732-0.295-7.732-4.734V28.759c0,0-0.057-5.604,2.845-9.401c2.27-2.97,2.649-7.42,2.668-9.32
				c-0.188-0.183-0.312-0.431-0.312-0.651c0-0.344,0.301-0.754,0.675-0.883c1.243-0.356,2.522-0.534,3.802-0.534
				c1.279,0,2.56,0.178,3.803,0.534c0.374,0.129,0.676,0.539,0.676,0.883c0,0.221-0.125,0.468-0.313,0.651
				c0.018,1.9,0.398,6.351,2.667,9.32c2.903,3.797,2.846,9.401,2.846,9.401L42.561,51.617L42.561,51.617z"/>
		</g>
	</g>
	<path fill="#F3C28C" d="M39.18,54.383c-0.665,0-11.89,0-12.59,0c-0.7,0-1.4-0.592-1.4-1.38s0-23.62,0-23.62H40.58
		c0,0,0,22.783,0,23.62S39.845,54.383,39.18,54.383z"/>
</g>
</svg>
